<svg width="24" height="24" viewBox="0 0 24 24" fill="none" xmlns="http://www.w3.org/2000/svg">
<rect x="0.105469" y="0.277344" width="23.3428" height="23.3428" rx="4.66856" fill="#E5E5E5"/>
<g clip-path="url(#clip0_46573_41579)">
<path d="M21.1137 11.9504C21.1137 13.7971 20.5661 15.6023 19.5401 17.1378C18.5141 18.6733 17.0559 19.8701 15.3497 20.5768C13.6436 21.2835 11.7662 21.4684 9.955 21.1081C8.14377 20.7478 6.48006 19.8586 5.17424 18.5527C3.86842 17.2469 2.97914 15.5832 2.61887 13.772C2.25859 11.9608 2.4435 10.0834 3.1502 8.37724C3.85691 6.6711 5.05367 5.21285 6.58915 4.18687C8.12463 3.16089 9.92987 2.61328 11.7766 2.61328C14.2529 2.61328 16.6279 3.59701 18.3789 5.34806C20.13 7.09911 21.1137 9.47404 21.1137 11.9504Z" fill="#F7931A"/>
<path fill-rule="evenodd" clip-rule="evenodd" d="M9.07548 6.87704L11.2213 7.4517L11.7009 5.66406L12.7738 5.95521L12.3129 7.669L13.1881 7.90412L13.6498 6.17166L14.7414 6.46366L14.2712 8.20546C14.2712 8.20546 16.0537 8.60016 16.473 10.05C16.8923 11.4998 15.5512 12.2612 15.137 12.29C15.137 12.29 16.6988 13.1465 16.1624 14.8314C15.6259 16.5163 13.9792 16.8177 12.2467 16.4315L11.7765 18.2378L10.6849 17.9458L11.1644 16.1675L10.2986 15.9315L9.81905 17.7225L8.73595 17.4314L9.21638 15.6488L7.01367 15.0547L7.56881 13.8222C7.56881 13.8222 8.19015 13.9919 8.42527 14.0479C8.6604 14.104 8.81149 13.8595 8.8777 13.615C8.94391 13.3706 9.94128 9.31912 10.0355 8.98553C10.1297 8.65194 10.0915 8.39135 9.69597 8.28864C9.30042 8.18593 8.76226 8.02551 8.76226 8.02551L9.07548 6.87704ZM11.24 12.2425L10.6458 14.6048C10.6458 14.6048 13.5921 15.6684 13.969 14.1719C14.3459 12.6754 11.24 12.2425 11.24 12.2425ZM11.5133 11.122L12.0965 8.95752C12.0965 8.95752 14.6192 9.4091 14.3085 10.6136C13.9978 11.8181 12.5107 11.3563 11.5133 11.122Z" fill="white"/>
</g>
<defs>
<clipPath id="clip0_46573_41579">
<rect width="18.6742" height="18.6742" fill="white" transform="translate(2.43945 2.61328)"/>
</clipPath>
</defs>
</svg>
