<svg width="24" height="24" viewBox="0 0 24 24" fill="none" xmlns="http://www.w3.org/2000/svg">
<path d="M0.65625 4.77403C0.65625 2.19566 2.74644 0.105469 5.32481 0.105469H19.3305C21.9089 0.105469 23.9991 2.19565 23.9991 4.77403V18.7797C23.9991 21.3581 21.9089 23.4483 19.3305 23.4483H5.3248C2.74643 23.4483 0.65625 21.3581 0.65625 18.7797V4.77403Z" fill="#E5E5E5"/>
<g clip-path="url(#clip0_46573_41590)">
<path d="M12.3274 21.1156C17.4841 21.1156 21.6645 16.9353 21.6645 11.7785C21.6645 6.62178 17.4841 2.44141 12.3274 2.44141C7.17061 2.44141 2.99023 6.62178 2.99023 11.7785C2.99023 16.9353 7.17061 21.1156 12.3274 21.1156Z" fill="white"/>
<path d="M12.3285 4.92188L11.0697 5.64593L7.64044 7.62794L6.38672 8.35114V15.2097L7.64468 15.9329L11.1062 17.9158L12.3642 18.639L13.623 17.9158L17.0183 15.9329L18.2763 15.2097V8.35114L17.0183 7.62794L13.589 5.64593L12.3285 4.92188ZM8.89925 13.7624V9.7984L12.3285 7.81638L15.7578 9.7984V13.7624L12.3285 15.7444L8.89925 13.7624Z" fill="#2A5ADA"/>
</g>
<defs>
<clipPath id="clip0_46573_41590">
<rect width="18.6742" height="18.6742" fill="white" transform="translate(2.99023 2.44141)"/>
</clipPath>
</defs>
</svg>
