<svg width="24" height="24" viewBox="0 0 24 24" fill="none" xmlns="http://www.w3.org/2000/svg">
<path d="M0.105469 5.05138C0.105469 2.473 2.19565 0.382812 4.77403 0.382812H18.7797C21.3581 0.382812 23.4483 2.473 23.4483 5.05137V19.0571C23.4483 21.6354 21.3581 23.7256 18.7797 23.7256H4.77402C2.19565 23.7256 0.105469 21.6354 0.105469 19.0571V5.05138Z" fill="#E5E5E5"/>
<g clip-path="url(#clip0_46573_41583)">
<path fill-rule="evenodd" clip-rule="evenodd" d="M11.7395 2.71875C13.5862 2.71875 15.3914 3.26636 16.9269 4.29234C18.4624 5.31831 19.6591 6.77657 20.3658 8.48271C21.0725 10.1888 21.2574 12.0662 20.8972 13.8775C20.5369 15.6887 19.6476 17.3524 18.3418 18.6582C17.036 19.964 15.3723 20.8533 13.561 21.2136C11.7498 21.5739 9.87244 21.389 8.1663 20.6822C6.46017 19.9755 5.00191 18.7788 3.97593 17.2433C2.94996 15.7078 2.40234 13.9026 2.40234 12.0559C2.40234 9.57951 3.38607 7.20458 5.13712 5.45353C6.88817 3.70248 9.26311 2.71875 11.7395 2.71875V2.71875Z" fill="white"/>
<path fill-rule="evenodd" clip-rule="evenodd" d="M11.7411 4.72266L14.1977 8.39299L16.6542 12.0642L11.7411 14.5394L6.82812 12.0548L9.28464 8.38366L11.7411 4.72266ZM11.7411 15.5283L7.1006 13.0522L11.7411 19.387L16.3817 13.0522L11.7411 15.5283Z" fill="#343434"/>
<path fill-rule="evenodd" clip-rule="evenodd" d="M11.7402 4.72266L14.1967 8.38366L16.6533 12.0548L11.7402 10.2002V4.72266Z" fill="#343434"/>
<path fill-rule="evenodd" clip-rule="evenodd" d="M11.7402 15.5307L16.3901 13.0547L11.7402 19.3988V15.5307Z" fill="#313131"/>
<path fill-rule="evenodd" clip-rule="evenodd" d="M11.7402 10.2031L16.6533 12.0578L11.7402 14.533V10.2031Z" fill="#151515"/>
<path fill-rule="evenodd" clip-rule="evenodd" d="M11.7411 4.72266L9.28464 8.38366L6.82812 12.0548L11.7411 10.2002V4.72266Z" fill="#8C8C8C"/>
<path fill-rule="evenodd" clip-rule="evenodd" d="M11.7402 15.5307L7.09961 13.0547L11.7402 19.3988V15.5307Z" fill="#8A8A8A"/>
<path fill-rule="evenodd" clip-rule="evenodd" d="M11.7411 10.2031L6.82812 12.0578L11.7411 14.533V10.2031Z" fill="#353535"/>
</g>
<defs>
<clipPath id="clip0_46573_41583">
<rect width="18.6742" height="18.6742" fill="white" transform="translate(2.43945 2.71875)"/>
</clipPath>
</defs>
</svg>
