<svg width="24" height="25" viewBox="0 0 24 25" fill="none" xmlns="http://www.w3.org/2000/svg">
<path d="M0.105469 5.49669C0.105469 2.91832 2.19565 0.828125 4.77403 0.828125H18.7797C21.3581 0.828125 23.4483 2.91831 23.4483 5.49669V19.5024C23.4483 22.0807 21.3581 24.1709 18.7797 24.1709H4.77402C2.19565 24.1709 0.105469 22.0807 0.105469 19.5024V5.49669Z" fill="#E5E5E5"/>
<g clip-path="url(#clip0_46573_41581)">
<rect x="2.43945" y="3.16406" width="18.6742" height="18.6742" rx="9.33712" fill="black"/>
<g clip-path="url(#clip1_46573_41581)">
<path d="M8.33865 14.6051C8.40012 14.5437 8.48464 14.5078 8.57429 14.5078H16.7036C16.8521 14.5078 16.9264 14.6871 16.8214 14.7921L15.2155 16.398C15.154 16.4595 15.0695 16.4953 14.9799 16.4953H6.85059C6.70204 16.4953 6.62776 16.316 6.73277 16.211L8.33865 14.6051Z" fill="url(#paint0_linear_46573_41581)"/>
<path d="M8.33865 8.60904C8.40268 8.54758 8.48721 8.51172 8.57429 8.51172H16.7036C16.8521 8.51172 16.9264 8.691 16.8214 8.79601L15.2155 10.4019C15.154 10.4634 15.0695 10.4992 14.9799 10.4992H6.85059C6.70204 10.4992 6.62776 10.3199 6.73277 10.2149L8.33865 8.60904Z" fill="url(#paint1_linear_46573_41581)"/>
<path d="M15.2155 11.5856C15.154 11.5241 15.0695 11.4883 14.9799 11.4883H6.85059C6.70204 11.4883 6.62776 11.6676 6.73277 11.7726L8.33865 13.3785C8.40012 13.4399 8.48464 13.4758 8.57429 13.4758H16.7036C16.8521 13.4758 16.9264 13.2965 16.8214 13.1915L15.2155 11.5856Z" fill="url(#paint2_linear_46573_41581)"/>
</g>
</g>
<defs>
<linearGradient id="paint0_linear_46573_41581" x1="15.927" y1="7.5527" x2="10.3009" y2="18.329" gradientUnits="userSpaceOnUse">
<stop stop-color="#00FFA3"/>
<stop offset="1" stop-color="#DC1FFF"/>
</linearGradient>
<linearGradient id="paint1_linear_46573_41581" x1="13.467" y1="6.26806" x2="7.84083" y2="17.0443" gradientUnits="userSpaceOnUse">
<stop stop-color="#00FFA3"/>
<stop offset="1" stop-color="#DC1FFF"/>
</linearGradient>
<linearGradient id="paint2_linear_46573_41581" x1="14.6891" y1="6.90402" x2="9.06302" y2="17.6803" gradientUnits="userSpaceOnUse">
<stop stop-color="#00FFA3"/>
<stop offset="1" stop-color="#DC1FFF"/>
</linearGradient>
<clipPath id="clip0_46573_41581">
<rect x="2.43945" y="3.16406" width="18.6742" height="18.6742" rx="9.33712" fill="white"/>
</clipPath>
<clipPath id="clip1_46573_41581">
<rect width="10.186" height="7.98331" fill="white" transform="translate(6.68359 8.51172)"/>
</clipPath>
</defs>
</svg>
