<svg width="24" height="25" viewBox="0 0 24 25" fill="none" xmlns="http://www.w3.org/2000/svg">
<path d="M0.208984 5.49669C0.208984 2.91832 2.29917 0.828125 4.87755 0.828125H18.8832C21.4616 0.828125 23.5518 2.91831 23.5518 5.49669V19.5024C23.5518 22.0807 21.4616 24.1709 18.8832 24.1709H4.87754C2.29916 24.1709 0.208984 22.0807 0.208984 19.5024V5.49669Z" fill="#E5E5E5"/>
<g clip-path="url(#clip0_46573_41597)">
<path d="M11.8801 21.8383C17.0368 21.8383 21.2172 17.6579 21.2172 12.5012C21.2172 7.34443 17.0368 3.16406 11.8801 3.16406C6.72334 3.16406 2.54297 7.34443 2.54297 12.5012C2.54297 17.6579 6.72334 21.8383 11.8801 21.8383Z" fill="#F00500"/>
<path d="M15.0116 7.77544C14.6559 8.13109 14.3301 8.51656 14.0404 8.92759L13.9488 8.89778C13.4207 8.72527 12.8734 8.61879 12.3218 8.58258C12.1557 8.56981 11.5359 8.56981 11.3336 8.58258C10.7224 8.62305 10.2539 8.71462 9.72144 8.89991C9.70014 8.90843 9.68097 8.91481 9.6618 8.9212C9.36152 8.51231 9.02716 8.12896 8.65873 7.77757C10.4264 6.87245 12.4943 6.76384 14.345 7.47728C14.543 7.55182 14.7368 7.63914 14.9264 7.73284L15.0116 7.77544Z" fill="#F00500"/>
<path d="M18.3083 15.8533C18.04 16.6179 17.6374 17.327 17.1157 17.9447C16.8324 18.2769 16.5194 18.5814 16.1829 18.8583C15.3949 19.4929 14.4749 19.9465 13.4931 20.1851C12.407 20.447 11.274 20.447 10.1878 20.1851C9.20392 19.9465 8.28603 19.4929 7.49805 18.8583C7.16156 18.5814 6.8485 18.2769 6.56525 17.9447C5.06383 16.1706 4.60808 13.7343 5.37263 11.5386C5.51745 11.1318 5.69847 10.7399 5.9157 10.3673C6.01579 10.1969 6.13932 10.0052 6.19895 9.92641C6.4034 10.806 6.6547 11.579 6.7484 11.858C6.74201 11.8729 6.7335 11.89 6.72498 11.9049C6.22876 12.9101 5.96042 13.8791 5.89653 14.9099C5.89653 14.9226 5.8944 14.9375 5.8944 14.9503C5.87736 15.2591 5.88588 15.4061 5.937 15.5999C6.09672 16.2068 6.58868 16.8756 7.35962 17.5315C8.62252 18.6049 10.3348 19.3801 11.6318 19.4695C12.9841 19.5611 14.9796 18.771 16.3085 17.6167C16.5172 17.4314 16.7132 17.2355 16.8963 17.0268C17.0284 16.8734 17.2243 16.6093 17.2094 16.6093C17.2051 16.6093 17.2094 16.6051 17.2179 16.6008C17.2243 16.5966 17.2307 16.5902 17.2264 16.5859C17.2243 16.5838 17.2286 16.5774 17.2349 16.5753C17.2413 16.5731 17.2456 16.5689 17.2435 16.5646C17.2413 16.5604 17.2435 16.5561 17.252 16.554C17.2584 16.5518 17.2605 16.5455 17.2584 16.5412C17.2562 16.5369 17.2584 16.5327 17.2626 16.5327C17.2669 16.5327 17.2711 16.5263 17.2711 16.522C17.2711 16.5178 17.2754 16.5114 17.2797 16.5114C17.2839 16.5114 17.2882 16.5071 17.2882 16.5029C17.2946 16.4858 17.3052 16.4688 17.3159 16.4539C17.3478 16.4049 17.4756 16.177 17.4926 16.1387C17.614 15.864 17.6907 15.619 17.7269 15.3741C17.7439 15.257 17.7546 15.0419 17.7461 14.9908C17.7439 14.9823 17.7439 14.9674 17.7418 14.9439C17.7375 14.9013 17.7354 14.8375 17.7312 14.7736C17.7269 14.6777 17.7184 14.5436 17.712 14.4775C17.6204 13.5107 17.3734 12.7205 16.9048 11.8836C16.8857 11.8516 16.8686 11.8197 16.858 11.7941C16.8537 11.7877 16.8516 11.7814 16.8495 11.7771C16.9155 11.579 17.186 10.7506 17.4011 9.80289L17.4053 9.80715L17.4373 9.84974C17.4926 9.92428 17.6396 10.1458 17.7056 10.2523C18.0059 10.7421 18.2401 11.2681 18.4063 11.8176C18.7917 13.1401 18.7598 14.5499 18.3083 15.8533Z" fill="#F00500"/>
<path d="M15.544 13.3083C15.5376 13.3424 15.4375 13.4446 15.3374 13.5192C15.0435 13.7343 14.5175 13.9345 13.9829 14.0303C13.6784 14.0857 13.3738 14.0942 13.2823 14.0495C13.2226 14.0197 13.2141 13.9962 13.2354 13.9196C13.2801 13.7598 13.425 13.5852 13.6507 13.4212C13.7657 13.3382 14.2321 13.0549 14.4493 12.9356C14.8071 12.7397 15.0967 12.6226 15.2927 12.5949C15.3544 12.5864 15.429 12.5843 15.4524 12.5949C15.4907 12.6098 15.5333 12.7227 15.5504 12.859C15.5589 12.9314 15.5546 13.2508 15.544 13.3083Z" fill="black"/>
<path d="M10.5265 14.0133C10.5137 14.0388 10.4498 14.0665 10.3774 14.0772C10.305 14.0878 10.0835 14.0814 9.95783 14.0665C9.50634 14.0069 9.02716 13.8684 8.67789 13.6981C8.48196 13.6022 8.3414 13.5064 8.23705 13.402L8.17742 13.3403L8.17103 13.2594C8.16038 13.1188 8.16251 12.8973 8.17955 12.8185C8.1902 12.7525 8.21362 12.6886 8.24557 12.6311C8.2626 12.6098 8.2626 12.6098 8.33927 12.6098C8.43298 12.6098 8.51178 12.6247 8.63956 12.6652C8.90151 12.7461 9.29124 12.942 9.76616 13.2274C10.158 13.4617 10.305 13.5767 10.4178 13.7343C10.4945 13.8322 10.5456 13.9707 10.5265 14.0133Z" fill="black"/>
<path d="M13.5421 16.9778C13.5421 16.9842 13.5165 17.0864 13.4846 17.2078C13.4526 17.3292 13.4271 17.4271 13.4271 17.4314C13.4037 17.4335 13.3824 17.4357 13.3589 17.4335H13.2908L13.1971 17.655C13.146 17.7764 13.0991 17.8893 13.0927 17.9063L13.0799 17.9361L12.9905 17.7913V17.2014L12.9735 17.2057C12.9372 17.2142 12.6796 17.2482 12.5667 17.2589C12.1003 17.3057 11.6318 17.2951 11.1675 17.2291C11.0929 17.2184 11.0291 17.2099 11.0269 17.212C11.0248 17.2142 11.0269 17.3505 11.0312 17.5187L11.0376 17.8211L11.0014 17.8765C10.9822 17.9063 10.963 17.9319 10.963 17.934C10.9566 17.9404 10.9354 17.9063 10.8864 17.8084C10.8331 17.7061 10.7948 17.5975 10.7671 17.4846L10.7522 17.4229L10.6862 17.4271L10.6202 17.4335L10.6031 17.3547C10.5946 17.3121 10.584 17.2461 10.5797 17.2099L10.5733 17.1418L10.5179 17.0928C10.486 17.0651 10.454 17.0374 10.4477 17.0331C10.437 17.0246 10.4327 17.0097 10.4327 16.9969V16.9714L10.9652 16.9756L10.9822 17.031L11.0738 17.0353C11.1249 17.0374 11.2867 17.0417 11.4316 17.0459L11.6978 17.0523L11.7659 16.9458L11.8362 16.8393H11.9257L11.9214 16.3964L11.8043 16.3453C11.4273 16.1791 11.2058 15.9896 11.1228 15.7596C11.1057 15.7127 11.1057 15.6957 11.1015 15.4827C11.0993 15.2719 11.0993 15.2527 11.1142 15.2059C11.1441 15.0994 11.2271 15.0163 11.3336 14.9887C11.3698 14.978 11.4656 14.978 11.9682 14.978L12.5603 14.9801L12.6263 15.0121C12.7051 15.0504 12.7413 15.0781 12.786 15.1377C12.8372 15.2059 12.8521 15.2591 12.8521 15.389C12.8521 15.5743 12.8393 15.734 12.8201 15.7979C12.7924 15.8853 12.7498 15.9683 12.6966 16.0428C12.5901 16.1791 12.3963 16.3154 12.2195 16.3772L12.1684 16.3964L12.1727 16.8436L12.2664 16.8521L12.3303 16.948L12.3921 17.0438H12.6774C12.835 17.0438 12.9735 17.0459 12.9862 17.0481C13.0075 17.0523 13.0118 17.0502 13.0331 17.014L13.0586 16.9756H13.3036C13.4867 16.9671 13.5421 16.9714 13.5421 16.9778Z" fill="black"/>
<path d="M12.4176 17.589C12.3771 17.6124 12.3495 17.6231 12.3431 17.6188C12.3367 17.6167 12.3069 17.5911 12.2749 17.5677L12.2174 17.5208L12.1578 17.5847C12.0279 17.7253 12.0236 17.7317 11.9853 17.7338C11.9257 17.7402 11.9129 17.7296 11.8405 17.6209C11.8021 17.5656 11.7723 17.5187 11.7723 17.5187C11.7723 17.5187 11.7446 17.5145 11.7127 17.5123L11.6531 17.5059L11.5977 17.6209L11.5487 17.606C11.5104 17.5933 11.472 17.5783 11.4358 17.5613L11.3719 17.5294V17.408L12.5049 17.4122L12.5071 17.4697C12.5092 17.5379 12.5113 17.5358 12.4176 17.589Z" fill="black"/>
<path d="M17.7418 14.9908C17.7397 14.9823 17.7397 14.9674 17.7376 14.9439C17.2264 14.8886 15.7676 14.8545 14.4131 15.9726C14.4131 15.9726 13.9765 13.9707 11.932 13.9707C9.88755 13.9707 9.12939 15.9726 9.12939 15.9726C7.98362 14.7395 6.45025 14.8289 5.89653 14.9099C5.89653 14.9226 5.8944 14.9375 5.8944 14.9503C5.87736 15.2591 5.88588 15.4061 5.937 15.5999C6.09672 16.2068 6.58868 16.8756 7.35962 17.5315C8.62252 18.6049 10.3348 19.3801 11.6318 19.4695C12.9841 19.5611 14.9796 18.771 16.3085 17.6167C16.5172 17.4314 16.7132 17.2355 16.8963 17.0268C17.0284 16.8734 17.2243 16.6093 17.2094 16.6093C17.2051 16.6093 17.2094 16.6051 17.2179 16.6008C17.2243 16.5966 17.2307 16.5902 17.2264 16.5859C17.2243 16.5838 17.2286 16.5774 17.2349 16.5753C17.2413 16.5731 17.2456 16.5689 17.2435 16.5646C17.2413 16.5604 17.2435 16.5561 17.252 16.554C17.2584 16.5518 17.2605 16.5455 17.2584 16.5412C17.2562 16.5369 17.2584 16.5327 17.2626 16.5327C17.2669 16.5327 17.2711 16.5263 17.2711 16.522C17.2711 16.5178 17.2754 16.5114 17.2797 16.5114C17.2839 16.5114 17.2882 16.5071 17.2882 16.5029C17.2946 16.4858 17.3052 16.4688 17.3159 16.4539C17.3478 16.4049 17.4756 16.177 17.4926 16.1387C17.614 15.864 17.6907 15.619 17.7269 15.3741C17.7397 15.257 17.7503 15.0419 17.7418 14.9908ZM12.4176 17.589C12.3771 17.6124 12.3495 17.6231 12.3431 17.6188C12.3367 17.6167 12.3069 17.5911 12.2749 17.5677L12.2174 17.5208L12.1578 17.5847C12.0279 17.7253 12.0236 17.7317 11.9853 17.7338C11.9257 17.7402 11.9129 17.7296 11.8405 17.6209C11.8021 17.5656 11.7723 17.5187 11.7723 17.5187C11.7723 17.5187 11.7446 17.5145 11.7127 17.5123L11.6531 17.5059L11.5977 17.6209L11.5487 17.606C11.5104 17.5933 11.472 17.5783 11.4358 17.5613L11.3719 17.5294V17.408L12.5049 17.4122L12.5071 17.4697C12.5092 17.5379 12.5113 17.5358 12.4176 17.589ZM13.4825 17.2057C13.4505 17.327 13.4249 17.425 13.4249 17.4293C13.4015 17.4314 13.3802 17.4335 13.3568 17.4314H13.2887L13.1971 17.655C13.146 17.7764 13.0991 17.8893 13.0927 17.9063L13.0799 17.9361L12.9905 17.7913V17.2014L12.9735 17.2057C12.9372 17.2142 12.6796 17.2482 12.5667 17.2589C12.1003 17.3057 11.6318 17.2951 11.1675 17.2291C11.0929 17.2184 11.0291 17.2099 11.0269 17.212C11.0248 17.2142 11.0269 17.3505 11.0312 17.5187L11.0376 17.8211L11.0014 17.8765C10.9822 17.9063 10.963 17.9319 10.963 17.934C10.9566 17.9404 10.9354 17.9063 10.8864 17.8084C10.8331 17.7061 10.7948 17.5975 10.7671 17.4846L10.7522 17.4229L10.6862 17.4271L10.6202 17.4335L10.6031 17.3547C10.5946 17.3121 10.584 17.2461 10.5797 17.2099L10.5733 17.1418L10.5179 17.0928C10.486 17.0651 10.454 17.0374 10.4477 17.0331C10.437 17.0246 10.4327 17.0097 10.4327 16.9969V16.9714L10.9652 16.9756L10.9822 17.031L11.0738 17.0353C11.1249 17.0374 11.2867 17.0417 11.4316 17.0459L11.6978 17.0523L11.7659 16.9458L11.8362 16.8393H11.9257L11.9214 16.3964L11.8043 16.3453C11.4273 16.1791 11.2058 15.9896 11.1228 15.7596C11.1057 15.7127 11.1057 15.6957 11.1015 15.4827C11.0993 15.2719 11.0993 15.2527 11.1142 15.2059C11.1441 15.0994 11.2271 15.0163 11.3336 14.9887C11.3698 14.978 11.4656 14.978 11.9682 14.978L12.5603 14.9801L12.6263 15.0121C12.7051 15.0504 12.7413 15.0781 12.786 15.1377C12.8372 15.2059 12.8521 15.2591 12.8521 15.389C12.8521 15.5743 12.8393 15.734 12.8201 15.7979C12.7924 15.8853 12.7498 15.9683 12.6966 16.0428C12.5901 16.1791 12.3963 16.3154 12.2195 16.3772L12.1684 16.3964L12.1727 16.8436L12.2664 16.8521L12.3303 16.948L12.3921 17.0438H12.6774C12.835 17.0438 12.9735 17.0459 12.9862 17.0481C13.0075 17.0523 13.0118 17.0502 13.0331 17.014L13.0586 16.9756H13.3036C13.4931 16.9756 13.5485 16.9778 13.5485 16.9842C13.5421 16.982 13.5144 17.0864 13.4825 17.2057Z" fill="white"/>
<path d="M17.7248 14.7736C17.7205 14.6777 17.712 14.5436 17.7056 14.4775C17.614 13.5107 17.367 12.7206 16.8985 11.8836C16.8793 11.8516 16.8622 11.8197 16.8516 11.7941C16.8473 11.7878 16.8452 11.7814 16.8431 11.7771C16.9091 11.579 17.1796 10.7506 17.3947 9.80289C17.6864 8.51656 17.8717 7.01301 17.3052 6.56152C17.3052 6.56152 16.3256 6.48911 15.0137 7.77544C14.658 8.13109 14.3322 8.51657 14.0426 8.92759L13.951 8.89778C13.4228 8.72527 12.8755 8.61879 12.3239 8.58258C12.1578 8.56981 11.5381 8.56981 11.3357 8.58258C10.7245 8.62305 10.256 8.71462 9.72357 8.89991C9.70227 8.90843 9.6831 8.91481 9.66393 8.9212C9.36365 8.51231 9.02929 8.12896 8.66085 7.77757C7.29573 6.48485 6.27987 6.55939 6.27987 6.55939C5.67931 7.02579 5.88375 8.59749 6.19469 9.92641C6.39914 10.806 6.65044 11.579 6.74414 11.858C6.73776 11.8729 6.72924 11.89 6.72072 11.9049C6.2245 12.9101 5.95616 13.8791 5.89227 14.9099C6.44812 14.8289 7.97936 14.7374 9.12725 15.9726C9.12725 15.9726 9.88542 13.9707 11.9299 13.9707C13.9744 13.9707 14.411 15.9726 14.411 15.9726C15.7655 14.8545 17.2243 14.8907 17.7354 14.9439C17.7333 14.9013 17.729 14.8375 17.7248 14.7736ZM7.14665 11.0551C7.14665 11.0551 6.35015 9.06389 6.5546 7.92664C6.58868 7.73497 6.65257 7.56673 6.75266 7.43895C6.75266 7.43895 7.65565 7.52839 9.11235 9.14695C9.11235 9.14695 8.83549 9.28112 8.46493 9.5665C8.46493 9.5665 8.46279 9.56863 8.46066 9.56863C8.05816 9.87743 7.54277 10.3673 7.14665 11.0551ZM10.5265 14.0133C10.5137 14.0388 10.4498 14.0665 10.3774 14.0772C10.305 14.0878 10.0835 14.0814 9.95783 14.0665C9.50634 14.0069 9.02716 13.8684 8.67789 13.6981C8.48196 13.6022 8.3414 13.5064 8.23705 13.402L8.17742 13.3403L8.17103 13.2594C8.16038 13.1188 8.16251 12.8973 8.17955 12.8185C8.1902 12.7525 8.21362 12.6886 8.24557 12.6311C8.2626 12.6098 8.2626 12.6098 8.33927 12.6098C8.43298 12.6098 8.51178 12.6247 8.63956 12.6652C8.90151 12.7461 9.29124 12.942 9.76616 13.2274C10.158 13.4617 10.305 13.5767 10.4178 13.7343C10.4945 13.8322 10.5456 13.9707 10.5265 14.0133ZM15.544 13.3083C15.5376 13.3424 15.4375 13.4446 15.3374 13.5192C15.0435 13.7343 14.5175 13.9345 13.9829 14.0303C13.6784 14.0857 13.3738 14.0942 13.2823 14.0495C13.2226 14.0197 13.2141 13.9962 13.2354 13.9196C13.2801 13.7598 13.425 13.5852 13.6507 13.4212C13.7657 13.3382 14.2321 13.0549 14.4493 12.9356C14.8071 12.7397 15.0967 12.6226 15.2927 12.5949C15.3544 12.5864 15.429 12.5843 15.4524 12.5949C15.4907 12.6098 15.5333 12.7227 15.5504 12.859C15.5589 12.9314 15.5546 13.2508 15.544 13.3083ZM15.1904 9.5665L15.1862 9.56437C14.8284 9.27899 14.5601 9.14482 14.5601 9.14482C15.9678 7.52626 16.8388 7.43682 16.8388 7.43682C16.9347 7.56673 16.9964 7.73284 17.0305 7.92451C17.2286 9.06176 16.4597 11.0551 16.4597 11.0551C16.1382 10.4823 15.7058 9.97539 15.1904 9.5665Z" fill="#FFA409"/>
<path d="M17.0326 7.92451C16.8665 7.90322 16.0807 7.89896 15.1904 9.5665L15.1862 9.56437C14.8284 9.27899 14.5601 9.14482 14.5601 9.14482C15.9678 7.52626 16.8388 7.43682 16.8388 7.43682C16.9368 7.56673 16.9985 7.73284 17.0326 7.92451Z" fill="#FF9300"/>
<path d="M16.4619 11.0551C16.1382 10.4801 15.708 9.97539 15.1904 9.5665C16.0807 7.89896 16.8644 7.90322 17.0326 7.92451C17.2307 9.06389 16.4619 11.0551 16.4619 11.0551Z" fill="#FF8300"/>
<path d="M17.0646 7.9309C17.0539 7.92877 17.0433 7.92664 17.0326 7.92451L17.0646 7.9309Z" fill="#FF8300"/>
<path d="M9.11235 9.14482C9.11235 9.14482 8.83549 9.27899 8.46493 9.56437C8.46493 9.56437 8.4628 9.5665 8.46067 9.5665C7.53851 7.89683 6.72711 7.90322 6.55247 7.92451C6.58655 7.73284 6.65044 7.5646 6.75053 7.43682C6.75266 7.43682 7.65565 7.52626 9.11235 9.14482Z" fill="#FF9300"/>
<path d="M8.4628 9.5665C8.05816 9.87743 7.54277 10.3651 7.14665 11.0551C7.14665 11.0551 6.35015 9.06389 6.5546 7.92451C6.72711 7.90322 7.54064 7.89896 8.4628 9.5665Z" fill="#FF8300"/>
<path d="M6.5546 7.92451C6.54395 7.92664 6.53118 7.92877 6.52053 7.9309L6.5546 7.92451Z" fill="#FF8300"/>
<path d="M14.3066 12.1604C14.3066 12.1604 13.6251 12.203 13.7103 11.6706C13.7955 11.1382 14.3279 11.0743 14.477 11.0956C14.6261 11.1169 15.2224 11.3299 15.1159 11.7771C15.0094 12.2243 14.8604 12.1391 14.7752 12.1604C14.69 12.1817 14.3066 12.1604 14.3066 12.1604Z" fill="white"/>
<path d="M9.28059 12.1604C9.28059 12.1604 8.59909 12.203 8.68428 11.6706C8.76947 11.1382 9.30189 11.0743 9.45097 11.0956C9.60004 11.1169 10.1964 11.3299 10.0899 11.7771C9.98339 12.2243 9.83431 12.1391 9.74912 12.1604C9.66393 12.1817 9.28059 12.1604 9.28059 12.1604Z" fill="white"/>
</g>
<defs>
<clipPath id="clip0_46573_41597">
<rect width="18.6742" height="18.6742" fill="white" transform="translate(2.54297 3.16406)"/>
</clipPath>
</defs>
</svg>
