<svg width="24" height="24" viewBox="0 0 24 24" fill="none" xmlns="http://www.w3.org/2000/svg">
<path d="M0.65625 5.21935C0.65625 2.64097 2.74644 0.550781 5.32481 0.550781H19.3305C21.9089 0.550781 23.9991 2.64097 23.9991 5.21934V19.225C23.9991 21.8034 21.9089 23.8936 19.3305 23.8936H5.3248C2.74643 23.8936 0.65625 21.8034 0.65625 19.225V5.21935Z" fill="#E5E5E5"/>
<g clip-path="url(#clip0_46573_41588)">
<path d="M12.3274 21.561C17.4841 21.561 21.6645 17.3806 21.6645 12.2238C21.6645 7.06709 17.4841 2.88672 12.3274 2.88672C7.17061 2.88672 2.99023 7.06709 2.99023 12.2238C2.99023 17.3806 7.17061 21.561 12.3274 21.561Z" fill="#F3BA2F"/>
<path d="M10.0613 11.291L12.3279 9.02446L14.5956 11.2922L15.9145 9.97334L12.3279 6.38672L8.74243 9.97217L10.0613 11.291ZM6.49219 12.2224L7.81106 10.9036L9.12992 12.2224L7.81106 13.5413L6.49219 12.2224ZM10.0613 13.1538L12.3279 15.4204L14.5956 13.1526L15.9145 14.4709L12.3279 18.0581L8.74243 14.4727L8.74068 14.4709L10.0613 13.1538ZM15.5259 12.2224L16.8447 10.9036L18.1636 12.2224L16.8447 13.5413L15.5259 12.2224ZM13.6654 12.2213H13.6666V12.2224L12.3279 13.5611L10.9909 12.2248L10.9886 12.2224L10.9909 12.2207L11.2249 11.9861L11.3387 11.8723L12.3279 10.8837L13.666 12.2218L13.6654 12.2213Z" fill="white"/>
</g>
<defs>
<clipPath id="clip0_46573_41588">
<rect width="18.6742" height="18.6742" fill="white" transform="translate(2.99023 2.88672)"/>
</clipPath>
</defs>
</svg>
