<svg width="24" height="24" viewBox="0 0 24 24" fill="none" xmlns="http://www.w3.org/2000/svg">
<path d="M0.208984 4.94591C0.208984 2.36753 2.29917 0.277344 4.87755 0.277344H18.8832C21.4616 0.277344 23.5518 2.36753 23.5518 4.9459V18.9516C23.5518 21.53 21.4616 23.6201 18.8832 23.6201H4.87754C2.29916 23.6201 0.208984 21.53 0.208984 18.9516V4.94591Z" fill="#E5E5E5"/>
<g clip-path="url(#clip0_46573_41595)">
<g clip-path="url(#clip1_46573_41595)">
<path d="M11.8801 21.2875C17.0368 21.2875 21.2172 17.1072 21.2172 11.9504C21.2172 6.79365 17.0368 2.61328 11.8801 2.61328C6.72334 2.61328 2.54297 6.79365 2.54297 11.9504C2.54297 17.1072 6.72334 21.2875 11.8801 21.2875Z" fill="#988430"/>
<path d="M11.8798 20.9862C16.8714 20.9862 20.9179 16.9398 20.9179 11.9482C20.9179 6.95662 16.8714 2.91016 11.8798 2.91016C6.88826 2.91016 2.8418 6.95662 2.8418 11.9482C2.8418 16.9398 6.88826 20.9862 11.8798 20.9862Z" fill="#7A6A2A"/>
<path d="M11.8808 20.7968C16.7672 20.7968 20.7284 16.8356 20.7284 11.9492C20.7284 7.06277 16.7672 3.10156 11.8808 3.10156C6.99441 3.10156 3.0332 7.06277 3.0332 11.9492C3.0332 16.8356 6.99441 20.7968 11.8808 20.7968Z" fill="#BA9F33"/>
<path fill-rule="evenodd" clip-rule="evenodd" d="M6.62539 10.9557C6.57251 10.9074 6.51663 10.859 6.46524 10.8107C6.41385 10.7623 6.36107 10.7139 6.30818 10.6656L6.15102 10.5162C6.12532 10.4906 6.09813 10.4679 6.07244 10.4421C6.04674 10.4195 6.01656 10.3938 5.99087 10.3711C5.78231 10.1732 5.57256 9.97534 5.3669 9.77734C5.57993 9.97225 5.78849 10.1658 6.00152 10.3636L6.07552 10.4377C6.10122 10.4633 6.12841 10.486 6.1541 10.5117L6.31117 10.6567C6.36405 10.705 6.41544 10.7534 6.46833 10.8061C6.52122 10.8588 6.57261 10.9073 6.62549 10.9555L6.62539 10.9557ZM3.85752 10.9258C3.85752 10.9258 4.61594 11.0043 4.98614 11.0572C5.32905 11.1056 6.4018 11.2702 6.4018 11.2702L3.85752 10.9258ZM3.85752 10.9258C4.07056 10.9439 4.28359 10.9665 4.49663 10.9892C4.60539 10.9998 4.70966 11.0118 4.81394 11.0224L4.97399 11.0406C5.02688 11.0481 5.07827 11.0557 5.13115 11.0632L5.76578 11.1644L6.08299 11.2173C6.18727 11.2354 6.29155 11.2551 6.40031 11.2733C6.29603 11.2627 6.18727 11.2476 6.08299 11.2324L5.76578 11.1871L5.13115 11.0935C5.07827 11.0859 5.02688 11.0753 4.97399 11.0678L4.81384 11.0494C4.70956 11.0388 4.60081 11.0237 4.49653 11.0115C4.28349 10.9859 4.07046 10.9587 3.85742 10.9255L3.85752 10.9258ZM6.32631 11.4678C6.32631 11.4678 5.51649 11.6734 5.243 11.7519C4.97409 11.8259 4.1597 12.0737 4.1597 12.0737L6.32621 11.4679L6.32631 11.4678Z" fill="#CFB66C"/>
<path fill-rule="evenodd" clip-rule="evenodd" d="M6.32645 11.4648C6.14668 11.5177 5.96791 11.5691 5.78555 11.6175L5.24464 11.7625C5.06487 11.8154 4.88609 11.8668 4.70682 11.9197L4.43791 11.9937C4.34877 12.0194 4.25814 12.042 4.16602 12.0678C4.25505 12.0379 4.34579 12.0073 4.43492 11.9816L4.70383 11.8956C4.8836 11.8396 5.06238 11.7867 5.24165 11.7309C5.42441 11.6855 5.60428 11.6371 5.78704 11.5933C5.96074 11.5495 6.14359 11.5058 6.32645 11.4649V11.4648ZM4.27328 12.5694C4.36232 12.5361 5.38975 12.0572 5.62848 11.9454C5.748 11.8894 6.09539 11.7661 6.09539 11.7661L4.27328 12.5694Z" fill="#CFB66C"/>
<path fill-rule="evenodd" clip-rule="evenodd" d="M4.27354 12.572C4.35202 12.5421 4.42612 12.5056 4.50161 12.4708L4.7252 12.3666L5.17398 12.1505C5.32338 12.0795 5.46859 12.0011 5.62266 11.9344C5.70125 11.9012 5.77983 11.8741 5.85831 11.8484L5.97782 11.8106C6.01856 11.8001 6.0564 11.7879 6.09734 11.7773C5.94794 11.8484 5.79068 11.9088 5.64109 11.9782C5.4917 12.0523 5.33892 12.1128 5.18474 12.1792L4.72849 12.3801C4.57531 12.4421 4.42592 12.5086 4.27344 12.572H4.27354ZM4.37313 12.9903C4.37313 12.9903 5.30376 12.4449 5.62406 12.2696C5.79178 12.176 6.33418 11.907 6.33418 11.907L4.37313 12.9903Z" fill="#CFB66C"/>
<path fill-rule="evenodd" clip-rule="evenodd" d="M4.37305 12.9886C4.53011 12.8919 4.69026 12.7937 4.85041 12.694L5.08944 12.5489C5.17101 12.5006 5.24959 12.4553 5.33275 12.407C5.41432 12.3586 5.4929 12.3103 5.57597 12.265C5.61551 12.2406 5.65694 12.2193 5.69986 12.2015L5.82675 12.1381C5.99447 12.0565 6.16219 11.9734 6.33897 11.9023C6.17882 12.0036 6.01409 12.0898 5.84946 12.1788C5.76789 12.2241 5.68473 12.265 5.60316 12.3103C5.52159 12.3556 5.44301 12.404 5.35984 12.4478C5.27827 12.4961 5.19969 12.5415 5.11663 12.5853L4.87033 12.7197L4.37325 12.9886H4.37305ZM6.32652 12.0246C6.32652 12.0246 5.74787 12.4688 5.56053 12.6109C5.37319 12.7529 4.82173 13.1518 4.82173 13.1518L6.32652 12.0246Z" fill="#CFB66C"/>
<path fill-rule="evenodd" clip-rule="evenodd" d="M9.64571 15.6047L9.34961 15.0442L9.52181 14.3431L10.7501 13.8687L10.2273 12.7961L10.4857 11.7128L10.9707 10.7427L12.4696 10.5071L13.5709 9.45703L15.949 9.6368L16.4158 12.1796L15.5169 15.3811L15.0048 17.0386L12.9288 17.1172L11.9649 16.4494L10.8363 15.9779L9.64571 15.6047Z" fill="#E2CC85"/>
<path fill-rule="evenodd" clip-rule="evenodd" d="M13.2877 15.5866C13.2877 15.5866 13.0006 15.7181 12.5109 15.6878C12.3691 15.4975 11.3766 15.4084 11.3766 15.4084C11.3766 15.4084 11.2527 15.3706 11.0336 15.4613C10.8131 15.5509 10.6045 15.5398 10.4096 15.5881C10.2147 15.6364 10.0212 15.3827 9.87178 15.3298C9.72238 15.2739 9.52429 15.1395 9.52429 15.1395L9.10599 15.0986L8.26599 14.7436L6.93151 13.4141L6.56888 13.9818L6.45703 14.6843L6.86049 15.5168L7.94679 16.5064L10.065 17.0442L11.3205 16.6743L12.8933 16.0095L13.2877 15.5865V15.5866Z" fill="#F1D789"/>
<path fill-rule="evenodd" clip-rule="evenodd" d="M5.76259 10.8912L6.0315 10.0769L6.3519 9.55099L7.38372 9.46484L7.07397 10.3684L6.21137 11.9035L6.56942 13.2738L5.93489 13.591L5.73989 13.2919L5.58282 12.606L5.57227 11.8354L5.76259 10.8912Z" fill="#F4ECB4"/>
<path fill-rule="evenodd" clip-rule="evenodd" d="M6.92098 15.5344L6.72308 15.2579C6.72308 15.2579 6.6702 15.1265 6.70048 15.0116C6.73035 14.8953 6.72607 14.8877 6.71103 14.8439C6.69599 14.8001 6.56901 14.649 6.57658 14.519C6.58405 14.3876 6.56602 14.3437 6.66263 14.2396C6.76382 14.1384 6.73364 13.9631 6.73364 13.9631L6.86511 14.0447L6.89499 13.9993C6.89499 13.9993 6.94329 14.0371 6.94329 14.096C6.95385 14.0145 6.91003 13.6367 7.00972 13.5507C7.10942 13.4646 7.2862 13.954 7.2862 13.954L7.17744 13.2439L6.89788 12.5158L6.40079 11.851L6.37091 11.1181V11.0547C6.37091 11.0547 6.14274 11.4053 6.0793 11.6821C6.03398 11.8725 6.14274 12.1036 6.12013 12.3771C6.1019 12.6491 6.0793 12.6279 6.14573 12.7357C6.21216 12.8434 6.3739 13.065 6.31046 13.2252C6.25459 13.3627 6.06416 13.266 6.06416 13.266C6.06416 13.266 6.02641 13.3778 5.97502 13.4186C5.95689 13.3522 5.93727 13.3098 5.90102 13.2692C5.89793 13.2949 5.89046 13.3297 5.89046 13.3297C5.89046 13.3297 5.8572 13.2254 5.82393 13.0939C5.77872 12.9187 5.73031 12.6876 5.68649 12.5637C5.66836 12.6347 5.62305 12.8507 5.62305 12.8507L5.64874 13.1832L5.77264 13.6394L5.89216 13.9382L6.00848 14.3038L6.10957 14.5494L6.19114 14.7367L6.26215 15.1583L6.60506 15.5209L6.78792 15.6025L6.92078 15.5345L6.92098 15.5344Z" fill="#F3E19D"/>
<path fill-rule="evenodd" clip-rule="evenodd" d="M5.94134 10.2245C5.94134 10.2245 5.69504 10.6428 5.62413 11.0645C5.55321 11.4862 5.48967 11.9317 5.53449 12.5058C5.5798 13.0846 5.66596 13.4395 5.73547 13.6934C5.85499 14.115 6.16453 14.7012 6.16453 14.7012L6.17509 14.6785C6.12306 14.5799 6.08153 14.4761 6.05119 14.3688C6.01036 14.2086 5.99522 14.0183 5.95747 13.9321C5.92421 13.8461 5.86833 13.772 5.84114 13.6662C5.81545 13.565 5.81127 13.4049 5.73239 13.2856C5.69912 13.2372 5.65829 13.1103 5.64624 12.9834C5.6311 12.793 5.6538 12.5799 5.63568 12.4047C5.60241 12.1131 5.5798 11.9152 5.60998 11.7625C5.64016 11.6099 5.79742 11.1764 5.89413 10.8319C5.95757 10.6113 5.91973 10.4255 6.03605 10.2335C6.15238 10.0432 6.22349 9.87549 6.24909 9.75916C6.27897 9.65339 5.94094 10.2245 5.94094 10.2245H5.94134Z" fill="#F2E8B0"/>
<path fill-rule="evenodd" clip-rule="evenodd" d="M7.11117 10.0586C7.11117 10.0586 6.98428 10.0964 6.92383 10.1629C6.86337 10.2263 6.83768 10.2792 6.75611 10.3865C6.67454 10.4937 6.66996 10.5814 6.60343 10.7158C6.537 10.8473 6.39039 11.0452 6.37226 11.1162C6.35414 11.1872 6.32396 11.5196 6.28621 11.6767C6.25295 11.8339 6.32396 12.0273 6.32396 12.0273L6.41001 12.0091C6.41001 12.0091 6.41001 12.1209 6.49616 12.1965C6.58221 12.2705 6.59735 11.9456 6.59735 11.9456L6.91915 10.8593L7.40408 10.53L7.45696 10.2641L7.11097 10.0586H7.11117Z" fill="#F5EEC0"/>
<path fill-rule="evenodd" clip-rule="evenodd" d="M7.34612 10.552C7.34612 10.552 7.11794 10.5671 7.0062 10.6488C6.96088 10.6819 6.94276 10.7091 6.89445 10.7499C6.80531 10.8239 6.71458 10.892 6.67086 10.989C6.62245 11.0856 6.56957 11.2322 6.53332 11.5087C6.51818 11.625 6.51818 11.7323 6.50762 11.826C6.49248 11.9529 6.46987 12.0541 6.48192 12.1248C6.49706 12.2698 6.64666 12.3454 6.6612 12.51L6.97094 12.3529L7.26256 11.2031L7.88204 10.8147L7.53147 10.4219L7.34572 10.5513L7.34612 10.552Z" fill="#E6DB9D"/>
<path fill-rule="evenodd" clip-rule="evenodd" d="M5.71299 18.2926C5.71428 18.2812 5.71558 18.2699 5.71687 18.2582C5.76209 17.8698 5.76976 17.5754 5.80293 17.391C5.85123 17.1297 5.88449 17.0325 5.87693 16.9347C5.86637 16.7776 5.85432 16.6628 5.86946 16.5419C5.89206 16.3817 6.04923 16.1914 6.04474 16.0599C6.04166 15.9557 5.98877 15.8877 5.94346 15.8243C5.89814 15.7609 5.86189 15.708 5.86189 15.708C5.86189 15.708 6.17163 15.4949 6.16864 14.6367C6.17497 14.6385 6.18105 14.641 6.18677 14.6443L6.33935 15.0778L6.44363 15.2047L6.844 15.9511L7.35921 16.4513L8.12062 16.9634L8.59809 17.483L8.64639 18.8685L8.02242 19.6783L7.92024 19.8633C7.1084 19.4558 6.36395 18.926 5.71289 18.2925L5.71299 18.2926Z" fill="#E5CB7A"/>
<path fill-rule="evenodd" clip-rule="evenodd" d="M7.61719 19.6172C7.61719 19.6172 7.62774 19.445 7.76977 19.3332C7.79248 19.3709 7.80752 19.4073 7.80303 19.4344C7.82873 19.3892 8.0085 19.099 8.41495 19.0234C8.8214 18.9494 8.9196 18.6533 8.9196 18.6533L9.7822 17.8692L10.7688 16.9612L11.9684 16.5396L12.5291 16.4021C12.5291 16.4021 12.5396 16.4429 12.5185 16.5335C12.6227 16.5261 12.8538 16.4732 13.0941 16.3885C13.1908 16.3508 13.2815 16.3356 13.3298 16.3855C13.4008 16.452 13.4114 16.6091 13.4159 16.7028C13.5322 16.6771 13.6666 16.5653 13.7744 16.5759C13.9467 16.594 14.0993 16.7965 14.2746 16.7965C14.5057 16.7965 14.6099 16.6544 14.7717 16.5426C14.8684 16.4762 15.0073 16.3932 15.0859 16.3371C15.2732 16.1996 17.2555 15.5938 17.2555 15.5938L17.9505 15.6391L18.0623 16.3854L18.0026 18.3365C17.9952 18.3436 17.9878 18.351 17.9803 18.358L14.8204 20.0084L10.4401 20.6799C9.45895 20.5196 8.51209 20.1939 7.6399 19.7167L7.61749 19.6171L7.61719 19.6172Z" fill="#D8C173"/>
<path fill-rule="evenodd" clip-rule="evenodd" d="M5.97852 18.5397C6.04076 18.4095 6.09674 18.3007 6.1066 18.2617C6.11436 18.3402 6.12861 18.5124 6.15729 18.6955C6.09707 18.6443 6.03748 18.5923 5.97852 18.5396V18.5397Z" fill="#F1D789"/>
<path fill-rule="evenodd" clip-rule="evenodd" d="M9.17648 20.3773L9.74298 20.2197L9.79128 20.2348C9.79128 20.2348 9.81698 20.25 9.81698 20.3013C9.88799 20.2605 9.94845 20.268 9.99227 20.2409C10.0149 20.2892 10.0375 20.4494 10.1373 20.469C10.2415 20.4917 10.3533 20.4237 10.4666 20.3376C10.5784 20.2485 10.7057 20.1366 10.802 20.0913C10.8373 20.1563 10.8686 20.2234 10.8957 20.2922C11.0226 20.191 11.2432 19.7801 11.5574 19.7876C11.6482 19.5729 11.8 19.3896 11.9938 19.2603C12.2855 19.0624 12.4682 19.0473 12.6964 19.0654C12.787 18.9477 12.8987 18.8478 13.0258 18.7708C13.0635 18.7859 13.1678 18.8494 13.2978 18.7889C13.4292 18.7286 13.5772 18.4943 13.7721 18.4641C13.8772 18.4497 13.984 18.4721 14.0743 18.5276C14.0743 18.5276 14.642 17.964 15.0337 17.7766C15.0186 17.7313 14.9884 17.5606 15.4476 17.1828C15.4733 17.2055 15.4552 17.269 15.4733 17.2725C15.4808 17.2725 15.5928 17.2242 15.7347 17.1153C15.91 16.9839 16.1199 16.8464 16.2468 16.8086C16.4858 16.7376 16.7394 16.8826 16.7394 16.8826C16.761 16.8675 16.785 16.8563 16.8104 16.8494C16.8708 16.8388 16.9146 16.8312 16.9479 16.8195C16.9449 16.8981 16.9887 17.0325 16.9479 17.1489C16.9952 17.1755 17.0453 17.1967 17.0972 17.2123C17.0717 17.2682 17.0157 17.4102 16.9221 17.4782C17.0005 17.516 17.0111 17.5598 17.1229 17.5977C17.0776 17.6612 17.0034 17.77 16.9704 17.8368C16.9371 17.9078 16.8177 18.2024 16.7648 18.3141C16.7089 18.426 16.6334 18.6314 16.5971 18.6727C16.5607 18.7139 16.4294 18.8887 16.3282 18.9748C16.4178 18.9415 16.7845 18.8297 16.9401 18.7874C16.8938 18.8553 16.659 19.2036 16.4333 19.5386C15.3528 20.1862 14.1466 20.5962 12.8951 20.741C11.6437 20.8859 10.3757 20.7624 9.17578 20.3788L9.17648 20.3773Z" fill="#E0CD81"/>
<path fill-rule="evenodd" clip-rule="evenodd" d="M7.38254 10.5087C7.38254 10.5087 7.25117 10.5087 7.22548 10.5268C7.19978 10.545 7.35694 10.5828 7.40525 10.6009C7.45355 10.6191 7.55783 10.7021 7.58502 10.7687C7.61071 10.8321 8.52929 11.2022 8.52929 11.2022L9.17895 11.1689L9.40294 10.8595L8.97687 10.4863L9.27566 9.60547L8.87986 9.66891L7.92803 10.2366L7.45056 10.4195L7.38254 10.5087Z" fill="#DFC57C"/>
<path fill-rule="evenodd" clip-rule="evenodd" d="M8.81059 10.7986C8.81998 10.8138 8.8332 10.8263 8.84894 10.8348C8.86467 10.8432 8.88236 10.8474 8.90022 10.8469C9.03468 10.8469 9.15847 10.8802 9.20987 10.9481C9.29602 11.057 9.53475 11.4045 9.53475 11.4045L10.1058 11.6099L10.1427 10.9374L9.51871 10.5039L8.80859 10.7652V10.7985H8.81019L8.81059 10.7986Z" fill="#E5CC7C"/>
<path fill-rule="evenodd" clip-rule="evenodd" d="M8.69732 11.0525C8.69732 11.0525 8.8015 11.0601 8.93296 11.0117C9.06443 10.9633 9.28046 10.8591 9.37418 10.8999C9.50554 10.9558 9.47835 11.1311 9.62048 11.2883C9.70653 11.385 9.86369 11.3821 9.95283 11.4863C10.042 11.5906 10.3486 11.5422 10.3486 11.5422L10.4649 12.1697L9.99814 12.768L9.84546 13.5113H9.21422L8.63756 13.2825L8.35352 12.5953L8.49554 11.9004L8.69732 11.0525Z" fill="#D2C281"/>
<path fill-rule="evenodd" clip-rule="evenodd" d="M9.91888 11.0794C9.93453 11.0842 9.9508 11.0868 9.96718 11.087C9.94905 11.1021 9.91121 11.1353 9.92635 11.2214C9.94148 11.3076 9.98979 11.4163 9.94905 11.4828C9.98157 11.5183 10.0058 11.5606 10.0201 11.6067C10.0458 11.6808 10.0533 11.7487 10.221 11.7593C10.1968 11.7742 10.1745 11.792 10.1545 11.8122C10.1545 11.8122 10.2708 11.9134 10.3298 12.007C10.3902 12.0044 10.5503 11.9546 10.5503 11.9546L10.5836 11.9774L10.6546 11.9475C10.6546 11.9475 10.5882 11.9218 10.6365 11.7601C10.6818 11.6181 10.7226 11.6257 10.7261 11.6151C10.7296 11.6046 10.7594 11.455 10.7594 11.3945C10.782 11.316 10.8001 11.0773 10.8001 11.0773L10.7518 10.55L10.4799 10.3853L10.2588 10.1719L10.0502 10.5647L9.9129 10.7016L9.90234 11.0415L9.91888 11.0794Z" fill="#E2C270"/>
<path fill-rule="evenodd" clip-rule="evenodd" d="M10.5723 10.6394C10.5723 10.6394 10.6206 10.7769 10.6388 10.8827C10.6452 10.8621 10.6488 10.8407 10.6494 10.8192C10.6494 10.8192 10.6871 11.0278 10.6946 11.1139C10.7097 11.1108 10.7244 11.1064 10.7278 11.1214C10.7312 11.1364 10.7657 11.3042 10.7577 11.3979C10.8206 11.2941 10.9077 11.207 11.0115 11.1441C11.0719 11.1063 11.143 11.0655 11.217 11.0624C11.3334 11.0594 11.4179 11.1365 11.557 11.1365C11.8923 11.1365 12.1961 10.8902 12.4197 10.8147C12.5843 10.7588 12.7263 10.718 12.826 10.6273C12.8744 10.5866 12.9606 10.4959 13.0391 10.3614C13.1433 10.1821 13.2521 10.026 13.361 10.0064C13.3117 10.0155 13.2616 10.019 13.2116 10.017C13.2116 10.017 13.2448 9.98371 13.3012 9.93839C13.3576 9.89307 13.4251 9.8372 13.5217 9.8372C13.694 9.8372 13.7801 9.8628 13.8768 9.8628C13.9735 9.85981 14.0293 9.8372 14.0293 9.8372C14.0293 9.8372 14.1306 9.90821 14.3587 9.90821C14.5869 9.9112 14.7395 9.93082 14.8589 9.94148C14.9783 9.95213 15.3786 9.90821 15.4934 9.9116C15.5683 9.91448 15.6418 9.93247 15.7095 9.96448L15.3393 8.88885L14.0095 7.72656L13.2178 8.28709L12 9.50485L10.8216 9.94148L10.5753 10.218V10.6394H10.5723Z" fill="#CCB360"/>
<path fill-rule="evenodd" clip-rule="evenodd" d="M13.2165 10.0229C13.2165 10.0229 13.2498 9.98969 13.3056 9.94438C13.3613 9.89906 13.4296 9.84309 13.5262 9.84309C13.6984 9.84309 13.7845 9.86878 13.8812 9.86878C13.9779 9.8658 14.0338 9.84309 14.0338 9.84309C14.0338 9.84309 14.1352 9.914 14.3632 9.914C14.5914 9.91699 14.7439 9.93661 14.8634 9.94717C14.9828 9.95772 15.383 9.914 15.4979 9.91729C15.5727 9.92011 15.6462 9.9381 15.7139 9.97017L15.5462 9.48514L15.3514 9.11504L14.7953 8.50611C14.7953 8.50611 14.128 8.11331 14.123 8.11032C14.12 8.10733 13.8918 8.04688 13.8918 8.04688L13.2874 8.41249L12.7391 9.83124L12.7285 10.13L13.0835 10.2977C13.1726 10.1484 13.2709 10.0288 13.363 10.0137C13.2799 10.0228 13.2164 10.0228 13.2164 10.0228L13.2165 10.0229Z" fill="#D5B457"/>
<path fill-rule="evenodd" clip-rule="evenodd" d="M13.2091 10.1241C13.1562 10.1271 13.1125 10.1165 13.1004 10.0788C13.0551 9.95191 13.0188 9.93378 12.9809 9.93378C12.9429 9.93378 12.8917 10.0154 12.8613 10.0228C12.831 10.0303 12.7949 9.9292 12.7949 9.9292L12.7616 9.91406C12.7616 9.91406 12.5667 10.0409 12.4293 10.1905C12.2919 10.3401 12.0667 10.594 11.9655 10.6392C11.8643 10.6844 11.5167 10.6997 11.3978 10.7254C11.2789 10.7511 11.147 10.8372 11.1289 10.8568C11.1107 10.8765 11.1819 10.8976 11.1924 10.9172C11.203 10.9353 11.076 10.9278 11.0654 10.9471C11.058 10.9622 11.0953 11.0483 11.1138 11.0921C11.1462 11.076 11.1818 11.0672 11.218 11.0664C11.3343 11.0634 11.419 11.1405 11.5579 11.1405C11.8934 11.1405 12.197 10.8942 12.4206 10.8186C12.5854 10.7627 12.7274 10.7219 12.8271 10.6313C12.8754 10.5905 12.9615 10.4998 13.0401 10.3653C13.0975 10.2732 13.1535 10.1871 13.2094 10.1236L13.2091 10.1241Z" fill="#D2B257"/>
<path fill-rule="evenodd" clip-rule="evenodd" d="M8.39984 17.603C8.39984 17.603 8.36996 17.4911 8.09308 17.2026C8.0145 17.121 7.9662 17.0532 7.91331 17.0047C7.78184 16.8807 7.70476 16.8476 7.61114 16.7765C7.40567 16.624 7.18208 16.624 7.00988 16.4366C6.83767 16.2493 6.63699 15.8913 6.49755 15.5255C6.36011 15.1599 6.32227 15.0436 6.32227 15.033C6.32227 15.0225 6.36011 14.9514 6.40842 14.962C6.45672 14.9726 6.45672 15.0662 6.46887 15.0889C6.49294 15.126 6.52023 15.1608 6.55044 15.1931C6.62145 15.2747 6.72264 15.3723 6.77403 15.5179C6.76348 15.3941 6.72115 15.2566 6.72115 15.2566C6.72115 15.2566 6.98707 15.4243 7.21365 15.5995C7.44182 15.7748 7.53544 15.8353 7.60207 15.947C7.6687 16.0588 7.82567 16.3535 7.90086 16.4396C7.97606 16.5258 9.00638 16.8505 9.00638 16.8505L9.49649 17.216L9.7398 17.7493L9.54937 18.0481L9.18376 18.1267L8.58997 17.8607L8.39984 17.6029V17.603Z" fill="#D2B159"/>
<path fill-rule="evenodd" clip-rule="evenodd" d="M7.08008 15.7653C7.08008 15.7653 7.20398 15.9631 7.50615 16.1505C7.77815 16.3152 8.2087 16.4648 8.59254 16.554C8.81305 16.6068 9.03365 16.6476 9.23155 16.6507C9.76489 16.6581 10.132 16.5056 10.5869 16.4557C10.8332 16.4301 11.1353 16.4104 11.4496 16.3362C11.8529 16.2395 12.0916 16.1307 12.4165 15.9777C12.6522 15.8689 12.8683 15.7874 13.0435 15.6831C13.2898 15.5381 13.4696 15.3764 13.6781 15.3281C13.6524 15.3991 13.6252 15.526 13.4198 15.6575C13.5285 15.6544 13.6781 15.6469 13.6781 15.6469C13.6781 15.6469 13.5331 15.733 13.2777 15.9264C13.1206 16.0459 12.9121 16.2482 12.6991 16.3826C12.5615 16.4688 12.4119 16.532 12.3137 16.5836C12.0747 16.7151 11.9783 16.7815 11.8212 16.9422C11.8771 16.9392 11.8817 16.9422 11.8817 16.9422C11.8817 16.9422 11.6837 16.9679 11.5418 17.0434C11.5119 17.0434 11.4601 17.0328 11.3695 17.0585C11.2985 17.0811 11.2047 17.1326 11.1081 17.1597C10.9706 17.2005 10.9254 17.1824 10.9254 17.1824L10.948 17.2277C10.948 17.2277 10.7687 17.2246 10.709 17.2307C10.7195 17.2337 10.7165 17.2383 10.7165 17.2383C10.706 17.24 10.6959 17.2436 10.6866 17.2488C10.6579 17.2675 10.6263 17.2812 10.593 17.2896C10.5749 17.2926 10.5598 17.2926 10.5371 17.2971C10.5446 17.3153 10.6036 17.4167 10.6308 17.4764C10.6082 17.4915 10.2681 17.7484 10.2681 17.7484C10.2787 17.765 10.2873 17.7827 10.2938 17.8013C10.3044 17.8345 10.309 17.8829 10.3195 17.9055C10.3451 17.9508 10.3603 17.9584 10.3603 17.9584C10.3603 17.9584 10.3195 17.9659 10.2484 17.9841C10.1881 17.9992 10.114 18.0248 10.0094 18.0399C9.97731 18.0441 9.94503 18.0466 9.91269 18.0475C9.92783 18.0808 9.99426 18.2076 9.87185 18.3541C9.74945 18.5007 9.7117 18.522 9.67396 18.6156C9.65496 18.6012 9.63473 18.5886 9.6135 18.5777C9.57277 18.5596 9.51679 18.5325 9.49717 18.4962C9.48574 18.5446 9.47059 18.5921 9.45186 18.6382C9.41411 18.7394 9.35824 18.8392 9.34768 18.9147C9.30684 18.8694 9.23135 18.7802 9.12707 18.7983C9.0228 18.8165 8.93973 18.9585 8.92161 18.9993C8.92161 18.9736 8.90348 18.954 8.899 18.9842C8.89591 19.0175 8.83854 19.3648 8.51824 19.6459C8.51526 19.5749 8.51526 19.4177 8.50769 19.3664C8.47781 19.3963 8.44126 19.4404 8.22364 19.5342C8.0106 19.6278 8.04437 19.7215 8.04437 19.7215C8.04437 19.7215 8.02624 19.5721 8.14107 19.4147C8.2574 19.2577 8.32841 19.1836 8.32841 19.1715C8.32654 19.1593 8.3213 19.1477 8.31328 19.1383C8.29814 19.1231 8.26796 19.105 8.26796 19.093C8.28609 19.0855 8.46586 18.9993 8.4553 18.821C8.44474 18.6609 8.37682 18.5777 8.32841 18.5189C8.32094 18.5113 8.39953 18.4554 8.38887 18.4373C8.3813 18.4268 8.28469 18.3556 8.27254 18.3178C8.2754 18.2952 8.28047 18.273 8.28768 18.2514C8.29824 18.2181 8.30581 18.1954 8.30282 18.1728C8.29525 18.135 8.25441 18.0308 8.24236 18.0202C8.25292 18.0232 8.32841 18.0202 8.32841 18.0202C8.32841 18.0202 8.26806 17.9235 8.2574 17.8782C8.24675 17.8329 8.22414 17.7134 8.21209 17.6908C8.23778 17.6938 8.30122 17.6983 8.30122 17.6908C8.30431 17.6681 8.24535 17.6304 8.27135 17.6012C8.28947 17.6042 8.32423 17.6193 8.3574 17.6617C8.33927 17.6133 8.30909 17.5196 8.24555 17.4819C8.27543 17.4713 8.37702 17.444 8.46615 17.4969C8.55529 17.5498 8.58567 17.6238 8.58567 17.6238C8.58567 17.6238 8.63856 17.6646 8.72022 17.7251C8.81384 17.7991 8.93316 17.9044 9.12359 17.9789C9.16442 18.0016 9.2686 18.0016 9.34419 17.9864C9.37711 17.9786 9.40866 17.9659 9.43781 17.9487C9.44834 17.9425 9.45949 17.9374 9.47108 17.9336C9.45484 17.901 9.43616 17.8696 9.41521 17.8398C9.4409 17.8398 9.47108 17.8429 9.47108 17.8429C9.47108 17.8429 9.4892 17.8021 9.40764 17.7234C9.42576 17.7053 9.44847 17.6935 9.44847 17.663C9.42277 17.66 9.37746 17.6222 9.3669 17.6071C9.38194 17.5965 9.40465 17.5618 9.43034 17.5512C9.40764 17.5331 9.35176 17.4575 9.32607 17.45C9.35061 17.4409 9.37437 17.4298 9.39708 17.4168C9.39708 17.4168 9.27019 17.3835 9.22936 17.3563C9.18852 17.3264 9.12817 17.2747 9.09192 17.2596C9.05407 17.2445 8.98764 17.237 8.96045 17.2067C8.98605 17.2143 9.02688 17.2067 9.05716 17.2067C9.07977 17.2067 9.09042 17.2097 9.09789 17.2097C9.0949 17.1991 9.0949 17.1764 9.15387 17.169C9.18223 17.1647 9.20975 17.156 9.23543 17.1433C9.23543 17.1433 9.17946 17.1403 9.11592 17.0798C9.05238 17.0194 8.99959 16.9711 8.96334 16.9635C8.92559 16.9559 8.85458 16.9892 8.81076 16.9861C8.7503 16.9786 8.72461 16.9484 8.72461 16.9484C8.72461 16.9484 8.52372 16.9665 8.07803 16.6946C7.69269 16.4588 7.52497 16.2504 7.52497 16.2504C7.48891 16.2373 7.45406 16.2211 7.4208 16.202C7.27578 16.1265 7.0748 15.9693 7.08088 15.7638L7.08008 15.7653Z" fill="#C2A44D"/>
<path fill-rule="evenodd" clip-rule="evenodd" d="M12.6393 6.69501C12.6742 6.70636 12.7053 6.72731 12.7289 6.75546C12.7999 6.83703 12.8452 6.99111 12.6836 7.15584C12.747 7.17845 12.7732 7.18572 12.8286 7.17845C12.7727 7.24498 12.6459 7.387 12.6383 7.5109C12.6307 7.61209 12.6942 7.64237 12.6942 7.64237C12.6942 7.64237 12.5975 7.75411 12.593 7.94115C12.6386 7.88965 12.6886 7.84214 12.7424 7.79913C12.8542 7.70999 13.0083 7.6088 13.1126 7.54536C13.1111 7.57195 13.1147 7.59857 13.1231 7.62384C13.1231 7.62384 13.3179 7.46369 13.4817 7.5348C13.5557 7.56807 13.5224 7.67224 13.5224 7.67224C13.5224 7.67224 13.6237 7.6345 13.6947 7.70551C13.7657 7.77652 13.8661 7.95968 13.9176 8.03069C13.9402 8.06396 13.9992 8.1274 14.0595 8.2256C14.142 8.36309 14.2108 8.50829 14.2651 8.65914C14.2681 8.58056 14.2877 8.45826 14.5114 8.53524C14.735 8.61382 14.9888 8.77856 15.2018 9.10294C15.4148 9.42732 15.4676 9.79354 15.5749 9.93297C15.6836 10.0674 15.7955 10.291 15.803 10.3847C15.8106 10.4785 15.7698 10.7805 15.9934 11.5979C16.0568 11.3441 16.1535 10.7805 16.1535 10.7805L16.2064 10.2835L16.2669 8.74539L14.6608 7.4111L13.4053 6.5L12.5879 6.57858L12.6392 6.69491L12.6393 6.69501Z" fill="#CAA13E"/>
<path fill-rule="evenodd" clip-rule="evenodd" d="M15.6233 8.98459C15.6233 8.98459 15.6006 8.8352 15.2229 8.58123C14.8451 8.33045 14.5505 8.33045 14.2786 8.11741C14.0701 7.94969 13.8526 7.56436 13.7109 7.43747C13.5734 7.31208 13.5508 6.94945 13.5508 6.94945L14.0146 6.56103L14.7044 5.56397L15.2875 4.92188L15.567 5.3103L15.9554 5.76655L16.1714 6.68213L16.25 8.0223L15.6226 8.98469L15.6233 8.98459Z" fill="#B59544"/>
<path fill-rule="evenodd" clip-rule="evenodd" d="M16.0898 10.5927C16.1012 10.3895 16.0761 10.1858 16.0157 9.99144C15.9161 9.6817 15.6985 9.13173 15.5974 8.92576C15.5566 8.69759 15.5868 8.67946 15.6307 8.65377C15.6745 8.62807 15.8392 8.53425 15.9294 8.20509C16.0197 7.87592 16.2996 7.86517 16.2996 7.86517L16.4718 7.73828L16.7333 8.39243L16.9614 8.98323L17.0324 9.435L17.0853 9.82024L16.9614 10.6346L16.3495 11.1876L16.0897 10.5927H16.0898Z" fill="#C89D3A"/>
<path fill-rule="evenodd" clip-rule="evenodd" d="M7.55078 19.6668V19.6501C7.5635 19.6421 7.57472 19.632 7.58395 19.6202C7.5945 19.605 7.60217 19.5869 7.60964 19.5824C7.62478 19.5749 7.69579 19.5525 7.73354 19.5597C7.77129 19.5669 7.87108 19.608 7.92397 19.605C8.03273 19.602 8.15961 19.5189 8.3606 19.5567C8.66277 19.6126 8.73378 19.8181 8.90907 19.9344C9.02859 20.0161 9.15228 19.9797 9.17041 19.9797H9.21115C9.21871 19.9797 9.27459 19.9163 9.30487 19.9194C9.36532 19.9223 9.3713 19.9722 9.40904 19.9752C9.49818 19.9858 9.67048 19.9299 9.75663 19.9526C9.78218 19.9606 9.80541 19.9747 9.82435 19.9936C9.84328 20.0125 9.85737 20.0357 9.86539 20.0613C9.88352 20.1172 9.86838 20.1882 9.82456 20.229C9.73094 20.3151 9.6418 20.3967 9.62367 20.468C9.64673 20.4856 9.66887 20.5044 9.69 20.5242C8.94245 20.3337 8.22321 20.0458 7.55078 19.6677V19.6668Z" fill="#CEB052"/>
<path fill-rule="evenodd" clip-rule="evenodd" d="M15.5977 16.6494C15.5977 16.6494 15.8333 16.3352 15.915 16.1795C15.9965 16.0191 15.6566 13.9873 15.6566 13.9873L16.3395 11.7498L16.3213 11.0216C16.3213 11.0216 16.3546 10.3492 16.4332 10.0576C16.5269 10.2253 16.8185 10.4278 16.8819 10.535C16.9118 10.3295 17.0133 9.89592 16.9983 9.43359C17.0541 9.51964 17.1886 10.3854 17.1886 10.3854L17.3231 10.9686L17.4983 11.5881L17.6933 12.2423L17.8096 12.6941L17.876 12.8028L17.932 12.9932L17.9849 13.1987L18.1375 13.6807L18.2271 14.0765L18.2981 14.7941C18.3135 14.8491 18.3247 14.9052 18.3314 14.9619C18.3344 15.0404 18.3208 15.0858 18.3208 15.0994C18.3208 15.1131 18.3465 15.2716 18.3359 15.391C18.3208 15.5105 18.3208 15.6041 18.2271 15.6898C18.1334 15.7756 18.0745 16.2881 18.0745 16.2881L17.9068 16.1763C17.9068 16.1763 17.9401 16.0237 17.8615 15.8847C17.7829 15.7458 17.6303 15.717 17.5442 15.7397C17.4581 15.7578 17.2859 15.7849 17.2299 15.8333C17.177 15.8816 17.0472 16.0312 16.9278 16.0993C16.7784 16.1889 16.535 16.196 16.4051 16.2261C16.2736 16.256 16.1286 16.3457 15.9759 16.4497C15.8562 16.5272 15.7298 16.5939 15.5983 16.6489L15.5977 16.6494Z" fill="#CCA847"/>
<path fill-rule="evenodd" clip-rule="evenodd" d="M15.5977 19.9484C15.5977 19.9484 15.6076 19.9549 15.6268 19.9655C16.7002 19.4626 17.662 18.7497 18.4554 17.869C18.4467 17.5632 18.4354 17.2498 18.4231 17.1337C18.3975 16.8874 18.4156 16.6366 18.4081 16.4916C18.4005 16.3466 18.3189 15.7558 18.2812 15.6032C18.2403 15.4506 18.1617 15.375 18.1497 15.375C18.1391 15.3781 18.0756 15.6621 18.0756 15.7335C18.0756 15.805 18.0605 15.9769 18.0605 16.0207C18.0499 16.0176 18.0454 15.9908 18.0454 15.9798C18.0303 16.0176 18.0122 16.0841 18.0046 16.0917C17.997 16.0993 18.0151 16.0282 18.0046 16.0131C17.994 15.998 17.9747 16.0055 17.9789 15.9678C17.9807 15.9454 17.9842 15.9232 17.9895 15.9014C17.9895 15.9014 17.9441 15.9678 17.911 16.137C17.8777 16.3047 17.8777 16.3093 17.8657 16.3243C17.8551 16.3426 17.7946 16.4029 17.7916 16.4256C17.7886 16.4664 17.8475 16.5072 17.852 16.5298C17.855 16.5677 17.7991 16.7429 17.781 16.8286C17.7629 16.9144 17.7704 17.0824 17.7511 17.1685C17.736 17.2471 17.7212 17.2924 17.6696 17.3256C17.7073 17.3332 17.7436 17.3437 17.7436 17.3437C17.7436 17.3437 17.7964 17.5673 17.662 17.7577C17.6137 17.8242 17.6016 17.8544 17.5502 17.9149C17.4489 18.0266 17.3704 18.1539 17.3628 18.2367C17.3576 18.2123 17.354 18.1875 17.3522 18.1626C17.3522 18.1626 17.1952 18.3454 17.1286 18.4497C17.0426 18.5842 16.9232 18.5766 16.8896 18.6099C16.8561 18.6431 16.8488 18.7035 16.8597 18.7519C16.8299 18.7594 16.7737 18.77 16.7358 18.8864C16.7177 18.9467 16.6724 19.0059 16.6014 19.0465C16.5304 19.0871 16.4442 19.0994 16.4004 19.1099C16.4381 19.1205 16.4533 19.1205 16.4714 19.1326C16.4488 19.1703 16.3445 19.2293 16.2282 19.3049C16.1119 19.3759 16.0559 19.48 16.0272 19.5481C15.9973 19.6115 15.9532 19.6523 15.8822 19.6599C15.9121 19.678 15.9563 19.7203 15.9789 19.7339C15.9456 19.7415 15.8893 19.7415 15.7886 19.8276C15.6828 19.9153 15.6466 19.941 15.5982 19.9485L15.5977 19.9484Z" fill="#C39D3C"/>
<path fill-rule="evenodd" clip-rule="evenodd" d="M13.4946 20.6509C13.5525 20.6104 13.6152 20.5772 13.6812 20.5521C13.9168 20.4584 14.1661 20.4403 14.2643 20.4101C14.358 20.3802 14.432 20.339 14.5484 20.3164C14.5453 20.3429 14.5427 20.3678 14.5399 20.3913C14.1969 20.4991 13.8477 20.5858 13.4941 20.6509H13.4946Z" fill="#D2BA6B"/>
<path fill-rule="evenodd" clip-rule="evenodd" d="M17.8413 14.4527C17.8413 14.4527 17.793 14.7141 17.7069 14.8788C17.6207 15.0435 17.5276 15.2716 17.5276 15.2716C17.5281 15.2202 17.5342 15.169 17.5457 15.1189C17.4369 15.1824 17.1725 15.3351 17.0975 15.403C17.0265 15.4664 16.9071 15.5783 16.8769 15.6311C16.9479 15.4227 17.0219 15.2354 17.0341 15.1492C16.9253 15.2278 16.4176 15.6463 16.1533 15.9228L15.3298 16.5891C15.2348 16.6403 15.1369 16.6861 15.0367 16.7263C14.8948 16.7867 14.727 16.8381 14.6031 16.8865C14.6364 16.7973 14.6892 16.7186 14.7633 16.6431C14.8419 16.5691 15.0775 16.3138 15.1138 16.195C15.147 16.0711 15.1546 15.9971 15.1108 15.8928C15.07 15.9033 14.9763 15.9079 14.9129 15.9261C14.8494 15.9442 14.7814 16.0121 14.7814 16.0121C14.7814 16.0121 14.8297 15.7356 14.934 15.4743C14.8554 15.4773 14.721 15.4999 14.721 15.4999C14.721 15.4999 14.9083 15.1857 15.2289 14.9666C15.1307 14.9875 15.0346 15.0173 14.9419 15.0557C14.7545 15.1343 14.5491 15.2506 14.3965 15.314C14.4825 15.1945 15.0869 14.332 15.4465 13.5282C15.8051 12.7259 15.939 12.5205 16.0176 12.0899C16.0583 11.8769 16.0475 11.5621 16.0583 11.2801C16.0689 11.0005 16.1037 10.7498 16.0811 10.582C16.1747 10.6984 16.5252 11.0262 16.5373 11.7591C16.5479 12.4918 16.202 13.4815 15.8347 14.0147C15.9244 14.0404 16.1566 14.0707 16.3953 13.6562C16.6339 13.2416 16.631 13.1259 16.7172 12.9536C16.7277 13.0398 16.7246 13.0699 16.7246 13.0699C16.7246 13.0699 17.0722 12.6484 17.2369 12.1181C17.2701 12.3463 17.3683 12.5473 17.2142 12.9658C17.0767 13.3434 16.8969 13.4357 16.8969 13.4357C16.8969 13.4357 16.9861 13.4205 17.1174 13.3419C17.1402 13.3978 17.1357 13.4615 17.1734 13.484C17.2112 13.5065 17.2626 13.5444 17.2701 13.5807C17.3109 13.5202 17.3743 13.4431 17.394 13.3858C17.3789 13.5053 17.3683 14.0279 17.4239 14.2938C17.5403 14.2832 17.6596 14.2756 17.7412 14.0656C17.6853 14.2712 17.6853 14.395 17.7231 14.5703C17.785 14.528 17.8409 14.4524 17.8409 14.4524L17.8413 14.4527Z" fill="#C0993A"/>
<path fill-rule="evenodd" clip-rule="evenodd" d="M13.9155 6.12359C13.9155 6.12359 13.7992 6.1719 13.6013 6.1719C13.4291 6.1719 13.4774 6.10547 13.2085 6.10547C12.7946 6.10547 11.3487 6.3445 11.0948 6.34111C10.9301 6.33813 11.6507 6.41212 11.6507 6.41212L13.4926 6.43782L13.8627 6.40794L14.0002 6.12808L13.9155 6.12359Z" fill="#A88F33"/>
<path fill-rule="evenodd" clip-rule="evenodd" d="M9.14042 9.72328C9.14042 9.72328 8.90468 9.90305 8.80498 10.0406C8.70529 10.1781 8.6524 10.2687 8.53906 10.3805C8.56567 10.3815 8.59225 10.378 8.61764 10.37C8.61764 10.37 8.61764 10.3998 8.59952 10.4077C8.61518 10.4059 8.63104 10.4077 8.64593 10.4129C8.66082 10.4181 8.67436 10.4265 8.68557 10.4376C8.6523 10.4557 8.56167 10.5464 8.63268 10.6537C8.68557 10.7353 8.79741 10.7427 8.79741 10.7427C8.79741 10.7427 8.77172 10.8168 8.87898 10.8093C9.11015 10.7987 9.3685 10.6974 9.48781 10.7231C9.60733 10.753 9.67525 10.764 9.75981 10.9106C9.84945 11.0556 9.92753 11.0783 9.92753 11.0783C9.92753 11.0783 9.98042 10.9437 9.96836 10.7428C10.0117 10.6346 10.0358 10.5195 10.0394 10.4029L9.96079 9.82427L9.61789 9.39062L9.17369 9.63693L9.14042 9.72298V9.72328Z" fill="#E3C571"/>
<path fill-rule="evenodd" clip-rule="evenodd" d="M9.56055 9.63976C9.56055 9.63976 9.59381 9.71834 9.73285 9.72581C9.71771 9.75907 9.71771 9.76365 9.72229 9.78925C9.72528 9.81495 9.72976 9.85269 9.72976 9.85269C9.74507 9.84529 9.7589 9.83516 9.77059 9.82282C9.77816 9.85608 9.76303 9.90887 9.77059 9.94671C9.77526 9.96973 9.78286 9.99206 9.7932 10.0131C9.79541 10.008 9.79794 10.003 9.80077 9.9981C9.80376 9.99053 9.83065 10.0797 9.90505 10.1475C9.90498 10.1371 9.90755 10.1268 9.91252 10.1176C9.91366 10.1366 9.91992 10.1548 9.93065 10.1705C9.92508 10.1679 9.91999 10.1643 9.91561 10.1599C9.91561 10.1599 9.92308 10.399 9.96391 10.5226C9.97073 10.5146 9.9768 10.506 9.98204 10.4969C9.98204 10.4894 9.97905 10.5634 9.97148 10.6164C9.96092 10.6693 9.96849 10.7433 9.96849 10.7433C9.99573 10.7218 10.0257 10.7041 10.0575 10.6904C10.1028 10.6722 10.177 10.6163 10.2223 10.4924C10.2485 10.4222 10.2687 10.35 10.2827 10.2764C10.2973 10.3045 10.3074 10.3347 10.3126 10.366C10.3157 10.4038 10.3867 10.3841 10.3867 10.3841L10.4018 10.2194L10.4915 9.84622L10.573 9.61506L10.9658 9.00324L11.6756 8.45666L12.2951 8.59868L12.8177 7.88856L11.9173 7.34766L11.0651 7.43679L10.2918 8.50795L9.67239 9.47951L9.56055 9.63966V9.63976Z" fill="#D8B65B"/>
<path fill-rule="evenodd" clip-rule="evenodd" d="M14.0233 8.09135C14.0233 8.09135 13.9704 8.10191 13.8178 8.18099C13.6652 8.26007 13.5595 8.28517 13.5005 8.40149C13.4415 8.51782 13.4371 8.61005 13.4371 8.61005C13.4371 8.61005 13.5413 8.56473 13.6018 8.54959C13.6652 8.53455 13.7362 8.53904 13.7287 8.56473C13.7214 8.58235 13.7113 8.59867 13.6988 8.61304C13.6988 8.61304 13.8183 8.61005 13.8151 8.66901C13.8119 8.72797 13.7925 8.79291 13.7699 8.82159C13.7472 8.85147 13.6536 8.89569 13.643 8.93045C13.6173 9.00146 13.6536 9.00445 13.6399 9.06181C13.6294 9.11779 13.5796 9.22655 13.4163 9.41687C13.2486 9.6073 13.1773 9.74176 13.1773 9.74176C13.1773 9.74176 13.0957 9.58918 13.0534 9.45771C13.0235 9.47275 12.8631 9.56189 12.8631 9.56189L12.4914 8.26714L12.4989 8.18099C12.4989 8.18099 12.5321 8.14025 12.5397 8.06466C12.4838 8.04653 12.4763 8.03139 12.4022 7.96048C12.3281 7.88957 12.2677 7.80332 12.1439 7.74436C12.1258 7.71109 12.1031 7.66588 12.0124 7.64765C11.9218 7.62943 11.8674 7.61449 11.8674 7.61449C11.8674 7.61449 11.9157 7.59626 11.9384 7.55851C11.8825 7.56608 11.8372 7.58421 11.7148 7.58122C11.5909 7.57813 11.5773 7.57365 11.5094 7.58421C11.4415 7.59477 11.36 7.62504 11.3296 7.52077C11.2963 7.49507 11.2253 7.51778 11.1649 7.60682C11.1044 7.69586 11.0833 7.76697 10.967 7.80173C10.9588 7.853 10.9408 7.90223 10.9141 7.94674C10.8808 8.00271 10.8279 8.05858 10.7569 8.14165C10.6451 8.27311 10.6632 8.48914 10.4849 8.65387C10.3052 8.8185 10.5148 8.19752 10.5148 8.19752L10.8018 7.51031L11.6192 6.71105L12.8884 6.625L13.0123 7.28233L13.6318 7.49537L14.0231 8.09215L14.0233 8.09135Z" fill="#D3AE4D"/>
<path fill-rule="evenodd" clip-rule="evenodd" d="M14.2249 8.23397L13.6915 7.46499L13.3184 7.17786C13.3184 7.17786 13.0524 6.68844 13.0343 6.6733C13.0192 6.66275 12.7684 6.63556 12.6082 6.625L12.6381 6.699C12.6731 6.71035 12.7041 6.7313 12.7277 6.75945C12.7988 6.84102 12.8441 6.9951 12.6824 7.15983C12.7459 7.18244 12.7721 7.18971 12.8274 7.18244C12.7716 7.24897 12.6447 7.39099 12.6371 7.51489C12.6295 7.61608 12.693 7.64626 12.693 7.64626C12.693 7.64626 12.5963 7.7581 12.5918 7.94505C12.6375 7.89354 12.6874 7.84603 12.7412 7.80302C12.853 7.71338 13.0071 7.61259 13.1114 7.54915C13.11 7.57577 13.1135 7.60243 13.1219 7.62773C13.1219 7.62773 13.3168 7.46758 13.4805 7.53859C13.5545 7.57186 13.5212 7.67614 13.5212 7.67614C13.5212 7.67614 13.6225 7.63839 13.6935 7.7094C13.7645 7.78041 13.8657 7.96317 13.9171 8.03428C13.9397 8.06755 13.9987 8.13099 14.059 8.22909C14.1415 8.3666 14.2104 8.51184 14.2646 8.66273C14.2676 8.60228 14.2798 8.51772 14.3841 8.51772L14.2255 8.23367L14.2249 8.23397Z" fill="#CAA13E"/>
<path fill-rule="evenodd" clip-rule="evenodd" d="M6.22967 10.4165C6.22967 10.4165 6.19192 10.3228 6.22967 10.14C6.26741 9.95726 6.32637 9.87111 6.346 9.6022C6.36562 9.33329 6.5409 8.99785 6.5409 8.99785L7.02584 8.77734L7.36885 8.87096L7.47004 9.3303L7.03639 9.56933C7.03639 9.56933 7.01379 9.67052 6.89138 9.75209C6.76898 9.83366 6.59977 9.8971 6.55903 9.98026C6.53468 10.0312 6.51691 10.085 6.50615 10.1404C6.50615 10.1404 6.38225 10.1147 6.30825 10.1963C6.22967 10.2795 6.23265 10.3534 6.22967 10.4169V10.4165Z" fill="#F4EFC8"/>
<path fill-rule="evenodd" clip-rule="evenodd" d="M7.20888 10.2956C7.20888 10.2956 7.16805 10.3213 7.13787 10.3852C7.10799 10.3369 7.03658 10.0498 7.03359 9.79145C7.03061 9.5331 7.01517 9.46906 7.07493 9.38002C7.13468 9.29098 7.36903 9.19716 7.33577 9.03681C7.3025 8.88423 7.16347 8.82079 6.99276 8.86461C6.87324 8.89449 6.7843 9.14866 6.66041 9.27554C6.56669 9.37225 6.45494 9.35711 6.42476 9.41C6.38393 9.48101 6.42168 9.55202 6.40962 9.59734C6.40654 9.61247 6.36879 9.69404 6.30077 9.79224C6.16332 9.99014 5.93067 10.2697 5.90039 10.5205C5.91095 10.3785 5.90348 10.3755 5.94123 10.2183L5.91852 10.1806L6.06791 9.69106L6.16462 9.28769L6.38074 8.61223L6.7614 7.92183L7.1316 7.50781L7.51683 7.53351L7.56215 8.11216L7.78275 9.19855L8.24657 9.76964L7.50319 10.2699L7.20858 10.2956H7.20888Z" fill="#EBCC73"/>
<path fill-rule="evenodd" clip-rule="evenodd" d="M7.43889 10.5C7.43889 10.5 7.37545 10.5151 7.35274 10.5031C7.33003 10.491 7.30753 10.4774 7.315 10.4623C7.32247 10.4471 7.3633 10.4215 7.3633 10.4094C7.36414 10.3984 7.36067 10.3875 7.35362 10.3791C7.34657 10.3706 7.3365 10.3652 7.32555 10.3641C7.29079 10.3596 7.28024 10.3822 7.28024 10.3822C7.28024 10.3822 7.24697 10.3566 7.21988 10.3523C7.23591 10.3503 7.25204 10.3493 7.26819 10.3492C7.22643 10.3303 7.18214 10.3176 7.13672 10.3115C7.17447 10.2889 7.24856 10.2223 7.29687 10.2223C7.34517 10.2223 7.37545 10.2149 7.36788 10.1892C7.36031 10.1635 7.32256 10.1257 7.28183 10.1106C7.29687 10.0925 7.30753 10.0653 7.27127 9.99107C7.23343 9.91707 7.24856 9.86717 7.26072 9.84914C7.27127 9.82644 7.30902 9.7857 7.32715 9.76001C7.34527 9.73431 7.36041 9.69955 7.39059 9.68142C7.40573 9.67087 7.45403 9.65155 7.50244 9.63312C7.55532 9.61499 7.59914 9.59229 7.62932 9.61499C7.66259 9.6376 7.64745 9.66788 7.64745 9.66788C7.64745 9.66788 7.75172 9.63003 7.84534 9.67844C7.93906 9.72365 8.16724 9.75244 8.16724 9.75244L8.24901 9.91717L7.7081 10.381L7.48451 10.4928L7.43919 10.5003L7.43889 10.5Z" fill="#E5C66B"/>
<path fill-rule="evenodd" clip-rule="evenodd" d="M8.18973 9.74206C8.18973 9.74206 8.02201 9.8539 7.98427 9.89464C8.00687 9.89773 8.04462 9.91286 8.02948 9.93547C8.01136 9.95808 7.9026 10.0367 7.84214 10.1108C7.7787 10.1848 7.71824 10.2785 7.69713 10.3238C7.67452 10.3645 7.50222 10.4839 7.44336 10.499C7.56726 10.499 7.81655 10.3464 7.91017 10.3464C7.90718 10.3917 7.93586 10.4431 7.98875 10.4476C8.04163 10.4521 8.19421 10.4809 8.39968 10.354C8.60515 10.2301 8.53722 10.1379 8.62327 10.0775C8.788 9.96864 8.85444 9.87193 8.94507 9.81157C9.0357 9.75122 9.08261 9.73747 9.08261 9.73747C9.08261 9.73747 9.0856 9.69216 9.11249 9.69674C9.11985 9.69758 9.12684 9.70042 9.1327 9.70495C9.13856 9.70948 9.14308 9.71553 9.14575 9.72244C9.14575 9.72244 9.30292 9.61059 9.5043 9.58041C9.4996 9.57831 9.49584 9.57455 9.49374 9.56986C9.49374 9.56986 9.50878 9.56229 9.51187 9.55472C9.51187 9.55472 9.52243 9.53958 9.52999 9.54715C9.53756 9.55472 9.54812 9.61059 9.56326 9.6333C9.59653 9.61816 9.65997 9.47614 9.65997 9.47614L9.81265 9.03951V8.64062L9.69313 8.66333L8.79677 9.04399L8.25278 9.6076L8.18933 9.74206H8.18973Z" fill="#E6BD62"/>
<path fill-rule="evenodd" clip-rule="evenodd" d="M10.7715 7.78781C10.82 7.77605 10.8664 7.75719 10.9094 7.73184C10.8913 7.78024 10.8913 7.83313 10.8127 7.94796C10.7341 8.0628 10.7311 8.07943 10.6677 8.19874C10.6043 8.32264 10.5967 8.50092 10.5362 8.5794C10.5633 8.56623 10.5924 8.55759 10.6223 8.5538C10.6223 8.5538 10.5619 8.60669 10.5362 8.66256C10.5105 8.71844 10.4652 8.83476 10.3535 8.90588C10.2417 8.97699 10.0996 9.0222 9.94702 9.18992C9.79434 9.35456 9.63727 9.56311 9.55859 9.63811C9.59943 9.56709 9.6553 9.42507 9.67044 9.33145C9.68558 9.23783 9.66735 9.12588 9.69305 9.00209C9.71874 8.87829 9.71874 8.78905 9.84244 8.57293C9.96614 8.3568 10.1779 7.60595 10.1779 7.60595L10.6341 7.46094L10.7717 7.78731L10.7715 7.78781Z" fill="#B6933F"/>
<path fill-rule="evenodd" clip-rule="evenodd" d="M10.4415 7.50903C10.4415 7.50903 10.3041 7.70692 10.2663 7.88221C10.2286 8.0575 10.2632 8.04236 10.2406 8.12851C10.2271 8.18104 10.2271 8.23614 10.2406 8.28866C10.2882 8.21198 10.3534 8.14773 10.4307 8.10122C10.5607 8.02274 10.6665 7.96677 10.7295 7.90034C10.793 7.82933 10.8459 7.713 10.9833 7.62386C10.9274 7.61629 10.8488 7.5906 10.8339 7.59398C10.8899 7.53054 11.0575 7.43383 11.2267 7.3175C11.3944 7.19799 11.3839 7.14978 11.6559 7.03047C11.5667 7.04561 11.5244 7.0229 11.4503 7.03047C11.4802 6.96703 11.5848 6.93675 11.6893 6.83257C11.7939 6.72839 11.6229 6.57422 11.6229 6.57422L10.8261 7.05616L10.4409 7.50943L10.4415 7.50903Z" fill="#C49937"/>
<path fill-rule="evenodd" clip-rule="evenodd" d="M8.2793 7.14997L8.29742 7.00496L8.5256 6.63934L8.76433 5.99725V5.11941L8.7462 4.61177L8.78395 4.27932L8.81263 4.17365L8.84291 4.13281L9.03772 4.234L9.30673 4.59962L9.33242 5.30526L9.07099 6.41874L8.32461 7.23314L8.2793 7.14997Z" fill="#DFC068"/>
<path fill-rule="evenodd" clip-rule="evenodd" d="M8.8737 4.09359C8.8737 4.09359 8.75419 4.09668 8.72869 4.59376C8.70319 5.09084 8.69084 5.35218 8.67272 5.59848C8.65459 5.84478 8.61236 5.99428 8.59115 6.13939C8.56993 6.2845 8.55788 6.4823 8.48996 6.60321C8.46008 6.65908 8.39624 6.83437 8.24665 6.96584C8.07893 7.11085 7.82834 7.21214 7.7904 7.21971C7.72387 7.23475 7.38693 7.26801 7.24949 7.3436C7.20119 7.3693 7.11802 7.39948 7.0259 7.48563C6.84304 7.65026 6.59983 7.94486 6.42454 8.29992C6.15563 8.83027 5.88672 10.3275 5.88672 10.3275L5.94717 10.2263C5.94717 10.2263 5.95474 10.0919 6.0892 9.85611C6.22066 9.62047 6.18292 9.35604 6.36568 8.90427C6.43669 8.73207 6.52583 8.50848 6.63458 8.31805C6.80689 8.00831 7.01534 7.74239 7.22539 7.59737C7.5683 7.36173 7.94606 7.31034 7.94606 7.31034L8.35252 7.04143C8.35252 7.04143 8.42353 6.90399 8.51725 6.74683C8.64861 6.52632 8.81604 6.28002 8.85259 5.92197C8.90856 5.39162 8.77401 5.04413 8.78158 4.72991C8.78914 4.41568 8.79213 4.18452 8.85567 4.12855C8.91922 4.07257 8.8738 4.09379 8.8738 4.09379L8.8737 4.09359Z" fill="#A88F33"/>
<path fill-rule="evenodd" clip-rule="evenodd" d="M8.87326 6.46557C8.87326 6.46557 9.05253 6.02436 9.1346 5.63304C9.14974 5.55446 9.17992 5.47598 9.18749 5.41254C9.22523 5.04234 9.23579 4.88976 9.18749 4.68728C9.14974 4.53789 9.00473 4.40323 8.92913 4.29886C8.85513 4.19 8.82038 4.14946 8.83551 4.12655C8.85065 4.10365 8.90951 4.0662 8.96688 4.07068C9.02786 4.07246 9.08784 4.08661 9.14318 4.1123C9.19852 4.13798 9.24805 4.17465 9.28878 4.22007C9.4051 4.35453 9.49723 4.81088 9.49723 4.81088L9.59414 5.41304L9.84044 6.17146L8.87346 6.46616L8.87326 6.46557Z" fill="#C99E3D"/>
<path fill-rule="evenodd" clip-rule="evenodd" d="M10.5576 6.00424C10.5576 6.00424 10.5244 6.01928 10.464 6.00424C10.4666 6.02891 10.4623 6.0538 10.4516 6.07619C10.441 6.09858 10.4243 6.11759 10.4036 6.13113C10.3401 6.10543 9.74622 6.15682 9.74622 6.15682C9.74622 6.15682 9.46975 6.10842 9.3836 5.7428C9.32324 5.49949 9.42891 5.16415 9.39415 4.94355C9.34127 4.61866 9.26727 4.55512 9.2597 4.45403C9.25213 4.35294 9.24456 4.32715 9.24456 4.2637C9.21129 4.25613 9.19167 4.24558 9.15851 4.24558C9.15094 4.2157 9.16598 4.1896 9.13281 4.13672C9.15094 4.14429 9.27484 4.15943 9.41985 4.29687C9.53936 4.40872 9.53936 4.44945 9.55739 4.47216C9.58 4.49477 9.76286 4.65143 9.84144 4.8076C9.92002 4.96376 10.0726 5.46174 10.1074 5.54331C10.1179 5.57658 10.1406 5.60984 10.197 5.68534C10.2846 5.79419 10.413 5.97416 10.558 6.00404L10.5576 6.00424Z" fill="#B58634"/>
<path fill-rule="evenodd" clip-rule="evenodd" d="M9.58008 4.48047C9.6716 4.62832 9.75383 4.78173 9.82628 4.93981C9.91542 5.14069 9.9683 5.30542 10.0801 5.43988C10.0197 5.26469 9.91243 4.92018 9.84899 4.79778C9.77798 4.66831 9.63296 4.52887 9.58008 4.48057V4.48047Z" fill="#A88F33"/>
<path fill-rule="evenodd" clip-rule="evenodd" d="M8.55232 6.96494C8.55232 6.96494 8.39974 7.00269 8.11569 7.15228C8.02197 7.20059 7.93294 7.24132 7.84678 7.27917C7.62299 7.38036 7.38297 7.47388 7.19254 7.52547C7.20768 7.5436 7.21515 7.55107 7.21515 7.55107C7.21515 7.55107 7.21515 7.62516 7.25598 7.66739C7.23337 7.6901 6.9311 7.89557 7.02034 8.58298C7.08069 8.56037 7.1517 8.53009 7.16226 8.53009C7.18049 8.53318 7.18497 8.58298 7.20758 8.58298C7.23019 8.58298 7.30429 8.5531 7.38287 8.45151C7.37988 8.49235 7.33456 8.90328 7.57778 9.17976C7.62309 9.12687 7.73793 8.95158 7.73793 8.95158L7.74092 8.89571C7.74092 8.89571 7.75147 8.7008 7.81501 8.52252C7.87856 8.34425 8.00235 8.21278 8.00235 8.21278L8.64883 7.28963L8.55212 6.96484L8.55232 6.96494Z" fill="#E6C367"/>
<path fill-rule="evenodd" clip-rule="evenodd" d="M7.94856 8.32167C7.91897 8.34258 7.88636 8.35887 7.85186 8.36997C7.8413 8.33222 7.82616 8.20225 7.9153 8.07537C8.01958 7.92268 8.24765 7.72479 8.31109 7.56743C8.35193 7.46614 8.3338 7.21237 8.69643 6.88748C9.05906 6.5626 9.20098 6.45086 9.20098 6.45086L9.7872 6.15625L10.5079 6.4403L10.1498 7.84361L9.87186 8.50094L8.76635 8.29248L7.94846 8.32167H7.94856Z" fill="#DCBA5A"/>
<path fill-rule="evenodd" clip-rule="evenodd" d="M8.36914 7.93875L8.50668 7.76655V7.64415C8.50668 7.64415 8.65926 7.60331 8.8239 7.4356C8.98853 7.26788 9.2167 6.94608 9.41769 6.9657C9.61867 6.98841 9.63829 7.40233 9.64586 7.51876C9.65343 7.63519 9.67913 7.89941 9.71986 8.04154C9.76518 8.18356 9.23035 8.72138 9.23035 8.72138L8.86712 8.99786L8.36914 7.93875Z" fill="#E9CE77"/>
<path fill-rule="evenodd" clip-rule="evenodd" d="M8.79492 9.37223C8.79492 9.37223 8.90677 9.19694 8.8248 9.15919C8.8731 9.05043 8.96224 8.9356 8.96224 8.9356C8.96224 8.9356 9.02569 8.77853 9.23115 8.58512C9.43662 8.3917 9.5636 8.26323 9.59687 8.13335C9.61738 8.04871 9.62853 7.96208 9.63013 7.875C9.65235 7.89315 9.67611 7.90931 9.70115 7.9233C9.73441 7.93844 9.89147 8.06832 9.86887 8.32976C9.84626 8.59119 9.74935 8.69995 9.74935 8.69995C9.74935 8.69995 9.65573 8.79357 9.5893 8.84198C9.51819 8.89028 9.49259 8.94615 9.37318 8.95074C9.38545 8.94098 9.39925 8.93331 9.41401 8.92803C9.41401 8.92803 9.29011 8.91299 9.22358 8.97334C9.15705 9.0337 9.01563 9.21965 8.94461 9.27562C8.8736 9.32093 8.79522 9.37233 8.79522 9.37233L8.79492 9.37223Z" fill="#CDAE50"/>
<path fill-rule="evenodd" clip-rule="evenodd" d="M13.8183 6.43471C13.6398 6.36965 13.4522 6.33295 13.2623 6.32595C12.945 6.31539 12.4812 6.33352 12.0265 6.3365C11.5369 6.33949 11.0927 6.16878 10.4763 6.13861C10.3752 6.07815 10.1178 5.81372 9.31445 6.37425C9.36276 6.37126 9.89769 6.25035 10.0834 6.48311C10.2708 6.71427 10.2179 7.10708 10.1923 7.2007C10.1439 7.40925 9.98673 7.71292 9.92338 7.92596C9.86004 8.13899 9.87498 8.25094 9.82966 8.40033C9.78435 8.54973 9.68465 8.62392 9.74351 8.79613C9.82209 8.74782 9.86303 8.74782 9.9943 8.45322C10.1256 8.15861 10.0986 7.94856 10.3162 7.69928C10.5292 7.44849 10.8839 7.10548 11.0187 7.01933C11.1536 6.93318 12.2243 6.37724 13.3455 6.90759C13.6159 6.8789 13.8184 6.43461 13.8184 6.43461L13.8183 6.43471Z" fill="#D2A83E"/>
<path fill-rule="evenodd" clip-rule="evenodd" d="M9.76557 6.22754C9.76446 6.21619 9.76195 6.20502 9.7581 6.19428C9.74761 6.17218 9.73384 6.1518 9.71726 6.13382C9.71726 6.13382 9.45134 6.08552 9.31689 6.10056C9.08114 6.12625 8.86811 6.41787 8.76841 6.56746C8.66872 6.71706 8.54482 6.94812 8.41036 7.06754C8.41184 7.0559 8.40915 7.04412 8.40279 7.03427C8.40279 7.03427 8.41036 7.04483 8.39532 7.05997C8.38028 7.07511 8.38019 7.08257 8.38775 7.08985L8.41046 7.11245C8.41793 7.11245 8.62649 7.01873 8.91053 6.75391C9.21271 6.47743 9.44387 6.33561 9.56478 6.287C9.62926 6.2596 9.69666 6.23965 9.76567 6.22754H9.76557Z" fill="#C29637"/>
<path fill-rule="evenodd" clip-rule="evenodd" d="M14.9243 5.09375C14.9243 5.09375 14.8759 5.15411 14.8154 5.22064C14.681 5.36266 14.5057 5.52271 14.3561 5.68744C14.2142 5.8446 14.054 5.96701 13.8742 6.17247C13.6943 6.37794 13.4857 6.60602 13.4329 6.67255C13.3846 6.73908 13.3469 6.84783 13.3469 6.90371C13.3212 6.88558 13.291 6.86596 13.291 6.86596C13.3037 6.88968 13.3189 6.91198 13.3363 6.93249C13.3741 6.98538 13.4329 7.05201 13.4632 7.09264C13.5004 7.14437 13.527 7.20287 13.5417 7.26484C13.5598 7.26783 13.6762 7.29054 13.8213 7.05181C13.9664 6.81308 14.1566 6.55174 14.1566 6.55174L14.4588 6.10296L14.6492 5.7223L14.8882 5.29623L14.9246 5.09375H14.9243Z" fill="#AC8132"/>
<path fill-rule="evenodd" clip-rule="evenodd" d="M15.2351 4.78906C15.2351 4.78906 15.0522 4.93846 14.9812 5.02809C14.9102 5.11773 14.7422 5.35298 14.7422 5.35298L14.8026 5.34541L15.1094 5.07351L15.2289 4.86047L15.235 4.78946L15.2351 4.78906Z" fill="#A88F33"/>
<path fill-rule="evenodd" clip-rule="evenodd" d="M15.1785 16.7923C15.1785 16.7923 15.1755 16.6684 15.2451 16.5944C15.3161 16.5203 15.4958 16.4115 15.6711 16.0036C15.8464 15.5956 15.8659 15.5035 15.8659 15.5035C15.8659 15.5035 15.5517 15.7724 15.358 15.8359C15.4033 15.7421 15.429 15.6757 15.4517 15.6273C15.426 15.6047 15.3173 15.579 15.3067 15.567C15.3671 15.5065 15.4003 15.3584 15.5227 15.2602C15.6799 15.1407 15.9669 14.9353 16.19 14.7523C16.4131 14.5692 16.8517 14.1434 16.9077 14.0195C16.941 14.0678 16.9485 14.098 16.9485 14.098C16.9485 14.098 16.7279 14.3851 16.6131 14.5679C16.5118 14.7251 16.5194 14.8142 16.5194 14.8142L16.7279 14.7246C16.7279 14.7246 16.7883 14.9482 16.5149 15.2882C16.6344 15.2429 16.6826 15.2701 16.7506 15.2322C16.6387 15.3033 16.4846 15.4 16.3396 15.6659C16.1976 15.9318 16.0042 16.2415 15.6779 16.4348C15.3606 16.6388 15.1777 16.7914 15.1777 16.7914L15.1785 16.7923Z" fill="#A67A2E"/>
<path fill-rule="evenodd" clip-rule="evenodd" d="M14.3591 6.59233C14.3591 6.59233 14.2352 6.85059 14.2171 7.05157C14.2141 7.09997 14.202 7.13772 14.202 7.19359C14.199 7.37337 14.2125 7.57435 14.1721 7.66797C14.157 7.63022 14.1494 7.60453 14.1342 7.58949C14.1116 7.65293 14.0708 7.85083 14.0375 7.92483C14.0225 7.87652 13.9892 7.7088 13.9923 7.51091C13.9954 7.31301 13.9998 7.27516 13.9998 7.23443C13.9923 7.29478 13.9515 7.37645 13.9363 7.42476C13.9137 7.38402 13.888 7.33114 13.8578 7.28731C13.8396 7.31719 13.817 7.36131 13.7974 7.38402C13.7943 7.3659 13.7869 7.31749 13.7823 7.24957C13.7793 7.17099 13.7747 7.0698 13.7793 7.04858C13.7868 7.00785 13.8503 6.8477 13.9848 6.70109C14.1449 6.5258 14.3096 6.18897 14.3579 6.08469C14.4062 5.98042 14.6117 5.54688 14.6117 5.54688H14.7689L14.5407 6.06657C14.5407 6.06657 14.4033 6.35061 14.3322 6.45499C14.2612 6.55937 14.1116 6.85845 14.0451 6.97478C14.0934 6.91134 14.1342 6.87807 14.1826 6.81762C14.2295 6.77529 14.3593 6.59253 14.3593 6.59253L14.3591 6.59233Z" fill="#8C6228"/>
<path fill-rule="evenodd" clip-rule="evenodd" d="M15.238 4.76562C15.2124 4.84464 15.1718 4.918 15.1185 4.98175C15.0248 5.09359 14.8238 5.24309 14.7257 5.3624C14.6361 5.47873 14.4568 5.79604 14.5383 6.17222C14.5682 6.09065 14.6244 5.92901 14.774 5.74615C14.9236 5.56329 15.0838 5.35334 15.1624 5.1902C15.2409 5.02547 15.2515 4.8956 15.2515 4.8956L15.2814 4.85785L15.2632 4.7717L15.2375 4.76562H15.238Z" fill="#CBA94C"/>
<path fill-rule="evenodd" clip-rule="evenodd" d="M18.2969 14.7905C18.2969 14.7905 18.2365 14.6259 18.2183 14.4763C18.2002 14.3267 18.2482 14.297 18.1926 14.1258C18.1594 14.0215 18.099 14.0362 18.0839 14.0215C18.0688 14.0069 18.0582 13.8493 18.0612 13.7632C18.0642 13.677 18.0582 13.5653 18.0431 13.5169C18.0204 13.4988 18.0053 13.4836 17.972 13.3719C17.9343 13.26 17.9162 13.2042 17.898 13.171C17.8799 13.1378 17.8269 13.1075 17.8269 13.0743C17.8269 13.0078 17.8874 12.9731 17.8874 12.9548C17.8844 12.917 17.8391 12.9473 17.8269 12.9366C17.8119 12.9185 17.8648 12.8098 17.8452 12.7946C17.8376 12.7871 17.7847 12.8506 17.7711 12.8325C17.7559 12.8142 17.7378 12.6345 17.7106 12.5152C17.685 12.3988 17.6577 12.3143 17.6547 12.2795C17.6517 12.2462 17.4462 11.66 17.3964 11.518C17.3562 11.398 17.3225 11.2759 17.2952 11.1524C17.28 11.0814 17.2695 10.9363 17.2619 10.9514C17.2544 10.9665 17.2589 11.0405 17.2468 11.0375C17.2362 11.0345 17.1985 10.7762 17.1864 10.7354C17.1759 10.6945 17.1123 10.5561 17.0968 10.4559C17.0817 10.3546 17.0485 10.0902 17.0258 9.91042C17.0031 9.73065 16.9925 9.65665 16.9925 9.61163C16.9962 9.50152 16.9902 9.3913 16.9744 9.28226C16.9445 9.09184 16.8848 8.86067 16.8324 8.72632C16.7312 8.47245 16.4622 7.82279 16.4141 7.66114C16.4141 7.62031 16.4669 7.64301 16.4669 7.64301C16.4669 7.64301 16.5983 7.97238 16.695 8.22615C16.7887 8.48002 16.8779 8.70361 16.9006 8.72632C16.9187 8.74893 17.0607 8.99822 17.1242 9.40616C17.1876 9.81411 17.2102 10.1903 17.2481 10.4411C17.2662 10.5606 17.2813 10.6874 17.3191 10.8143C17.3598 10.9518 17.4233 11.0938 17.5064 11.3113C17.5774 11.4942 17.6303 11.6468 17.659 11.7782C17.6923 11.946 17.6923 12.0728 17.7119 12.156C17.7301 12.227 17.7572 12.3689 17.8208 12.5743C17.8843 12.7797 17.9778 13.0442 18.0413 13.2088C18.1653 13.5382 18.2205 13.8132 18.2393 13.9598C18.2558 14.1109 18.3118 14.6337 18.2966 14.7907L18.2969 14.7905Z" fill="#A88F33"/>
<path fill-rule="evenodd" clip-rule="evenodd" d="M15.2445 4.74931L15.2369 4.76744C15.2369 4.76744 15.2595 4.77501 15.2551 4.80529C15.2554 4.84671 15.2529 4.88811 15.2475 4.92918C15.24 4.98207 15.2249 5.0228 15.2219 5.05607C15.2219 5.12708 15.2325 5.20865 15.1323 5.41113C15.1024 5.467 15.084 5.51531 15.0688 5.54857C15.0311 5.63014 15.0235 5.64229 14.9902 5.68004C15.0431 5.65016 15.2335 5.53064 15.3302 5.54857C15.2637 5.58632 15.1624 5.66042 15.099 5.75713C15.1141 5.76011 15.1776 5.77226 15.2783 5.75713C15.446 5.73143 15.6333 5.67098 15.798 5.68303C15.9778 5.69358 15.9068 5.467 15.9068 5.467L15.6993 5.01075L15.3065 4.73438L15.2445 4.74941V4.74931Z" fill="#BE9C44"/>
<path fill-rule="evenodd" clip-rule="evenodd" d="M16.2689 8.16651C16.2689 8.16651 16.0937 7.99122 16.0226 7.38966C15.9516 6.78532 15.9668 5.89572 15.9668 5.89572L15.8247 5.54823C15.8247 5.54823 15.7949 5.31707 15.7205 5.23102C15.6461 5.14497 15.5 4.99986 15.4334 4.92885C15.3669 4.85784 15.2914 4.76113 15.2461 4.74599C15.2687 4.70824 15.37 4.49521 15.7582 4.49222C16.1464 4.48923 16.2662 4.70525 16.3067 4.78384C16.3472 4.86242 16.5303 5.20214 16.5982 5.84951C16.6617 6.49609 16.6647 6.54449 16.6542 6.76809C16.6466 6.89198 16.6058 7.17902 16.5347 7.48567C16.4697 7.74562 16.3987 8.03574 16.2687 8.16711L16.2689 8.16651Z" fill="#A17C34"/>
<path fill-rule="evenodd" clip-rule="evenodd" d="M15.7207 8.68179C15.7791 8.686 15.8375 8.67283 15.8884 8.64394C15.9443 8.64095 16.1468 8.66665 16.3024 8.46875C16.3129 8.51397 16.3402 8.63647 16.2691 8.74523C16.3069 8.70738 16.3628 8.69234 16.3704 8.68179C16.3734 8.73766 16.4263 8.90986 16.2027 9.32836C16.263 9.26193 16.334 9.26492 16.3975 9.25735C16.4006 9.33593 16.4428 9.60026 16.331 9.74238C16.257 9.83909 16.1361 9.80881 16.1361 9.80881C16.1379 9.7877 16.1379 9.76648 16.1361 9.74537C16.1331 9.70454 16.118 9.6638 16.1287 9.63661C16.0702 9.60993 16.017 9.57307 15.9715 9.52775C15.84 9.40386 15.6693 9.19241 15.6573 9.03525C15.6421 8.85996 15.7993 8.82222 15.7993 8.82222C15.7861 8.81044 15.7749 8.79666 15.766 8.78138C15.7585 8.75579 15.7509 8.71495 15.7207 8.68179Z" fill="#8C6228"/>
<path fill-rule="evenodd" clip-rule="evenodd" d="M14.5542 6.78157C14.5542 6.78157 14.5466 6.77101 14.5059 6.81931C14.5134 6.77101 14.521 6.72559 14.524 6.68177C14.5433 6.6412 14.5682 6.60357 14.5981 6.57002C14.5754 6.61524 14.5602 6.65608 14.5602 6.65608C14.5602 6.65608 14.6162 6.5518 14.6978 6.48836C14.7537 6.44304 14.8247 6.42192 14.8548 6.3796C14.8881 6.33428 14.8805 6.32671 14.8881 6.31914C14.8881 6.31914 14.9622 6.27084 15.0755 6.12871C15.0906 6.11059 15.1133 6.09097 15.1284 6.07284C15.154 6.06228 15.2145 6.03509 15.2855 5.99874C15.3596 5.95801 15.4427 5.90213 15.4941 5.87923C15.5952 5.83391 15.7026 5.83849 15.7524 5.76738C15.7901 5.75682 15.8309 5.64348 15.8234 5.54688C15.8793 5.56948 16.1663 5.74776 16.2646 6.13758C16.3356 6.41406 16.2087 6.84013 16.1558 7.04569C16.1029 7.25126 16.0954 7.40374 16.0213 7.49736C15.9276 7.62136 15.6255 7.79615 15.5514 7.8827C15.488 7.95371 15.2976 8.13348 15.3051 8.26335C15.3127 8.36006 15.432 8.41275 15.4578 8.43107C15.4836 8.4494 15.4834 8.47191 15.5318 8.46095C15.5802 8.45 15.5982 8.42769 15.6179 8.42769C15.6406 8.43068 15.6406 8.43526 15.6511 8.43526C15.6588 8.43503 15.6664 8.43399 15.6738 8.43217C15.6738 8.43217 15.6663 8.56971 15.3445 8.61144C15.3217 8.61453 15.2991 8.622 15.2704 8.62658C15.3082 8.60845 15.3308 8.60845 15.3716 8.55258C15.3263 8.54501 15.1964 8.53744 15.1631 8.52689C15.1737 8.50876 15.2084 8.46036 15.2371 8.43775C15.2628 8.41514 15.2341 8.40787 15.2115 8.41962C15.1726 8.4461 15.1352 8.47484 15.0997 8.50567C15.0619 8.53894 15.0286 8.58425 14.9682 8.62519C14.9501 8.56473 14.953 8.4499 15.0242 8.36684C15.0059 8.36982 14.9712 8.42271 14.938 8.41215C14.932 8.35704 14.9356 8.30131 14.9486 8.24742C14.9667 8.1794 15.0649 8.06008 15.0649 8.06008L15.5393 7.21242L15.6405 6.57032L14.5542 6.78137V6.78157Z" fill="#92723A"/>
<path fill-rule="evenodd" clip-rule="evenodd" d="M14.5285 6.8171C14.5285 6.8171 14.5028 6.83522 14.5542 6.86998C14.5466 6.88054 14.5285 6.91829 14.5058 6.94398C14.4802 6.97386 14.4529 6.99239 14.4423 7.01808C14.4197 7.07097 14.4016 7.10722 14.4016 7.12993C14.4016 7.15264 14.394 7.29765 14.3306 7.39127C14.3079 7.42453 14.2822 7.48041 14.2641 7.51815C14.2263 7.58458 14.1931 7.63767 14.1855 7.66755C14.1704 7.72043 14.1599 7.86544 14.1599 7.86544C14.1599 7.86544 14.1932 7.82461 14.2052 7.80957C14.187 7.84732 14.1674 7.88805 14.1387 7.91833C14.1568 7.90319 14.2097 7.86544 14.2988 7.78686C14.4227 7.68268 14.6161 7.5074 14.8519 7.36856C14.7808 7.39425 14.7204 7.39426 14.6721 7.40182C14.7099 7.36408 15.0498 6.9652 15.2281 6.92745C15.2389 6.91372 15.2443 6.89649 15.2432 6.87905L15.0905 6.86401L14.7808 6.93044L14.7355 6.69141L14.5285 6.8168V6.8171Z" fill="#B18E3E"/>
<path fill-rule="evenodd" clip-rule="evenodd" d="M15.0214 8.17896C15.0214 8.17896 14.9806 8.21969 14.9428 8.32098C14.9138 8.29064 14.8889 8.25658 14.8687 8.21969C14.8129 8.12607 14.7268 8.00666 14.5258 8.07468C14.5229 8.01124 14.5183 7.97797 14.5258 7.93266C14.5591 7.92519 14.6603 7.84362 14.7615 7.7242C14.8326 7.64263 14.899 7.54891 14.9443 7.4296C14.9742 7.40689 15.0259 7.36914 15.0937 7.32532C15.1904 7.25889 15.3068 7.16816 15.3249 7.06697C15.2796 7.08509 15.1829 7.13041 15.0378 7.12294C15.0937 7.09725 15.1798 7.07006 15.1692 6.95821C15.1919 6.94307 15.2101 6.93251 15.2101 6.93251C15.193 6.92683 15.1751 6.92427 15.1572 6.92494C15.1541 6.91439 15.1496 6.89935 15.1239 6.90682C15.0982 6.91429 15.094 6.91439 15.0906 6.92494C15.0801 6.92803 15.0453 6.92494 15.0196 6.94317C14.9939 6.9614 14.9229 7.02165 14.8957 7.03221C14.9063 7.01408 14.9213 6.98699 14.9213 6.98699C14.9213 6.98699 14.8473 6.99446 14.7945 7.01687C14.6977 7.05014 14.586 7.11059 14.4727 7.16945C14.4832 7.15133 14.4878 7.13957 14.4953 7.13619C14.5027 7.1328 14.521 7.12872 14.521 7.12563C14.521 7.12254 14.5135 7.09575 14.518 7.0849C14.5519 7.01311 14.5918 6.94437 14.6375 6.87943C14.6904 6.80832 14.7009 6.70713 14.7009 6.70713L14.9321 6.5908L15.5818 6.44141L16.0033 6.4671L15.9505 6.75872L15.7015 7.26785L15.4884 7.73167L15.2451 8.01582L15.0215 8.17896H15.0214Z" fill="#543E26"/>
<path fill-rule="evenodd" clip-rule="evenodd" d="M16.0745 6.91712C16.0745 6.91712 15.8206 7.23134 15.7496 7.27975C15.7949 7.18304 16.0745 6.60738 16.1757 6.44723C16.1531 6.4291 16.1228 6.4291 16.1938 6.14844C16.1334 6.29036 16.1122 6.36446 16.0624 6.40221C16.0126 6.43995 16.0065 6.4279 15.9728 6.4279C15.9791 6.41641 15.9818 6.40321 15.9803 6.39016C15.9803 6.39016 15.7672 6.36446 15.6217 6.36446C15.4762 6.36446 15.1882 6.44304 15.0279 6.50648C14.901 6.55937 14.83 6.55937 14.7847 6.59254C14.7394 6.63028 14.7137 6.67112 14.691 6.68167C14.6729 6.69223 14.5868 6.71942 14.5671 6.7481C14.549 6.77798 14.5188 6.81155 14.5188 6.81912C14.5188 6.82669 14.5112 6.83734 14.5339 6.82967C14.5414 6.82669 14.5974 6.79641 14.6608 6.75866C14.7469 6.71036 14.8511 6.65448 14.9267 6.62122C15.1428 6.53507 15.2108 6.55021 15.3074 6.53208C15.4086 6.51395 15.5537 6.47163 15.6503 6.47163C15.747 6.46864 15.9299 6.47163 15.9722 6.4792C15.9541 6.49433 15.9389 6.51246 15.9465 6.5759C15.9465 6.59403 15.9314 6.61365 15.9166 6.65747C15.8714 6.78137 15.7853 6.98684 15.7373 7.09111C15.6709 7.23304 15.5954 7.35245 15.5581 7.42645C15.5207 7.50045 15.4386 7.69536 15.3572 7.79964C15.2758 7.90392 15.2333 7.96736 15.2078 7.99007C15.1823 8.01277 14.9992 8.14713 15.0129 8.19553C15.0462 8.18498 15.2562 8.1059 15.4087 7.93419C15.5612 7.76249 15.5915 7.65771 15.7109 7.564C15.8302 7.47028 15.9239 7.31321 15.9798 7.18334C16.0266 7.06243 16.016 7.02468 16.0749 6.91742L16.0745 6.91712Z" fill="#806031"/>
<path fill-rule="evenodd" clip-rule="evenodd" d="M10.6043 9.26166C10.6043 9.26166 10.5711 9.39911 10.4955 9.46713C10.4215 9.53366 10.29 9.59103 10.275 9.70287C10.2568 9.81462 10.4064 9.87059 10.4064 9.87059C10.4064 9.87059 10.3248 10.005 10.3248 10.1062C10.3248 10.2105 10.3218 10.2301 10.3323 10.3298C10.3203 10.3375 10.3102 10.3477 10.3024 10.3597C10.3024 10.3597 10.3099 10.4564 10.384 10.5168C10.4581 10.5771 10.5215 10.6135 10.5592 10.5983C10.565 10.6107 10.57 10.6233 10.5743 10.6362C10.5743 10.6362 10.6303 10.4942 10.6681 10.3703C10.7058 10.2434 10.7391 10.2614 10.7541 10.0907C10.7692 9.91999 10.9334 9.62688 10.9334 9.62688L11.0454 9.3764L10.8627 9.23438L10.6043 9.26156V9.26166Z" fill="#B6903C"/>
<path fill-rule="evenodd" clip-rule="evenodd" d="M10.9436 9.50781C10.9059 9.5465 10.8711 9.58791 10.8395 9.63171C10.7912 9.69824 10.7535 9.75859 10.6825 9.78439C10.6115 9.81019 10.5661 9.80999 10.5706 9.8811C10.5751 9.95221 10.6416 9.98229 10.6794 10.0185C10.7202 10.0563 10.7535 10.1197 10.7353 10.1908C10.758 10.1803 10.7988 10.1681 10.8365 10.0866C10.8743 10.005 11.1383 9.50791 11.1383 9.50791H10.9436V9.50781Z" fill="#685026"/>
<path fill-rule="evenodd" clip-rule="evenodd" d="M11.9854 8.36186C11.9854 8.36186 12.008 8.30151 11.9854 8.25768C11.9627 8.21237 11.8253 8.19723 11.7573 8.14584C11.6862 8.09295 11.6001 8.0562 11.5291 8.07941C11.5396 8.05371 11.582 7.99774 11.5472 7.98569C11.5139 7.97513 11.3901 8.031 11.3569 8.0567C11.3236 8.08239 11.248 8.11257 11.233 8.1308C11.2179 8.14902 11.1921 8.18368 11.177 8.16855C11.1619 8.15799 11.1544 8.1308 11.1287 8.14584C11.103 8.16088 10.9793 8.26216 10.9565 8.32113C10.9337 8.38009 10.8824 8.51155 10.7283 8.66105C10.5743 8.81054 10.5077 8.90735 10.553 8.96322C10.5984 9.01909 10.6196 8.97836 10.6271 9.02666C10.633 9.07408 10.6304 9.12216 10.6196 9.16869C10.6014 9.24727 10.5713 9.32127 10.612 9.33641C10.7163 9.36967 10.8176 9.30653 10.8402 9.32585C10.8855 9.36658 10.8145 9.51319 10.9217 9.54187C11.0306 9.57175 11.1379 9.51618 11.1379 9.51618L11.5337 9.30314L11.9144 9.10226L12.1092 8.71692L12.0048 8.39513L11.9848 8.36186H11.9854Z" fill="#D4B968"/>
<path fill-rule="evenodd" clip-rule="evenodd" d="M11.6115 9.2813C11.6115 9.2813 11.545 9.18011 11.6266 9.09087C11.7083 9.00163 11.8245 8.96399 11.8698 8.90811C11.8612 8.89747 11.8496 8.88961 11.8366 8.8855C11.8667 8.83168 11.9125 8.78839 11.968 8.76151C11.9454 8.7389 11.9152 8.72077 11.882 8.72077C11.8079 8.72077 11.7625 8.76609 11.6945 8.76609C11.6281 8.76609 11.6205 8.73282 11.6205 8.73282C11.6205 8.73282 11.7324 8.72227 11.7217 8.67237C11.7112 8.61948 11.6919 8.61948 11.6919 8.61948C11.6919 8.61948 11.9079 8.52985 11.9456 8.48204C11.9834 8.43424 11.9789 8.37776 11.9865 8.35516C12.0121 8.35516 12.1617 8.27657 12.2221 8.30984C12.2826 8.3431 12.2402 8.43374 12.2402 8.43374C12.2402 8.43374 12.4232 8.29619 12.5164 8.16134C12.598 8.16891 12.6359 8.10547 12.6957 8.10547C12.7698 8.10547 12.8861 8.20666 12.9087 8.42268C12.9239 8.54658 12.9465 8.61759 12.9239 8.8367C12.9133 8.9606 12.9163 9.22513 12.9537 9.35639C12.9793 9.46067 13.0398 9.45011 13.0398 9.45011C13.0305 9.48189 13.0121 9.51025 12.9869 9.53168C12.9461 9.56943 12.9416 9.66923 12.9461 9.70697C12.9521 9.73457 12.9597 9.7618 12.9688 9.78854C12.9688 9.78854 12.9205 9.84441 12.9083 9.88226C12.8978 9.92001 12.848 9.9457 12.8116 9.9457C12.7753 9.9457 12.7935 9.94262 12.7452 9.9457C12.6969 9.94879 12.6817 9.95626 12.6515 9.9457C12.6212 9.93515 12.5986 9.923 12.6107 9.82619C12.6213 9.72948 12.2375 9.50439 12.2375 9.50439L11.6101 9.2808L11.6115 9.2813Z" fill="#CCA849"/>
<path fill-rule="evenodd" clip-rule="evenodd" d="M10.8911 10.2367C10.8911 10.2367 11.0286 10.4196 11.5937 10.4196C11.8626 10.4196 11.9563 10.3939 12.012 10.3788C12.0724 10.3636 12.299 10.2746 12.5272 10.0056C12.7327 9.76235 12.6873 9.66266 12.6873 9.66266L12.5678 9.64453L12.1794 9.69742L11.0301 10.1869L10.8906 10.2367H10.8911Z" fill="#585136"/>
<path fill-rule="evenodd" clip-rule="evenodd" d="M11.3118 10.2809C11.3118 10.2809 10.8223 10.3898 10.8223 10.08C10.8223 9.77786 11.1244 9.46054 11.2 9.40467C11.2786 9.3487 11.466 9.28516 11.466 9.28516H11.9177L12.0038 9.51333L11.966 10.0058L11.3118 10.2808V10.2809Z" fill="#252211"/>
<path fill-rule="evenodd" clip-rule="evenodd" d="M11.7636 9.37842C11.7636 9.37842 11.6699 9.29227 11.4569 9.4083C11.2439 9.52433 11.0716 9.76685 11.061 9.98705C11.0505 10.1819 11.2212 10.327 11.4871 10.3345C11.685 10.342 11.8044 10.3194 11.8648 10.3047C11.8497 10.2865 11.7711 10.1883 11.7711 10.1883L11.7637 9.37852L11.7636 9.37842Z" fill="#C3B378"/>
<path fill-rule="evenodd" clip-rule="evenodd" d="M11.6726 9.42641C11.6726 9.42641 11.65 9.40828 11.583 9.44453C11.5271 9.47441 11.4455 9.55339 11.3821 9.60926C11.3413 9.64253 11.3156 9.65757 11.2925 9.68326C11.1988 9.79511 11.1202 9.97797 11.1656 10.0686C11.211 10.1592 11.3605 10.2635 11.7413 10.1925L11.6715 9.42651L11.6726 9.42641Z" fill="#E6D89C"/>
<path fill-rule="evenodd" clip-rule="evenodd" d="M11.5474 9.61233C11.5474 9.61233 11.4869 9.70605 11.4869 9.85565C11.4869 10.0082 11.5731 10.2514 11.8904 10.2696C12.1336 10.2847 12.2967 9.91909 12.4735 9.77706C12.608 9.66831 12.6896 9.66522 12.6896 9.66522C12.6896 9.66522 12.5521 9.51582 12.185 9.32231C11.8224 9.1274 11.4159 9.10171 11.1953 9.40089C11.2996 9.39332 11.6365 9.30717 11.6365 9.30717L11.8013 9.36006L11.5474 9.61243V9.61233Z" fill="#252211"/>
<path fill-rule="evenodd" clip-rule="evenodd" d="M12.0221 9.81288C12.0115 9.79028 12.004 9.76 12.0478 9.75253C12.0916 9.74506 12.1112 9.74944 12.1264 9.78241C12.1415 9.81537 12.1563 9.84286 12.1339 9.85651C12.1112 9.86856 12.0523 9.85651 12.022 9.81268L12.0221 9.81288ZM11.9511 9.59985C11.9511 9.59985 11.936 9.6104 11.9435 9.58929C11.9465 9.56369 11.9662 9.51828 12.0145 9.52894C12.0628 9.53959 12.0524 9.59238 12.0444 9.60752C12.0364 9.62266 11.9961 9.64825 11.9658 9.6374C11.962 9.63641 11.9584 9.63454 11.9555 9.63193C11.9525 9.62932 11.9502 9.62604 11.9487 9.62236C11.9472 9.61869 11.9466 9.61471 11.947 9.61077C11.9473 9.60682 11.9486 9.60301 11.9507 9.59965L11.9511 9.59985Z" fill="#6F674D"/>
<path fill-rule="evenodd" clip-rule="evenodd" d="M7.86133 9.69505C7.86133 9.69505 7.98084 9.78469 8.11968 9.7812C8.25712 9.77811 8.43391 9.63619 8.51547 9.54546C8.56378 9.49257 8.60511 9.4367 8.64993 9.39288C8.68778 9.35513 8.71337 9.337 8.7315 9.31131C8.75719 9.28143 8.78438 9.22526 8.79803 9.20703C8.76476 9.23273 8.71646 9.27814 8.66656 9.30832C8.61826 9.3382 8.51398 9.39437 8.47165 9.40951C8.43092 9.42465 8.00783 9.64854 8.00783 9.64854L7.86133 9.69505Z" fill="#AC924C"/>
<path fill-rule="evenodd" clip-rule="evenodd" d="M8.04297 8.58011C8.04297 8.58011 8.1094 8.53479 8.23788 8.50601C8.36178 8.47613 8.61106 8.45312 8.61106 8.45312L8.81653 8.54276L8.8981 8.85251L8.74871 9.1744L8.55838 9.29391L8.34225 8.94642L8.04347 8.58071L8.04297 8.58011Z" fill="#9F8E57"/>
<path fill-rule="evenodd" clip-rule="evenodd" d="M7.77424 8.85519L7.70312 8.90828C7.70312 8.90828 7.72135 8.87501 7.73639 8.77382C7.75143 8.67263 7.83011 8.42633 7.94494 8.28431C8.05978 8.14229 8.05679 8.14985 8.05679 8.14985C8.04622 8.14792 8.03537 8.14826 8.02494 8.15086C8.01452 8.15345 8.00477 8.15824 7.99634 8.16489C8.01147 8.13143 8.10818 8.01191 8.20489 7.95216C8.3016 7.8924 8.33934 7.87358 8.44053 7.92228C8.54172 7.97098 8.56742 7.99628 8.64152 7.99329C8.71562 7.9903 8.77896 7.91172 8.77896 7.91172C8.77896 7.91172 8.7941 7.96003 8.73823 8.07187C8.68235 8.18372 8.46175 8.41179 8.46175 8.41179L8.00241 8.72602L7.77424 8.85549V8.85519Z" fill="#EAC970"/>
<path fill-rule="evenodd" clip-rule="evenodd" d="M8.11368 8.53925C8.11368 8.53925 8.44613 8.58457 8.54732 8.49095C8.55031 8.50151 8.56246 8.50151 8.56246 8.50908C8.56165 8.51478 8.55899 8.52006 8.55489 8.52412C8.5659 8.52236 8.57701 8.52136 8.58815 8.52113C8.60146 8.52509 8.61515 8.52763 8.62899 8.5287C8.64014 8.52846 8.65125 8.52742 8.66225 8.52561C8.6612 8.53312 8.65865 8.54034 8.65475 8.54684C8.65085 8.55335 8.64568 8.559 8.63955 8.56346C8.65469 8.56346 8.66943 8.56644 8.66943 8.57849C8.66943 8.59055 8.67241 8.6269 8.65429 8.63447C8.63927 8.63862 8.62329 8.63753 8.60897 8.63138C8.61017 8.65999 8.61794 8.68793 8.63168 8.71305C8.66156 8.76892 8.7253 8.83256 8.81095 8.81424C8.81095 8.81424 8.85617 8.923 8.66584 9.16472C8.64024 9.19798 8.61295 9.2433 8.57979 9.28104C8.56668 9.30961 8.55667 9.33949 8.54991 9.37018C8.54991 9.37018 8.8718 9.24629 8.96393 8.96373C9.05765 8.67968 9.07578 8.40022 9.05765 8.13888C9.05456 8.06478 9.04251 8.01199 9.02439 7.97415C8.97907 7.88043 8.85208 7.89557 8.80079 7.94845C8.72669 8.02255 8.6028 8.2068 8.43059 8.33369C8.25531 8.46057 8.24784 8.48308 8.11328 8.53925H8.11368Z" fill="#D7BC6B"/>
<path fill-rule="evenodd" clip-rule="evenodd" d="M7.71741 8.94941C7.71741 8.94941 7.65397 8.98715 7.6207 9.12868C7.58744 9.27369 7.65058 9.45048 7.68713 9.50635C7.72369 9.56222 7.80665 9.7149 7.97875 9.72247C8.02135 9.72225 8.06347 9.71351 8.10265 9.69678C8.16273 9.66923 8.21908 9.63419 8.27037 9.5925C8.34447 9.53663 8.40482 9.48832 8.39725 9.48374C8.37913 9.47617 7.941 9.11354 7.941 9.11354L7.77627 8.92969L7.71731 8.94961L7.71741 8.94941Z" fill="#585136"/>
<path fill-rule="evenodd" clip-rule="evenodd" d="M8.13061 9.55073C8.13061 9.55073 8.21975 9.54326 8.27263 9.50999C8.32552 9.47673 7.96289 9.11719 7.96289 9.11719L7.98859 9.50561L8.13061 9.55073Z" fill="#453A25"/>
<path fill-rule="evenodd" clip-rule="evenodd" d="M7.74603 8.92133C7.74603 8.92133 7.70071 9.00748 7.70071 9.03019C7.69315 9.10419 7.71585 9.33684 7.73398 9.41084C7.75211 9.48942 7.85031 9.60874 7.97729 9.60874C8.05577 9.60874 8.16463 9.56044 8.16463 9.54838C8.16463 9.53325 8.05279 9.51851 8.02261 9.46223C8.00448 9.43236 7.99691 9.35806 7.99273 9.28296C7.98974 9.23466 7.98974 9.18177 8.00787 9.16345C8.0487 9.11813 8.05617 8.98816 8.05617 8.98816L8.20118 8.71875H8.01046L7.78228 8.86077L7.74603 8.92133Z" fill="#84754B"/>
<path fill-rule="evenodd" clip-rule="evenodd" d="M7.68945 9.00584C7.68945 9.00584 7.83885 8.80794 7.9735 8.76252C8.10815 8.71711 8.16841 8.7444 8.16841 8.7444L8.08983 8.94538L7.97798 9.06928L7.98555 9.13272C7.98555 9.13272 7.96733 9.30044 8.07917 9.41677C8.19102 9.5331 8.27408 9.52861 8.32249 9.52861C8.37089 9.52861 8.50983 9.48778 8.58084 9.32006C8.64428 9.163 8.69717 8.96152 8.57028 8.75953C8.44628 8.55855 8.22727 8.55078 8.18494 8.55078C8.14261 8.55078 7.81026 8.56741 7.68945 9.00554V9.00584Z" fill="#252211"/>
<path fill-rule="evenodd" clip-rule="evenodd" d="M11.5238 9.67525C11.4679 9.64956 11.5208 9.4925 11.5767 9.44409C11.6325 9.39569 11.7035 9.33991 11.8275 9.33225C11.8728 9.32926 11.9166 9.35794 11.9091 9.38822C11.8986 9.44409 11.82 9.52267 11.749 9.57855C11.6508 9.65563 11.5872 9.70394 11.5238 9.67525Z" fill="#F7F7E7"/>
<path fill-rule="evenodd" clip-rule="evenodd" d="M8.50296 8.8205C8.54379 8.81751 8.59668 8.85038 8.60723 8.8946C8.61779 8.9429 8.58154 9.03961 8.50296 9.03961C8.43952 9.03961 8.40625 8.96103 8.40625 8.93842C8.40696 8.91983 8.41216 8.90169 8.42139 8.88554C8.42438 8.88096 8.43195 8.82807 8.50296 8.8205Z" fill="#F8F6DE"/>
<path fill-rule="evenodd" clip-rule="evenodd" d="M7.91379 8.85547C7.91379 8.85547 7.80951 8.90377 7.76121 9.00486C7.72669 9.07951 7.71625 9.16305 7.73133 9.24389C7.7389 9.28164 7.77664 9.37526 7.80234 9.40853C7.82804 9.44179 7.8628 9.4645 7.88849 9.46141C7.91419 9.45832 7.96697 9.3904 7.96697 9.34966C7.96697 9.30893 7.97006 9.13663 8.01986 9.04291C8.06368 8.94929 7.91409 8.85557 7.91409 8.85557L7.91379 8.85547Z" fill="#D4C38B"/>
<path fill-rule="evenodd" clip-rule="evenodd" d="M7.92872 8.84841C7.91059 8.85897 7.88041 8.87411 7.88788 8.89373C7.89545 8.91186 7.9589 8.92361 7.9816 8.96783C8.0073 9.01315 8.0073 9.06145 7.99973 9.08416C8.01947 9.07478 8.03737 9.06197 8.05262 9.04631C8.08588 9.00856 8.12662 8.95727 8.16137 8.95727C8.18408 8.95727 8.20669 8.96783 8.2279 8.96783C8.26117 8.96783 8.29433 8.95727 8.29892 8.92251C8.30639 8.8772 8.23547 8.83636 8.19464 8.84393C8.20221 8.81405 8.21277 8.76993 8.1795 8.73965C8.14624 8.70938 8.04206 8.76236 8.01935 8.7775C7.99664 8.79264 7.92872 8.84851 7.92872 8.84851V8.84841Z" fill="#E2D59D"/>
<path fill-rule="evenodd" clip-rule="evenodd" d="M10.3299 12.0231L10.5535 11.957L10.6169 12.0023C10.6169 12.0023 10.6621 12.0991 10.7333 12.1111C10.7105 12.1594 10.6516 12.2007 10.6547 12.235C10.6578 12.2693 10.6879 12.2955 10.6879 12.2955C10.6879 12.2955 10.487 12.6278 10.8828 12.9628C10.7891 13.0005 10.6698 13.0524 10.6064 13.0823C10.6516 13.0928 10.7483 13.1121 10.7891 13.1488C10.83 13.1854 10.83 13.1971 10.8677 13.2198C10.9055 13.2425 10.9281 13.2727 10.9206 13.2862C10.8949 13.2711 10.8087 13.2259 10.7937 13.2681C10.7787 13.3103 10.4205 13.2938 10.4205 13.2938L9.81617 13.4101C9.81617 13.4101 9.83878 13.3497 9.77534 13.2938C9.70134 13.2274 9.61071 13.2968 9.514 13.2228C9.38711 13.1261 9.38253 13.0142 9.3418 12.972C9.38253 12.9463 9.46569 12.9086 9.66359 12.8824C9.65602 12.8672 9.63033 12.8219 9.64546 12.7812C9.66359 12.7283 9.73909 12.695 9.71648 12.6318C9.74974 12.6242 9.76478 12.6242 9.84794 12.5199C9.92652 12.4157 9.97483 12.3931 10.0353 12.3855C10.0957 12.3779 10.132 12.3855 10.2438 12.2812C10.3223 12.2072 10.2967 12.1438 10.2967 12.1438C10.2967 12.1438 10.348 12.1271 10.33 12.0229L10.3299 12.0231Z" fill="#CBAC5A"/>
<path fill-rule="evenodd" clip-rule="evenodd" d="M9.66897 12.0556C9.67196 12.0405 9.68411 12.0329 9.76568 12.0405C9.84725 12.048 10.364 11.9922 10.5045 11.9846C10.6465 11.974 11.1466 11.9815 11.3899 12.0329C11.6332 12.0843 11.8794 12.1448 11.9987 12.1749C12.1182 12.2082 12.1559 12.2201 12.1513 12.2353C12.1483 12.2504 12.1214 12.2652 12.106 12.261C12.0909 12.258 11.6951 12.1371 11.5727 12.1116C11.4504 12.0861 11.0273 12.0179 10.7959 12.022C10.5799 12.025 10.4937 12.019 10.311 12.0401C10.1281 12.0628 9.82593 12.093 9.7353 12.0809C9.64567 12.0704 9.66419 12.0704 9.66877 12.0552L9.66897 12.0556Z" fill="#D6BC6F"/>
<path fill-rule="evenodd" clip-rule="evenodd" d="M10.8856 13.2404C10.8856 13.2404 11.1954 13.4082 11.3072 13.6136C11.3888 13.7662 11.2589 13.8418 11.2589 13.8418C11.2589 13.8418 11.4342 13.8418 11.4115 13.9385C11.4009 13.9989 11.1093 14.162 10.9144 14.2482C10.7165 14.3343 10.7241 14.3298 10.6274 14.3449C10.5336 14.36 10.2768 14.315 10.2239 14.3902C10.171 14.4654 10.194 14.5429 10.2088 14.5549C10.2239 14.5655 10.3463 14.5806 10.3463 14.5806C10.3463 14.5806 10.3206 14.6516 10.0668 14.6592C9.81307 14.6668 9.74953 14.6848 9.73439 14.7121C9.71925 14.7377 9.78269 14.7226 9.89912 14.7419C10.0155 14.7601 10.1786 14.7718 10.1786 14.7718C10.1786 14.7718 10.1257 14.8171 9.98826 14.8534C9.8311 14.8941 9.5848 14.932 9.5108 14.9773C9.54854 15.003 9.60452 15.0407 9.63031 15.0437C9.56687 15.0589 9.47763 15.0921 9.46259 15.1042C9.4852 15.1193 9.51548 15.1374 9.51548 15.1374C9.51548 15.1374 9.38849 15.29 9.31449 15.3279C9.24049 15.3657 8.81442 15.5635 8.66782 15.5258C8.3022 15.4291 8.25688 15.0287 8.16775 14.9985C8.03329 14.9532 7.96985 15.0437 7.85043 14.9803C7.90332 14.9425 7.9321 14.9199 7.98798 14.8942C7.92752 14.8644 7.61479 14.6661 7.61479 14.6661C7.58209 14.5948 7.54579 14.5252 7.50603 14.4576C7.44558 14.3533 7.35664 14.2143 7.28991 14.0919C7.1449 13.823 7.13733 13.6991 7.00586 13.5465C7.02857 13.5166 7.10705 13.5208 7.10705 13.5208L8.20858 13.8834L10.1618 13.94L10.6697 13.2148L10.8857 13.2405L10.8856 13.2404Z" fill="#DFC677"/>
<path fill-rule="evenodd" clip-rule="evenodd" d="M7.99219 14.3451C8.00397 14.3582 8.01771 14.3694 8.03292 14.3784C8.07077 14.4041 8.12664 14.4343 8.16439 14.4796C8.17953 14.4569 8.21727 14.4161 8.2839 14.4796C8.35053 14.543 8.4333 14.4978 8.48479 14.5128C8.53767 14.531 8.54066 14.5385 8.54066 14.5385C8.54066 14.5385 8.57054 14.5128 8.63737 14.4856C8.6782 14.4705 8.72651 14.4599 8.77939 14.4449C8.8277 14.4343 8.88058 14.4192 8.91694 14.4192C8.9502 14.4418 9.06952 14.5686 9.54847 14.3814C10.0002 14.2062 10.1044 14.1865 10.18 14.2136C10.1876 14.1955 10.1952 14.1607 10.3115 14.1653C10.3115 14.117 10.2148 13.9523 10.2148 13.9523L9.68143 13.7695H9.38972L8.51497 13.9297L8.03023 14.2063L7.99249 14.3457L7.99219 14.3451Z" fill="#C4A859"/>
<path fill-rule="evenodd" clip-rule="evenodd" d="M7.70117 14.039C7.70117 14.039 7.71173 14.1205 7.83264 14.2067C7.95215 14.2927 7.9897 14.3441 7.9897 14.3441C7.9897 14.3441 8.01241 14.3142 8.03054 14.2838C8.04866 14.2505 8.0638 14.2128 8.09398 14.2022C8.15443 14.1765 8.29188 14.2248 8.32215 14.2172C8.34785 14.2098 8.34028 14.1569 8.36747 14.1569C8.43091 14.1538 8.47165 14.1976 8.49435 14.1976C8.51706 14.1976 8.57284 14.1946 8.5804 14.1826C8.58797 14.1705 8.59096 14.045 8.67711 13.9846C8.77083 13.9182 8.88567 13.9468 8.91614 13.962C8.91614 13.9846 8.91913 14.0406 8.97959 14.0435C9.04004 14.0465 9.04602 14.036 9.0991 14.0541C9.15219 14.0722 9.21543 14.0511 9.24411 14.1402C9.26981 14.1327 9.33026 14.1251 9.31512 14.039C9.345 14.0164 9.3711 14.0012 9.43464 13.9121C9.44978 13.8895 9.47537 13.8638 9.49509 13.8305C9.54798 13.8305 9.61142 13.82 9.69598 13.894C9.67028 13.9121 9.65514 13.9238 9.64768 13.9423C9.66979 13.9642 9.68998 13.9879 9.70803 14.0133C9.73074 14.0431 9.74588 14.0798 9.77456 14.0874C9.838 14.1055 9.94228 14.0798 10.0586 14.0874C10.1705 14.0949 10.2641 14.1357 10.3049 14.1614C10.32 14.1539 10.32 14.1508 10.3578 14.1584C10.3955 14.1659 10.4242 14.1689 10.3835 14.1206C10.4061 14.1312 10.4318 14.1539 10.4545 14.1312C10.4772 14.1085 10.4952 14.0753 10.5587 14.0677C10.6221 14.0602 10.6448 14.0707 10.6705 14.0043C10.7038 13.9227 10.589 13.9227 10.589 13.9227C10.589 13.9227 10.6418 13.8743 10.7008 13.8109C10.7718 13.7445 10.8534 13.6583 10.873 13.5525C10.9063 13.3576 10.7159 13.332 10.7159 13.332L9.79279 13.6161L8.66417 13.5601L7.70177 14.0391L7.70117 14.039Z" fill="#927D49"/>
<path fill-rule="evenodd" clip-rule="evenodd" d="M6.87134 11.3703C6.87134 11.3703 6.84146 11.408 6.82304 11.4972C6.80461 11.5863 6.81248 11.5758 6.79734 11.6392C6.7822 11.7026 6.59626 12.3342 6.66597 12.5472C6.73569 12.7603 6.8564 12.8388 6.93189 13.011C6.94703 13.0488 6.96177 13.0715 6.96964 13.1048C6.99534 13.2165 6.97273 13.3027 7.00291 13.4145C7.01346 13.4523 7.04075 13.4961 7.08149 13.5414C7.17112 13.635 7.31723 13.7241 7.38027 13.7876C7.46931 13.8813 7.5963 14.0717 7.75794 14.0898C7.84409 14.1003 7.9665 14.0641 8.06769 14.0037C8.15732 13.9477 8.2127 13.8693 8.30672 13.8244C8.37315 13.7912 8.44416 13.7791 8.5076 13.764C8.63907 13.7383 8.75848 13.7341 8.8295 13.7488C8.93825 13.7716 9.19511 13.8501 9.33743 13.8501C9.44865 13.8483 9.55923 13.8331 9.6668 13.8048C9.88282 13.7414 10.1442 13.6325 10.3165 13.5842C10.4177 13.5543 10.4992 13.5465 10.5824 13.5283C10.7244 13.4951 10.8437 13.4498 10.9117 13.3636C10.8664 13.3107 10.8106 13.2292 10.5083 13.2321C10.1654 13.2397 9.76948 13.43 9.57457 13.4603C9.37966 13.4906 9.29511 13.5162 9.07749 13.4376C8.86416 13.3582 8.85708 13.3057 8.85708 13.3057C8.85708 13.3057 8.63309 13.1491 8.53937 12.7497C8.44565 12.3503 8.53937 12.0593 8.78269 11.7827C8.84613 11.7117 8.83099 11.6483 8.83099 11.6483C8.83099 11.6483 8.99114 11.4322 8.94732 11.23C8.89901 11.029 8.58927 11.0698 8.58927 11.0698L6.87144 11.3703H6.87134Z" fill="#6E6342"/>
<path fill-rule="evenodd" clip-rule="evenodd" d="M7.12966 12.043C7.11634 12.068 7.11008 12.0962 7.11154 12.1245C7.11452 12.1653 7.12667 12.2182 7.24898 12.3376C7.35325 12.4418 7.33055 12.5581 7.33055 12.5581C7.33055 12.5581 7.38303 12.5686 7.52546 12.502C7.6373 12.4491 7.67485 12.5428 7.67485 12.5428C7.70741 12.5258 7.7427 12.5145 7.77913 12.5096C7.81213 12.5065 7.84408 12.4963 7.87275 12.4797C7.87275 12.4797 8.00421 12.6142 8.11905 12.6776C8.22333 12.7336 8.28378 12.7713 8.33517 12.7336C8.38348 12.7003 8.38348 12.6323 8.38039 12.6021C8.3684 12.5742 8.35323 12.5479 8.33517 12.5235C8.30191 12.4752 8.24902 12.4192 8.24553 12.3741C8.23797 12.2699 8.32412 12.146 8.30589 12.1158C8.28766 12.0856 8.21984 12.078 8.05212 12.1385C7.87842 12.1958 7.12896 12.0433 7.12896 12.0433L7.12966 12.043Z" fill="#39331F"/>
<path fill-rule="evenodd" clip-rule="evenodd" d="M7.52518 12.7197C7.52518 12.7197 7.43913 12.6381 7.46931 12.2422C7.50584 12.2417 7.54232 12.2452 7.57807 12.2528C7.57807 12.2528 7.62498 12.5596 7.52518 12.7197Z" fill="#292311"/>
<path fill-rule="evenodd" clip-rule="evenodd" d="M6.91147 11.069C6.92347 11.0601 6.93461 11.0501 6.94473 11.0391C6.91485 11.095 6.77691 11.3186 6.88876 11.6707C7.00061 12.0211 7.28157 12.2825 7.62756 12.2946C7.97356 12.3068 8.15542 12.1375 8.36338 11.8837C8.44495 11.7825 8.53867 11.6555 8.62173 11.5695C8.74563 11.4349 8.84234 11.3972 8.84234 11.2673C8.84234 11.0014 8.57034 10.882 8.16996 10.7626C7.76959 10.6433 7.40845 10.6581 7.22111 10.7397C7.03835 10.8288 6.95977 10.9225 6.91137 11.0691L6.91147 11.069Z" fill="#252211"/>
<path fill-rule="evenodd" clip-rule="evenodd" d="M8.19756 12.8386L8.22744 12.8234C8.22744 12.8234 8.23491 12.7039 8.28332 12.7071C8.33162 12.7147 8.35433 12.7782 8.34975 12.8008C8.34676 12.8234 8.33471 12.8613 8.2863 12.8567C8.22286 12.8582 8.19727 12.8386 8.19727 12.8386H8.19756Z" fill="#3F3824"/>
<path fill-rule="evenodd" clip-rule="evenodd" d="M8.0625 12.3296C8.0625 12.3296 8.09238 12.319 8.12893 12.3553C8.15881 12.3553 8.28908 12.3401 8.32992 12.3658C8.37075 12.3915 8.3828 12.4141 8.3828 12.4141C8.3828 12.4141 8.23022 12.4474 8.14706 12.4141C8.0625 12.3854 8.0625 12.3296 8.0625 12.3296Z" fill="#2D2815"/>
<path fill-rule="evenodd" clip-rule="evenodd" d="M8.73671 12.3537C8.73671 12.3461 8.65514 12.2903 8.56899 12.272C8.55385 12.269 8.55077 12.2796 8.53911 12.2796C8.53154 12.2766 8.52856 12.2539 8.52856 12.2539L8.47956 12.2797C8.47956 12.2797 8.47199 12.2903 8.49768 12.3096C8.52029 12.3277 8.55814 12.3428 8.56869 12.373C8.57925 12.4032 8.57925 12.4138 8.58383 12.4183C8.58682 12.4213 8.63971 12.4183 8.6654 12.4032C8.6911 12.3881 8.7395 12.3634 8.73641 12.3534L8.73671 12.3537Z" fill="#82764F"/>
<path fill-rule="evenodd" clip-rule="evenodd" d="M7.97266 12.6599C7.97266 12.6599 7.9877 12.5558 8.08898 12.5512C8.19316 12.5436 8.21288 12.6448 8.21288 12.6448L8.15243 12.7053C8.15243 12.7038 8.10711 12.6403 7.97315 12.6599H7.97266Z" fill="#2D2816"/>
<path fill-rule="evenodd" clip-rule="evenodd" d="M8.63079 12.2135C8.63079 12.2135 8.57481 12.274 8.45101 12.2921C8.44046 12.277 8.41775 12.2468 8.45101 12.1985C8.48428 12.1502 8.52203 12.1351 8.55977 12.1501C8.57643 12.1528 8.59196 12.1602 8.60455 12.1715C8.61713 12.1827 8.62623 12.1973 8.63079 12.2135Z" fill="#574F35"/>
<path fill-rule="evenodd" clip-rule="evenodd" d="M8.85763 12.2874C8.86071 12.2723 8.85016 12.2693 8.85763 12.2617C8.8651 12.2541 8.90603 12.2391 8.9136 12.2466C8.91659 12.2497 8.9136 12.2617 8.9136 12.2765C8.9136 12.2912 8.9136 12.3063 8.90603 12.3172C8.89547 12.3323 8.8653 12.3399 8.85016 12.3354C8.83502 12.3309 8.83203 12.3097 8.83203 12.3055C8.8395 12.3025 8.85763 12.295 8.85763 12.2874ZM9.11558 12.1243C9.11558 12.1167 9.14128 12.1016 9.15641 12.1016C9.17902 12.1016 9.17902 12.1197 9.18211 12.1243C9.18958 12.1273 9.18958 12.1212 9.19715 12.1348C9.20472 12.1485 9.21538 12.1726 9.20771 12.1877C9.20004 12.2029 9.16996 12.2133 9.16249 12.2103C9.15193 12.2028 9.11867 12.1348 9.11558 12.1243Z" fill="#82764F"/>
<path fill-rule="evenodd" clip-rule="evenodd" d="M8.59766 12.3204C8.59766 12.3204 8.63092 12.3279 8.67624 12.3657C8.6611 12.3763 8.63839 12.3883 8.63839 12.3883C8.63839 12.3883 8.6354 12.3536 8.59766 12.3203V12.3204Z" fill="#6E6342"/>
<path fill-rule="evenodd" clip-rule="evenodd" d="M8.52268 11.9858C8.51511 11.9783 8.54529 11.9602 8.56341 11.9632C8.58154 11.9662 8.58911 11.9783 8.60873 11.9813C8.62835 11.9843 8.63144 11.9737 8.63861 11.9662C8.64578 11.9586 8.67187 11.9632 8.67636 11.9662C8.67915 11.9695 8.68168 11.973 8.68392 11.9767C8.68424 11.971 8.68574 11.9654 8.68833 11.9602C8.69092 11.9551 8.69454 11.9505 8.69896 11.9468C8.70476 11.9426 8.71144 11.9397 8.71851 11.9384C8.72559 11.9371 8.73286 11.9374 8.7398 11.9393C8.74279 11.9498 8.75792 11.9876 8.75494 11.9952C8.75195 12.0027 8.70663 12.0134 8.69896 12.0057C8.70653 12.0239 8.7398 12.0617 8.74428 12.0692C8.74876 12.0766 8.71102 12.0948 8.69598 12.0919C8.67486 12.0904 8.54489 12.0148 8.52228 11.9861L8.52268 11.9858ZM8.72058 11.735C8.71778 11.7274 8.71243 11.721 8.70544 11.7169C8.69488 11.7139 8.66012 11.7169 8.66012 11.735C8.66012 11.7531 8.69 11.8545 8.72356 11.9073C8.76141 11.9602 8.78701 12.0039 8.8127 12.0161C8.82077 12.0197 8.82993 12.0202 8.83834 12.0174C8.84675 12.0146 8.85378 12.0087 8.85802 12.0009C8.86101 11.9934 8.86858 11.9375 8.86559 11.806C8.8626 11.6746 8.85802 11.5477 8.85045 11.5401C8.84288 11.5325 8.8127 11.5326 8.80215 11.5477C8.79159 11.5627 8.72356 11.7124 8.72048 11.735H8.72058Z" fill="#585136"/>
<path fill-rule="evenodd" clip-rule="evenodd" d="M8.58518 12.5107C8.58518 12.5107 8.53229 12.4774 8.4809 12.5001C8.4326 12.5228 8.43558 12.612 8.43558 12.612C8.44645 12.6162 8.45819 12.6178 8.46979 12.6164C8.48138 12.6151 8.49248 12.611 8.50211 12.6044C8.53538 12.5818 8.57761 12.544 8.58518 12.5108V12.5107Z" fill="#574F35"/>
<path fill-rule="evenodd" clip-rule="evenodd" d="M8.68613 12.6299C8.68314 12.6 8.65625 12.6 8.65625 12.5846C8.6581 12.5772 8.66238 12.5706 8.66839 12.566C8.6744 12.5613 8.68181 12.5588 8.68942 12.5589C8.70455 12.5589 8.71929 12.577 8.73782 12.5887C8.75595 12.5993 8.78314 12.6186 8.78612 12.6416C8.78911 12.6646 8.75624 12.7277 8.71969 12.7277C8.68314 12.7277 8.694 12.6596 8.68643 12.6295L8.68613 12.6299ZM8.97775 12.589C8.97775 12.589 8.91729 12.6072 8.92177 12.589C8.92625 12.5709 8.94 12.5664 8.95962 12.5664C8.96959 12.556 8.983 12.5495 8.99737 12.5482C9.00559 12.5478 9.01366 12.5505 9.01997 12.5558C9.01997 12.5558 9.06081 12.5376 9.07286 12.5482C9.08491 12.5588 9.07595 12.5588 9.08342 12.5709C9.09293 12.5844 9.09917 12.5999 9.10164 12.6162C9.10164 12.6283 9.05633 12.654 9.01997 12.6495C8.97775 12.6404 8.98522 12.5966 8.97775 12.589ZM9.32972 12.521C9.32972 12.521 9.34784 12.5316 9.33281 12.5437C9.32225 12.5543 9.26936 12.5736 9.22395 12.577C9.17863 12.577 9.1379 12.5845 9.1379 12.5694C9.1379 12.5544 9.17564 12.5241 9.19825 12.5165C9.20279 12.5108 9.20854 12.5063 9.2151 12.5031C9.22165 12.5 9.22883 12.4984 9.2361 12.4984C9.25422 12.4984 9.32514 12.4908 9.34486 12.4878C9.36298 12.4848 9.37812 12.4953 9.36746 12.5105C9.36298 12.521 9.32972 12.521 9.32972 12.521ZM9.434 12.0545C9.434 12.0545 9.41129 12.1028 9.38569 12.1028C9.35999 12.0998 9.35999 12.0922 9.35999 12.0847C9.35999 12.0741 9.38569 12.0469 9.3826 12.0394C9.37513 12.0394 9.35691 12.0394 9.35999 12.0212C9.35999 12.0061 9.38569 11.988 9.4083 11.9914C9.42538 11.9773 9.44665 11.9694 9.46875 11.9688C9.49445 11.9687 9.51706 11.9762 9.51706 11.9914C9.51706 12.0065 9.48718 12.0397 9.47622 12.0473C9.46417 12.0594 9.44903 12.0673 9.434 12.0548V12.0545ZM9.08949 12.9474C9.08949 12.9474 9.05961 12.9505 9.05961 12.9655C9.05961 12.9731 9.06708 12.9731 9.07774 12.9686C9.08388 12.9682 9.08996 12.9672 9.09587 12.9655C9.09885 12.9686 9.09885 12.9836 9.12156 12.9836C9.14021 12.9811 9.15818 12.975 9.17445 12.9655C9.19257 12.958 9.20771 12.9504 9.20771 12.9356C9.20014 12.9099 9.18501 12.8978 9.1624 12.8978C9.15081 12.897 9.13926 12.8997 9.12913 12.9054C9.12913 12.9054 9.12156 12.8902 9.09587 12.9054C9.07017 12.9205 9.07316 12.9205 9.08073 12.9281C9.09427 12.9401 9.08979 12.948 9.08979 12.948L9.08949 12.9474ZM8.91878 13.1045C8.91878 13.097 8.95653 13.0818 8.96709 13.0864C8.97765 13.0894 9.00782 13.1468 9.00782 13.1528C9.00782 13.1604 8.97008 13.1785 8.95494 13.1785C8.9398 13.1785 8.9142 13.1528 8.9142 13.1487C8.9142 13.1457 8.93233 13.1412 8.93233 13.1381C8.93681 13.1306 8.91878 13.1124 8.91878 13.1048V13.1045ZM8.79927 12.8839C8.80684 12.8809 8.80684 12.8734 8.8174 12.8658C8.8207 12.8636 8.82447 12.8622 8.8284 12.8617C8.83234 12.8612 8.83634 12.8616 8.8401 12.8628C8.84277 12.8581 8.84646 12.854 8.8509 12.8508C8.85534 12.8477 8.86043 12.8455 8.8658 12.8446C8.88393 12.8416 8.89906 12.8446 8.89568 12.8522C8.89568 12.8749 8.91082 12.8899 8.91082 12.908C8.91082 12.9262 8.90026 12.9489 8.86251 12.964C8.82477 12.9746 8.77337 12.9746 8.76581 12.9716C8.75824 12.9686 8.75067 12.9383 8.75824 12.9232C8.76581 12.908 8.78692 12.8915 8.79907 12.8839H8.79927Z" fill="#82764F"/>
<path fill-rule="evenodd" clip-rule="evenodd" d="M8.84709 12.8945C8.84709 12.8945 8.8214 12.9097 8.8214 12.9172C8.81912 12.9245 8.81811 12.9322 8.81841 12.9398C8.81841 12.9443 8.85168 12.9369 8.85616 12.9323C8.85765 12.9293 8.84709 12.9024 8.84709 12.8945Z" fill="#6E6342"/>
<path fill-rule="evenodd" clip-rule="evenodd" d="M8.62333 12.8243C8.63837 12.8274 8.66406 12.8243 8.68368 12.8319C8.69882 12.8394 8.70938 12.8546 8.69424 12.8727C8.6791 12.8908 8.66436 12.918 8.6308 12.9134C8.59305 12.9105 8.5568 12.8908 8.5568 12.8757C8.55616 12.8661 8.55744 12.8565 8.56055 12.8474C8.56366 12.8384 8.56855 12.83 8.57493 12.8228C8.59006 12.8108 8.59753 12.8183 8.62323 12.8243H8.62333Z" fill="#585136"/>
<path fill-rule="evenodd" clip-rule="evenodd" d="M8.60447 12.8398C8.60447 12.8398 8.55617 12.8776 8.54402 12.8958C8.52888 12.9139 8.45488 13.0076 8.43227 13.0272C8.43978 13.0139 8.44834 13.0013 8.45787 12.9894C8.42799 13.0085 8.40559 13.0373 8.39442 13.071C8.3763 13.127 8.49571 13.1572 8.57419 13.1799C8.65268 13.2026 8.68305 13.2097 8.68305 13.2097C8.65416 13.1663 8.62935 13.1203 8.60895 13.0723C8.57907 13.0013 8.56364 12.9937 8.58326 12.9605C8.5984 12.9272 8.6211 12.9046 8.6211 12.8789C8.61204 12.855 8.60447 12.8398 8.60447 12.8398Z" fill="#574F35"/>
<path fill-rule="evenodd" clip-rule="evenodd" d="M6.88106 12.9588C6.89205 12.9608 6.90333 12.9608 6.91432 12.9588C6.93693 12.9557 7.17268 12.8691 7.41898 12.8847C7.60336 12.8958 7.78611 12.9259 7.96436 12.9743C8.27411 13.0559 8.65934 13.2175 8.90863 13.3098C8.97506 13.3353 9.0401 13.3808 9.08791 13.3988C9.27833 13.4729 9.2858 13.4729 9.39765 13.4925C9.52912 13.5106 9.66357 13.4668 9.8041 13.4366C9.9763 13.3988 10.2709 13.3807 10.5293 13.3429C10.6128 13.3313 10.6952 13.3126 10.7756 13.287C10.7756 13.287 10.5701 13.4925 10.0775 13.5665C9.87838 13.5967 9.67604 13.5993 9.47623 13.5741C9.31907 13.5589 9.21489 13.5362 9.13631 13.5136C9.04717 13.4879 8.86431 13.4199 8.63923 13.3642C8.48206 13.3234 8.30677 13.2932 8.10589 13.2555C7.6103 13.1647 7.07248 13.0606 6.88086 12.9594L6.88106 12.9588Z" fill="#252211"/>
<path fill-rule="evenodd" clip-rule="evenodd" d="M6.32588 12.0234C6.20637 12.1246 6.07958 12.2213 5.95578 12.315L5.5826 12.6017C5.45571 12.6953 5.33182 12.792 5.20483 12.8857C5.07785 12.9795 4.95106 13.0685 4.81641 13.1546C4.93592 13.0535 5.06271 12.9597 5.18959 12.8676C5.31648 12.7755 5.44804 12.6852 5.57045 12.5917L5.94363 12.3046C6.07201 12.211 6.19591 12.1143 6.32588 12.0236V12.0234ZM5.66566 13.081C5.66566 13.081 5.80012 12.9692 5.96784 12.8121C6.17629 12.6173 6.43165 12.3679 6.51322 12.3227L5.66556 13.0811L5.66566 13.081Z" fill="#CFB66C"/>
<path fill-rule="evenodd" clip-rule="evenodd" d="M5.66602 13.0818C5.73255 13.0154 5.80356 12.9505 5.87457 12.8869L5.98333 12.7933C6.01659 12.7634 6.05444 12.7299 6.08761 12.6966C6.15404 12.6302 6.21907 12.559 6.2855 12.4911C6.31843 12.457 6.35324 12.4247 6.38978 12.3944C6.40805 12.3782 6.42833 12.3645 6.45013 12.3536C6.46836 12.343 6.48798 12.3237 6.51358 12.3203C6.49854 12.343 6.48041 12.3536 6.46527 12.3732C6.44715 12.3883 6.43201 12.4065 6.41697 12.4215C6.3837 12.4548 6.34596 12.4849 6.31269 12.5152C6.24168 12.5757 6.16768 12.6347 6.09667 12.698C6.02566 12.7612 5.95923 12.8294 5.88811 12.8929C5.81113 12.9579 5.74012 13.0214 5.66602 13.0821V13.0818ZM6.56955 12.4775C6.56955 12.4775 6.07705 12.9595 5.97576 13.038L6.56955 12.4775Z" fill="#CFB66C"/>
<path fill-rule="evenodd" clip-rule="evenodd" d="M6.57035 12.4766C6.52605 12.5278 6.47855 12.5763 6.42813 12.6216L6.27874 12.7636C6.23043 12.8119 6.18502 12.8603 6.13372 12.9086C6.08084 12.9539 6.03254 12.9982 5.97656 13.0401L6.12157 12.8981C6.16998 12.8497 6.22286 12.809 6.27425 12.7606L6.41927 12.6186C6.46906 12.5688 6.51747 12.5204 6.57035 12.4766ZM6.59296 12.7379C6.54756 12.8646 6.49407 12.9883 6.43281 13.1081C6.30593 13.362 6.1156 13.6792 6.03244 13.8409L6.59296 12.7379Z" fill="#CFB66C"/>
<path fill-rule="evenodd" clip-rule="evenodd" d="M6.59224 12.7383C6.59224 12.7942 6.5771 12.8426 6.55897 12.8909C6.5413 12.9392 6.52116 12.9866 6.49861 13.0329C6.47591 13.0782 6.45021 13.1266 6.42452 13.1704C6.39882 13.2143 6.36864 13.2595 6.34593 13.3049L6.19335 13.5738C6.14047 13.6634 6.08908 13.7536 6.0332 13.8397C6.07095 13.743 6.12234 13.6524 6.17075 13.5632C6.22363 13.4736 6.27193 13.384 6.32014 13.2912C6.34367 13.245 6.36485 13.1977 6.38358 13.1493C6.40619 13.1009 6.4288 13.0556 6.44702 13.0118C6.46963 12.9635 6.48776 12.9181 6.51047 12.8743C6.53606 12.8274 6.55728 12.7821 6.59204 12.7383H6.59224Z" fill="#CFB66C"/>
<path fill-rule="evenodd" clip-rule="evenodd" d="M7.12965 13.9766C7.12965 13.9766 6.98025 14.1745 6.99519 14.4252C7.03593 14.2939 7.08732 14.0929 7.12965 13.9766ZM7.27167 14.175C7.27167 14.175 7.21878 14.7128 7.17496 14.9772C7.23691 14.6715 7.24896 14.6972 7.27167 14.175ZM8.26125 15.009C8.26125 15.009 8.03766 15.6663 8.03308 15.849C8.08148 15.6611 8.1751 15.2774 8.26125 15.0085V15.009Z" fill="#DEC270"/>
<path fill-rule="evenodd" clip-rule="evenodd" d="M8.78516 13.9375C8.78516 13.9375 9.14779 14.5358 9.41978 15.0464C9.34618 14.7894 9.17687 14.3182 8.78516 13.9375Z" fill="#CBAF59"/>
<path fill-rule="evenodd" clip-rule="evenodd" d="M9.75977 14.8203C9.95887 15.1723 10.1384 15.5349 10.2976 15.9066C10.2674 15.6497 10.1857 15.2101 9.75977 14.8203Z" fill="#E3C677"/>
<path fill-rule="evenodd" clip-rule="evenodd" d="M12.6223 15.7002C12.6826 15.6625 12.802 15.4569 12.9063 15.4056C13.0105 15.3527 13.0891 15.3422 13.1828 15.2379C13.2764 15.129 13.3023 15.0626 13.5076 14.9765C13.7947 14.8525 13.5972 14.6924 13.5972 14.6924C13.6288 14.6613 13.6627 14.6326 13.6984 14.6063C13.7725 14.5505 13.8586 14.4824 13.8511 14.363C13.8405 14.1621 13.8028 13.8705 13.6381 13.7013C13.7982 13.6681 14.1049 13.6454 14.2954 13.5971C14.5159 13.5412 14.6172 13.4626 14.6172 13.4626C14.6172 13.4626 14.4903 13.2466 14.6958 13.029C14.9012 12.8115 15.069 12.6816 15.1928 12.4382C15.0508 12.4201 14.8343 12.3446 14.2817 12.5546C14.3116 12.5686 14.3404 12.5847 14.3679 12.6029C14.3679 12.6029 14.028 12.6966 13.9041 12.8009C13.688 12.9836 13.6608 13.1332 13.4266 13.2451C13.1925 13.3569 12.9567 13.3266 12.7619 13.4173C12.5671 13.5079 12.5383 13.585 12.4672 13.6183C12.4823 13.6364 12.4642 13.6666 12.4929 13.6923C12.4748 13.7179 12.369 13.8902 12.2617 13.8902C12.2723 13.931 12.3629 13.9612 12.3629 13.9612C12.3629 13.9612 12.2965 14.0096 12.1273 14.0216C12.2133 14.1113 12.295 14.209 12.5201 14.351C12.502 14.3887 12.4264 14.4447 12.4566 14.5157C12.4899 14.5867 12.5762 14.6834 12.9205 14.762C12.7452 14.7695 12.5398 14.8103 12.2631 14.7726C11.9867 14.7393 11.9413 14.7197 11.7706 14.762C11.7888 14.7801 11.8371 14.7801 11.8794 14.8284C11.8341 14.8314 11.55 14.7952 11.4533 14.9222C11.3521 15.0535 11.3083 15.2697 11.3159 15.4147C11.263 15.4404 11.2116 15.4857 11.2373 15.5794C11.263 15.6731 11.3974 15.7033 11.4836 15.7622C11.5696 15.8256 11.5772 15.8482 11.6589 15.8332C11.7449 15.815 11.8718 15.729 11.9459 15.729C12.02 15.729 12.0728 15.7849 12.0728 15.7849C12.0728 15.7849 12.2738 15.6882 12.2934 15.7063C12.3115 15.7244 12.2964 15.8407 12.316 15.8589C12.3359 15.8725 12.5623 15.7381 12.6228 15.7002H12.6223Z" fill="#ECD592"/>
<path fill-rule="evenodd" clip-rule="evenodd" d="M17.0148 9.6559C16.0705 7.21739 13.7362 6.76562 13.7362 6.76562H7.07627L7.10197 9.24945H8.42829V14.7958H7.07617V17.2752H13.5518C15.1125 17.2752 16.3635 15.7069 16.3635 15.7069C18.3669 12.8635 17.0147 9.6559 17.0147 9.6559H17.0148ZM13.5866 14.0358C13.5866 14.0358 13.0786 14.7687 12.526 14.7687H11.4204L11.3943 9.25552H12.813C12.813 9.25552 13.4703 9.39297 13.9296 10.6938C13.9296 10.6938 14.5384 12.5562 13.5866 14.0358Z" fill="white" fill-opacity="0.8"/>
</g>
</g>
<defs>
<clipPath id="clip0_46573_41595">
<rect width="18.6742" height="18.6742" fill="white" transform="translate(2.54297 2.61328)"/>
</clipPath>
<clipPath id="clip1_46573_41595">
<rect width="18.6742" height="18.6742" fill="white" transform="translate(2.54297 2.61328)"/>
</clipPath>
</defs>
</svg>
