<svg width="25" height="25" viewBox="0 0 25 25" fill="none" xmlns="http://www.w3.org/2000/svg">
<path d="M0.761719 5.61388C0.761719 3.0355 2.8519 0.945312 5.43028 0.945312H19.436C22.0143 0.945312 24.1045 3.0355 24.1045 5.61387V19.6196C24.1045 22.1979 22.0143 24.2881 19.436 24.2881H5.43027C2.8519 24.2881 0.761719 22.1979 0.761719 19.6196V5.61388Z" fill="#E5E5E5"/>
<g clip-path="url(#clip0_46573_41602)">
<path d="M12.4328 21.9555C17.5896 21.9555 21.7699 17.7751 21.7699 12.6184C21.7699 7.46162 17.5896 3.28125 12.4328 3.28125C7.27607 3.28125 3.0957 7.46162 3.0957 12.6184C3.0957 17.7751 7.27607 21.9555 12.4328 21.9555Z" fill="#23292F"/>
<path d="M16.5592 7.94922H18.2457L14.7355 11.4255C14.1218 12.0302 13.2949 12.3691 12.4334 12.3691C11.5718 12.3691 10.7449 12.0302 10.1312 11.4255L6.61808 7.94922H8.30752L10.9744 10.5887C11.3628 10.972 11.8865 11.187 12.4322 11.187C12.9779 11.187 13.5016 10.972 13.8899 10.5887L16.5592 7.94922ZM8.28709 17.6149H6.59766L10.1312 14.1176C10.7449 13.5129 11.5718 13.174 12.4334 13.174C13.2949 13.174 14.1218 13.5129 14.7355 14.1176L18.2691 17.6143H16.5796L13.8923 14.9521C13.5039 14.5687 12.9802 14.3538 12.4345 14.3538C11.8888 14.3538 11.3651 14.5687 10.9768 14.9521L8.28651 17.6149H8.28709Z" fill="white"/>
</g>
<defs>
<clipPath id="clip0_46573_41602">
<rect width="18.6742" height="18.6742" fill="white" transform="translate(3.0957 3.28125)"/>
</clipPath>
</defs>
</svg>
