<svg width="24" height="24" viewBox="0 0 24 24" fill="none" xmlns="http://www.w3.org/2000/svg">
<path d="M0.65625 4.66857C0.65625 2.09019 2.74644 0 5.32481 0H19.3305C21.9089 0 23.9991 2.09019 23.9991 4.66856V18.6742C23.9991 21.2526 21.9089 23.3428 19.3305 23.3428H5.3248C2.74643 23.3428 0.65625 21.2526 0.65625 18.6742V4.66857Z" fill="#E5E5E5"/>
<g clip-path="url(#clip0_46573_41586)">
<path d="M12.3274 21.0102C17.4841 21.0102 21.6645 16.8298 21.6645 11.6731C21.6645 6.51631 17.4841 2.33594 12.3274 2.33594C7.17061 2.33594 2.99023 6.51631 2.99023 11.6731C2.99023 16.8298 7.17061 21.0102 12.3274 21.0102Z" fill="#0D1E30"/>
<g filter="url(#filter0_d_46573_41586)">
<path d="M12.1667 5.87461C12.4463 5.73047 12.7877 6.06369 12.6394 6.33855C12.5525 6.56264 12.2251 6.62217 12.0582 6.45118C11.8814 6.28778 11.9391 5.96332 12.1667 5.87403V5.87461ZM9.15843 6.19324C9.32825 6.12438 9.54359 6.27728 9.52608 6.45994C9.54359 6.65718 9.29849 6.80307 9.12517 6.70912C8.89582 6.62158 8.92208 6.2551 9.15843 6.19324ZM15.3198 6.71437C15.0542 6.68286 15.0122 6.27203 15.2672 6.18916C15.4657 6.09462 15.6477 6.27261 15.6769 6.4576C15.6349 6.61517 15.5007 6.75989 15.3198 6.71437ZM9.84296 7.45259C10.1272 7.27577 10.5322 7.53896 10.4884 7.86401C10.4738 8.19139 10.0314 8.38163 9.78168 8.15988C9.54008 7.98597 9.57685 7.58681 9.84296 7.45259ZM14.1789 7.6405C14.3055 7.31953 14.8191 7.30903 14.9632 7.62182C15.1062 7.86517 14.9305 8.16688 14.6767 8.24975C14.3399 8.3116 14.0207 7.95329 14.1789 7.6405ZM11.8043 8.23165C11.8014 7.95504 12.057 7.74963 12.3237 7.73037C12.5011 7.76538 12.6937 7.8395 12.7696 8.01515C12.9114 8.25792 12.7853 8.59113 12.5303 8.7026C12.4136 8.76679 12.2747 8.74286 12.1475 8.73528C11.9531 8.6419 11.7892 8.45691 11.8043 8.23165ZM7.33069 8.63432C7.59038 8.47675 7.94052 8.7627 7.8419 9.04048C7.78821 9.28033 7.46024 9.37779 7.27291 9.22489C7.07275 9.08133 7.10426 8.73644 7.33127 8.63373L7.33069 8.63432ZM16.9374 8.63315C17.1574 8.46508 17.521 8.65824 17.4941 8.93136C17.5093 9.18054 17.1948 9.36903 16.9765 9.24065C16.7361 9.13385 16.711 8.76971 16.9374 8.63373V8.63315ZM13.0625 9.12977C13.4255 9.00138 13.8573 9.15486 14.0639 9.47408C14.337 9.86332 14.1923 10.4562 13.768 10.6797C13.3292 10.9441 12.6879 10.7206 12.525 10.2374C12.3412 9.80554 12.6097 9.26516 13.0619 9.12977H13.0625ZM10.9307 9.17237C11.3334 8.98563 11.8755 9.14202 12.0699 9.54702C12.2986 9.94151 12.1218 10.4907 11.7127 10.6943C11.303 10.9237 10.7247 10.7498 10.5269 10.3267C10.3046 9.91701 10.5018 9.36086 10.9307 9.17237ZM8.79662 9.88958C8.82754 9.63456 9.07206 9.46824 9.31891 9.45073C9.44765 9.46433 9.56796 9.5212 9.66019 9.61204C9.75241 9.70289 9.81108 9.82233 9.82662 9.95085C9.80911 10.2135 9.60311 10.4691 9.32066 10.4679C9.00962 10.4942 8.73709 10.1895 8.79662 9.88958ZM15.1003 9.50676C15.4196 9.3241 15.8625 9.58962 15.8485 9.95027C15.8701 10.3325 15.3799 10.6015 15.0624 10.3774C14.7321 10.1907 14.7578 9.66549 15.1003 9.50676ZM10.0641 10.8531C10.4364 10.7521 10.8636 10.9248 11.0463 11.2621C11.2464 11.6018 11.1647 12.0733 10.8537 12.3231C10.454 12.6884 9.71807 12.5413 9.50565 12.043C9.26114 11.586 9.55817 10.9733 10.0635 10.8525L10.0641 10.8531ZM14.1065 10.8513C14.4689 10.7492 14.8949 10.8863 15.0898 11.2114C15.3478 11.5831 15.2246 12.1381 14.8412 12.3773C14.4386 12.6557 13.8165 12.5098 13.5947 12.0745C13.3263 11.6245 13.5965 10.9884 14.1065 10.8513ZM7.66391 11.275C7.98604 11.1553 8.34318 11.5049 8.21246 11.8194C8.1331 12.1054 7.72285 12.2116 7.51101 12.0004C7.26299 11.8019 7.35461 11.3613 7.66391 11.275ZM16.3994 11.7313C16.3933 11.6029 16.4382 11.4772 16.5244 11.3817C16.6105 11.2862 16.7308 11.2285 16.8592 11.2213C17.0798 11.2563 17.2946 11.4314 17.2771 11.6677C17.2975 11.9799 16.9152 12.1918 16.6445 12.0453C16.5178 11.9817 16.4531 11.8539 16.3994 11.7313ZM6.07951 11.4302C6.27326 11.3468 6.51311 11.5119 6.46875 11.7237C6.45825 11.9636 6.09819 12.0564 5.9663 11.8556C5.84959 11.7162 5.91962 11.502 6.07951 11.4296V11.4302ZM18.3047 11.425C18.4413 11.3298 18.6607 11.3981 18.7144 11.5551C18.806 11.7267 18.6379 11.9613 18.4419 11.9327C18.1664 11.9572 18.0777 11.5446 18.3047 11.425ZM11.1169 12.5763C11.6269 12.4462 12.1755 12.8646 12.179 13.3817C12.2117 13.904 11.6713 14.3667 11.1496 14.2465C10.7457 14.1823 10.4289 13.7995 10.4423 13.3986C10.4411 13.0146 10.7352 12.6575 11.1169 12.5763ZM13.1372 12.5758C13.6548 12.4334 14.2197 12.8594 14.2116 13.3881C14.239 13.9005 13.7155 14.3481 13.2043 14.2459C12.7229 14.1852 12.3681 13.6653 12.5023 13.2054C12.57 12.8996 12.8303 12.651 13.1372 12.5752V12.5758ZM9.2413 12.8938C9.59961 12.8337 9.93574 13.2264 9.79044 13.5614C9.68423 13.9185 9.15668 14.0148 8.92325 13.7236C8.65014 13.4435 8.85439 12.9323 9.2413 12.8938ZM15.1669 12.9096C15.4867 12.7777 15.8788 13.0496 15.8543 13.391C15.8672 13.7662 15.3828 14.0253 15.0706 13.8059C14.7164 13.6093 14.7811 13.0298 15.1669 12.9096ZM16.823 14.5436C16.6982 14.3142 16.9252 14.0102 17.1849 14.0528C17.3132 14.0504 17.4037 14.1502 17.486 14.2343C17.5029 14.3702 17.5315 14.5325 17.4165 14.6369C17.2607 14.8313 16.9077 14.7758 16.823 14.5436ZM7.32952 14.1164C7.5717 13.9582 7.92009 14.1946 7.86524 14.4724C7.83606 14.7192 7.52093 14.8598 7.31376 14.7198C7.09084 14.5932 7.09901 14.2319 7.32952 14.1164ZM12.1107 14.6317C12.4276 14.4945 12.8314 14.7659 12.8011 15.109C12.8244 15.4883 12.3255 15.751 12.0156 15.5234C11.6713 15.3279 11.7291 14.7525 12.1107 14.6317ZM9.89665 15.14C10.1663 15.0005 10.5281 15.2415 10.5036 15.5391C10.5117 15.7831 10.2701 15.9908 10.025 15.9546C9.82253 15.9505 9.69064 15.7714 9.62528 15.6016C9.62879 15.4166 9.7064 15.2106 9.89665 15.1405V15.14ZM14.382 15.1446C14.6597 14.9754 15.0542 15.2182 15.028 15.5356C15.035 15.8683 14.5891 16.0807 14.3306 15.8624C14.0808 15.6914 14.1112 15.2806 14.382 15.1446ZM15.1622 17.0412C15.0385 16.858 15.1838 16.6368 15.384 16.5948C15.5456 16.6269 15.7166 16.7465 15.6822 16.9298C15.6588 17.179 15.2888 17.2548 15.1622 17.0418V17.0412ZM8.96994 16.8819C9.01896 16.736 9.138 16.5919 9.31249 16.6298C9.56634 16.6473 9.64163 17.0243 9.41929 17.1404C9.2197 17.2729 8.98744 17.0914 8.96994 16.8819ZM11.9578 17.0494C12.0063 16.8335 12.2893 16.729 12.476 16.8434C12.5997 16.8959 12.6359 17.0313 12.6674 17.1469C12.6508 17.2069 12.6352 17.2672 12.6208 17.3278C12.5443 17.4165 12.4457 17.5058 12.3185 17.5028C12.0821 17.5303 11.8685 17.2671 11.9572 17.0494H11.9578Z" fill="black"/>
</g>
<path d="M12.1667 5.87461C12.4463 5.73047 12.7877 6.06369 12.6394 6.33855C12.5525 6.56264 12.2251 6.62217 12.0582 6.45118C11.8814 6.28778 11.9391 5.96332 12.1667 5.87403V5.87461ZM9.15843 6.19324C9.32825 6.12438 9.54359 6.27728 9.52608 6.45994C9.54359 6.65718 9.29849 6.80307 9.12517 6.70912C8.89582 6.62158 8.92208 6.2551 9.15843 6.19324ZM15.3198 6.71437C15.0542 6.68286 15.0122 6.27203 15.2672 6.18916C15.4657 6.09462 15.6477 6.27261 15.6769 6.4576C15.6349 6.61517 15.5007 6.75989 15.3198 6.71437ZM9.84296 7.45259C10.1272 7.27577 10.5322 7.53896 10.4884 7.86401C10.4738 8.19139 10.0314 8.38163 9.78168 8.15988C9.54008 7.98597 9.57685 7.58681 9.84296 7.45259ZM14.1789 7.6405C14.3055 7.31953 14.8191 7.30903 14.9632 7.62182C15.1062 7.86517 14.9305 8.16688 14.6767 8.24975C14.3399 8.3116 14.0207 7.95329 14.1789 7.6405ZM11.8043 8.23165C11.8014 7.95504 12.057 7.74963 12.3237 7.73037C12.5011 7.76538 12.6937 7.8395 12.7696 8.01515C12.9114 8.25792 12.7853 8.59113 12.5303 8.7026C12.4136 8.76679 12.2747 8.74286 12.1475 8.73528C11.9531 8.6419 11.7892 8.45691 11.8043 8.23165ZM7.33069 8.63432C7.59038 8.47675 7.94052 8.7627 7.8419 9.04048C7.78821 9.28033 7.46024 9.37779 7.27291 9.22489C7.07275 9.08133 7.10426 8.73644 7.33127 8.63373L7.33069 8.63432ZM16.9374 8.63315C17.1574 8.46508 17.521 8.65824 17.4941 8.93136C17.5093 9.18054 17.1948 9.36903 16.9765 9.24065C16.7361 9.13385 16.711 8.76971 16.9374 8.63373V8.63315ZM13.0625 9.12977C13.4255 9.00138 13.8573 9.15486 14.0639 9.47408C14.337 9.86332 14.1923 10.4562 13.768 10.6797C13.3292 10.9441 12.6879 10.7206 12.525 10.2374C12.3412 9.80554 12.6097 9.26516 13.0619 9.12977H13.0625ZM10.9307 9.17237C11.3334 8.98563 11.8755 9.14202 12.0699 9.54702C12.2986 9.94151 12.1218 10.4907 11.7127 10.6943C11.303 10.9237 10.7247 10.7498 10.5269 10.3267C10.3046 9.91701 10.5018 9.36086 10.9307 9.17237ZM8.79662 9.88958C8.82754 9.63456 9.07206 9.46824 9.31891 9.45073C9.44765 9.46433 9.56796 9.5212 9.66019 9.61204C9.75241 9.70289 9.81108 9.82233 9.82662 9.95085C9.80911 10.2135 9.60311 10.4691 9.32066 10.4679C9.00962 10.4942 8.73709 10.1895 8.79662 9.88958ZM15.1003 9.50676C15.4196 9.3241 15.8625 9.58962 15.8485 9.95027C15.8701 10.3325 15.3799 10.6015 15.0624 10.3774C14.7321 10.1907 14.7578 9.66549 15.1003 9.50676ZM10.0641 10.8531C10.4364 10.7521 10.8636 10.9248 11.0463 11.2621C11.2464 11.6018 11.1647 12.0733 10.8537 12.3231C10.454 12.6884 9.71807 12.5413 9.50565 12.043C9.26114 11.586 9.55817 10.9733 10.0635 10.8525L10.0641 10.8531ZM14.1065 10.8513C14.4689 10.7492 14.8949 10.8863 15.0898 11.2114C15.3478 11.5831 15.2246 12.1381 14.8412 12.3773C14.4386 12.6557 13.8165 12.5098 13.5947 12.0745C13.3263 11.6245 13.5965 10.9884 14.1065 10.8513ZM7.66391 11.275C7.98604 11.1553 8.34318 11.5049 8.21246 11.8194C8.1331 12.1054 7.72285 12.2116 7.51101 12.0004C7.26299 11.8019 7.35461 11.3613 7.66391 11.275ZM16.3994 11.7313C16.3933 11.6029 16.4382 11.4772 16.5244 11.3817C16.6105 11.2862 16.7308 11.2285 16.8592 11.2213C17.0798 11.2563 17.2946 11.4314 17.2771 11.6677C17.2975 11.9799 16.9152 12.1918 16.6445 12.0453C16.5178 11.9817 16.4531 11.8539 16.3994 11.7313ZM6.07951 11.4302C6.27326 11.3468 6.51311 11.5119 6.46875 11.7237C6.45825 11.9636 6.09819 12.0564 5.9663 11.8556C5.84959 11.7162 5.91962 11.502 6.07951 11.4296V11.4302ZM18.3047 11.425C18.4413 11.3298 18.6607 11.3981 18.7144 11.5551C18.806 11.7267 18.6379 11.9613 18.4419 11.9327C18.1664 11.9572 18.0777 11.5446 18.3047 11.425ZM11.1169 12.5763C11.6269 12.4462 12.1755 12.8646 12.179 13.3817C12.2117 13.904 11.6713 14.3667 11.1496 14.2465C10.7457 14.1823 10.4289 13.7995 10.4423 13.3986C10.4411 13.0146 10.7352 12.6575 11.1169 12.5763ZM13.1372 12.5758C13.6548 12.4334 14.2197 12.8594 14.2116 13.3881C14.239 13.9005 13.7155 14.3481 13.2043 14.2459C12.7229 14.1852 12.3681 13.6653 12.5023 13.2054C12.57 12.8996 12.8303 12.651 13.1372 12.5752V12.5758ZM9.2413 12.8938C9.59961 12.8337 9.93574 13.2264 9.79044 13.5614C9.68423 13.9185 9.15668 14.0148 8.92325 13.7236C8.65014 13.4435 8.85439 12.9323 9.2413 12.8938ZM15.1669 12.9096C15.4867 12.7777 15.8788 13.0496 15.8543 13.391C15.8672 13.7662 15.3828 14.0253 15.0706 13.8059C14.7164 13.6093 14.7811 13.0298 15.1669 12.9096ZM16.823 14.5436C16.6982 14.3142 16.9252 14.0102 17.1849 14.0528C17.3132 14.0504 17.4037 14.1502 17.486 14.2343C17.5029 14.3702 17.5315 14.5325 17.4165 14.6369C17.2607 14.8313 16.9077 14.7758 16.823 14.5436ZM7.32952 14.1164C7.5717 13.9582 7.92009 14.1946 7.86524 14.4724C7.83606 14.7192 7.52093 14.8598 7.31376 14.7198C7.09084 14.5932 7.09901 14.2319 7.32952 14.1164ZM12.1107 14.6317C12.4276 14.4945 12.8314 14.7659 12.8011 15.109C12.8244 15.4883 12.3255 15.751 12.0156 15.5234C11.6713 15.3279 11.7291 14.7525 12.1107 14.6317ZM9.89665 15.14C10.1663 15.0005 10.5281 15.2415 10.5036 15.5391C10.5117 15.7831 10.2701 15.9908 10.025 15.9546C9.82253 15.9505 9.69064 15.7714 9.62528 15.6016C9.62879 15.4166 9.7064 15.2106 9.89665 15.1405V15.14ZM14.382 15.1446C14.6597 14.9754 15.0542 15.2182 15.028 15.5356C15.035 15.8683 14.5891 16.0807 14.3306 15.8624C14.0808 15.6914 14.1112 15.2806 14.382 15.1446ZM15.1622 17.0412C15.0385 16.858 15.1838 16.6368 15.384 16.5948C15.5456 16.6269 15.7166 16.7465 15.6822 16.9298C15.6588 17.179 15.2888 17.2548 15.1622 17.0418V17.0412ZM8.96994 16.8819C9.01896 16.736 9.138 16.5919 9.31249 16.6298C9.56634 16.6473 9.64163 17.0243 9.41929 17.1404C9.2197 17.2729 8.98744 17.0914 8.96994 16.8819ZM11.9578 17.0494C12.0063 16.8335 12.2893 16.729 12.476 16.8434C12.5997 16.8959 12.6359 17.0313 12.6674 17.1469C12.6508 17.2069 12.6352 17.2672 12.6208 17.3278C12.5443 17.4165 12.4457 17.5058 12.3185 17.5028C12.0821 17.5303 11.8685 17.2671 11.9572 17.0494H11.9578Z" fill="white"/>
</g>
<defs>
<filter id="filter0_d_46573_41586" x="5.43405" y="5.60277" width="13.7803" height="12.6124" filterUnits="userSpaceOnUse" color-interpolation-filters="sRGB">
<feFlood flood-opacity="0" result="BackgroundImageFix"/>
<feColorMatrix in="SourceAlpha" type="matrix" values="0 0 0 0 0 0 0 0 0 0 0 0 0 0 0 0 0 0 127 0" result="hardAlpha"/>
<feOffset dy="0.237075"/>
<feGaussianBlur stdDeviation="0.237075"/>
<feColorMatrix type="matrix" values="0 0 0 0 0 0 0 0 0 0 0 0 0 0 0 0 0 0 0.204257 0"/>
<feBlend mode="normal" in2="BackgroundImageFix" result="effect1_dropShadow_46573_41586"/>
<feBlend mode="normal" in="SourceGraphic" in2="effect1_dropShadow_46573_41586" result="shape"/>
</filter>
<clipPath id="clip0_46573_41586">
<rect width="18.6742" height="18.6742" fill="white" transform="translate(2.99023 2.33594)"/>
</clipPath>
</defs>
</svg>
