<svg width="24" height="24" viewBox="0 0 24 24" fill="none" xmlns="http://www.w3.org/2000/svg">
<path d="M0.208984 5.05138C0.208984 2.473 2.29917 0.382812 4.87755 0.382812H18.8832C21.4616 0.382812 23.5518 2.473 23.5518 5.05137V19.0571C23.5518 21.6354 21.4616 23.7256 18.8832 23.7256H4.87754C2.29916 23.7256 0.208984 21.6354 0.208984 19.0571V5.05138Z" fill="#E5E5E5"/>
<g clip-path="url(#clip0_46573_41599)">
<path d="M11.8801 21.393C17.0368 21.393 21.2172 17.2126 21.2172 12.0559C21.2172 6.89912 17.0368 2.71875 11.8801 2.71875C6.72334 2.71875 2.54297 6.89912 2.54297 12.0559C2.54297 17.2126 6.72334 21.393 11.8801 21.393Z" fill="#E84142"/>
<path d="M15.1746 12.2974C15.4981 11.7386 16.0201 11.7386 16.3436 12.2974L18.358 15.8337C18.6815 16.3925 18.4168 16.8483 17.7699 16.8483H13.7115C13.0719 16.8483 12.8072 16.3925 13.1234 15.8337L15.1746 12.2974ZM11.278 5.48938C11.6015 4.93062 12.1161 4.93062 12.4396 5.48938L12.8881 6.29811L13.9468 8.15818C14.2041 8.68753 14.2041 9.31245 13.9468 9.8418L10.3957 15.9955C10.0723 16.4954 9.53555 16.8116 8.94003 16.8483H5.99185C5.34487 16.8483 5.0802 16.3998 5.40369 15.8337L11.278 5.48938Z" fill="white"/>
</g>
<defs>
<clipPath id="clip0_46573_41599">
<rect width="18.6742" height="18.6742" fill="white" transform="translate(2.54297 2.71875)"/>
</clipPath>
</defs>
</svg>
