<svg width="286" height="79" viewBox="0 0 286 79" fill="none" xmlns="http://www.w3.org/2000/svg">
<path d="M42.7584 44.7786V54.0782C42.7517 54.2763 42.7995 54.4726 42.8966 54.6456C42.9933 54.8189 43.1361 54.9617 43.3086 55.0593C43.4815 55.1568 43.6775 55.2054 43.876 55.1991C44.074 55.1928 44.2671 55.1325 44.4333 55.0245L52.4224 50.36C52.6736 50.2152 52.8829 50.0071 53.0299 49.7567C53.1764 49.5067 53.256 49.2224 53.2598 48.9322V39.641C53.2665 39.4429 53.2187 39.2465 53.1216 39.0736C53.0249 38.9003 52.8821 38.7575 52.7096 38.6599C52.5366 38.5624 52.3407 38.5138 52.1422 38.5201C51.9442 38.5264 51.7512 38.5866 51.5849 38.6947L43.6042 43.3508C43.3543 43.4952 43.1457 43.7017 42.9988 43.9504C42.8522 44.1991 42.7723 44.4817 42.7668 44.7702" fill="#FF4F20"/>
<path d="M99.4719 15.1738C104.621 15.1738 108.927 16.3909 112.391 18.8249C115.532 20.9897 117.615 23.9242 118.639 27.6284C118.815 28.2666 118.393 28.9027 117.745 29.0349L108.721 30.873C108.073 31.005 107.45 30.5811 107.242 29.9533C106.727 28.4039 105.846 27.1753 104.597 26.2676C103.053 25.0973 101.297 24.5122 99.3315 24.5122C97.4591 24.5122 95.9378 24.9803 94.7676 25.9165C93.5974 26.8059 93.0123 27.9293 93.0123 29.2868C93.0123 31.3463 94.2761 32.657 96.8038 33.2187L106.563 35.3953C115.176 37.3145 119.483 41.8784 119.483 49.087C119.483 53.9083 117.634 57.653 113.936 60.3211C110.238 62.9893 105.627 64.3233 100.104 64.3233C94.6272 64.3233 89.9697 63.0829 86.1313 60.602C82.6587 58.2869 80.5211 55.1472 79.7186 51.1829C79.5929 50.5622 80.0172 49.9756 80.639 49.8549L90.3475 47.9703C90.9743 47.8487 91.5791 48.2452 91.7848 48.8496C93.1126 52.7526 96.0963 54.7041 100.736 54.7041C102.889 54.7041 104.574 54.2594 105.791 53.37C107.055 52.4806 107.687 51.3104 107.687 49.8593C107.687 48.7359 107.359 47.8465 106.704 47.1912C106.095 46.5359 104.972 46.0444 103.334 45.7167L93.5037 43.6103C85.0781 41.6911 80.8653 37.1507 80.8653 29.9889C80.8653 25.4484 82.5738 21.8441 85.9909 19.176C89.408 16.5079 93.9016 15.1738 99.4719 15.1738Z" fill="white"/>
<path d="M138.933 27.1101C144.316 27.1101 148.88 28.8421 152.625 32.3059C156.369 35.7698 158.242 40.2167 158.242 45.6465C158.242 51.1232 156.369 55.5934 152.625 59.0573C148.88 62.5212 144.316 64.2531 138.933 64.2531C133.456 64.2531 128.822 62.5212 125.031 59.0573C121.286 55.5934 119.414 51.1232 119.414 45.6465C119.414 40.2167 121.286 35.7698 125.031 32.3059C128.822 28.8421 133.456 27.1101 138.933 27.1101ZM138.933 54.7743C141.227 54.7743 143.216 53.9317 144.901 52.2466C146.586 50.5146 147.429 48.3146 147.429 45.6465C147.429 42.9784 146.563 40.8018 144.831 39.1167C143.146 37.3847 141.18 36.5187 138.933 36.5187C136.592 36.5187 134.556 37.3847 132.824 39.1167C131.092 40.8018 130.226 42.9784 130.226 45.6465C130.226 48.3146 131.069 50.5146 132.754 52.2466C134.486 53.9317 136.546 54.7743 138.933 54.7743Z" fill="white"/>
<path d="M158.312 17.4218C158.312 16.762 158.847 16.227 159.507 16.227H176.919C184.642 16.227 190.868 18.4037 195.596 22.7569C200.323 27.0633 202.687 32.7272 202.687 39.7486C202.687 46.7699 200.323 52.4572 195.596 56.8105C190.868 61.1169 184.642 63.2701 176.919 63.2701H159.507C158.847 63.2701 158.312 62.7352 158.312 62.0753V17.4218ZM169.897 52.0348C169.897 52.6946 170.432 53.2296 171.092 53.2296H176.497C180.898 53.2296 184.408 52.0125 187.029 49.5785C189.698 47.0976 191.032 43.821 191.032 39.7486C191.032 35.6762 189.698 32.423 187.029 29.9889C184.408 27.508 180.898 26.2676 176.497 26.2676H171.092C170.432 26.2676 169.897 26.8025 169.897 27.4624V52.0348Z" fill="white"/>
<path d="M238.24 53.2998C238.9 53.2998 239.435 53.8347 239.435 54.4946V62.0753C239.435 62.7352 238.9 63.2701 238.24 63.2701H203.978C203.319 63.2701 202.784 62.7352 202.784 62.0753V17.4218C202.784 16.762 203.319 16.227 203.978 16.227H238.03C238.69 16.227 239.225 16.762 239.225 17.4218V25.0026C239.225 25.6624 238.69 26.1974 238.03 26.1974H215.564C214.904 26.1974 214.369 26.7323 214.369 27.3921V33.8495C214.369 34.5093 214.904 35.0443 215.564 35.0443H235.994C236.653 35.0443 237.188 35.5792 237.188 36.239V43.2581C237.188 43.918 236.653 44.4529 235.994 44.4529H215.564C214.904 44.4529 214.369 44.9878 214.369 45.6477V52.105C214.369 52.7649 214.904 53.2998 215.564 53.2998H238.24Z" fill="white"/>
<path d="M272.302 63.2701C271.887 63.2701 271.501 63.0544 271.284 62.7005L262.825 48.9255C262.358 48.1646 261.252 48.1664 260.787 48.9288L252.393 62.6973C252.176 63.053 251.79 63.2701 251.373 63.2701H240.508C239.57 63.2701 238.997 62.2379 239.495 61.4421L252.702 40.3105C252.944 39.9236 252.944 39.4329 252.703 39.0456L239.63 18.0534C239.134 17.2576 239.707 16.227 240.644 16.227H251.511C251.929 16.227 252.317 16.4452 252.533 16.8025L260.786 30.416C261.25 31.1817 262.36 31.1835 262.827 30.4193L271.144 16.7992C271.361 16.4438 271.747 16.227 272.163 16.227H283.033C283.971 16.227 284.543 17.2576 284.047 18.0534L270.974 39.0456C270.733 39.4329 270.734 39.9236 270.975 40.3105L284.183 61.4421C284.68 62.2379 284.108 63.2701 283.169 63.2701H272.302Z" fill="white"/>
<path fill-rule="evenodd" clip-rule="evenodd" d="M35.3241 78.0137L67.367 59.4251C67.6147 59.2812 67.8204 59.0748 67.9633 58.8264C68.1063 58.578 68.1815 58.2965 68.1812 58.01L68.1043 20.9652C68.1036 20.6785 68.0274 20.397 67.8835 20.149C67.7396 19.9009 67.5329 19.6951 67.2845 19.552L35.1648 1.09978C34.9164 0.956361 34.6345 0.880859 34.3477 0.880859C34.0611 0.880859 33.7792 0.956361 33.5308 1.09978L1.48801 19.6903C1.23997 19.8337 1.03422 20.0401 0.891599 20.2886C0.748973 20.5371 0.674525 20.8189 0.675797 21.1054L0.752601 58.1499C0.752781 58.4368 0.828711 58.718 0.972691 58.9661C1.11667 59.2138 1.32359 59.4192 1.57249 59.5614L33.6922 78.0137C33.9402 78.157 34.2215 78.2325 34.508 78.2325C34.7948 78.2325 35.0761 78.157 35.3241 78.0137ZM44.3776 33.8857L58.4693 25.6119C58.5921 25.5393 58.6937 25.4358 58.764 25.3117C58.8343 25.1876 58.8711 25.0473 58.8708 24.9046C58.8701 24.7619 58.832 24.6219 58.7607 24.4984C58.6894 24.3749 58.5869 24.2723 58.4633 24.2006L35.1822 10.827C34.9341 10.6836 34.6526 10.6081 34.3661 10.6081C34.0795 10.6081 33.798 10.6836 33.5499 10.827L9.91536 24.5347C9.6671 24.6785 9.4611 24.8852 9.31817 25.134C9.17525 25.3828 9.1004 25.6648 9.10126 25.9518L9.12238 33.7839C9.12255 34.0704 9.19828 34.3516 9.34189 34.5994C9.48551 34.8471 9.69191 35.0528 9.94033 35.1951L25.209 43.9739C25.4581 44.1168 25.6651 44.3228 25.8091 44.5715C25.953 44.8199 26.0289 45.1018 26.0289 45.389V53.2442C26.0288 53.3398 26.0035 53.4335 25.9558 53.5159C25.908 53.5987 25.8394 53.6674 25.7568 53.715C25.6742 53.763 25.5805 53.7883 25.485 53.7886C25.3896 53.7886 25.2957 53.764 25.2129 53.7167L18.072 49.6133C17.9066 49.5163 17.7698 49.3774 17.6754 49.2105C17.581 49.0436 17.5324 48.8546 17.5344 48.6628L17.5248 46.0862C17.5236 45.797 17.4459 45.5135 17.2995 45.2641C17.1531 45.0147 16.9433 44.8087 16.6914 44.6671L10.3282 41.0976C10.204 41.028 10.0636 40.9919 9.92118 40.9932C9.77872 40.9945 9.63908 41.0332 9.51616 41.1052C9.39328 41.1772 9.29136 41.2803 9.22059 41.4039C9.14982 41.5274 9.11263 41.6674 9.11276 41.81V46.7042L9.13004 53.2826C9.13024 53.5691 9.20617 53.8507 9.35014 54.0985C9.49412 54.3465 9.70104 54.5519 9.94993 54.6938L32.853 67.8122C33.0187 67.9072 33.2065 67.9568 33.3975 67.9562C33.5884 67.9558 33.776 67.9049 33.9412 67.809C34.1065 67.713 34.2435 67.5753 34.3385 67.4098C34.4337 67.2442 34.4837 67.0565 34.483 66.8653L34.4449 40.4658C34.4442 40.179 34.368 39.8974 34.2241 39.6494C34.0802 39.4013 33.8735 39.1956 33.6248 39.0527L18.4368 30.3219C18.3538 30.2743 18.2849 30.2057 18.2369 30.1229C18.189 30.0401 18.1637 29.9462 18.1637 29.8505C18.1637 29.7549 18.189 29.6609 18.2369 29.5782C18.2849 29.4954 18.3538 29.4268 18.4368 29.3791L33.5788 20.6196C33.8272 20.4762 34.1091 20.4007 34.396 20.4007C34.6828 20.4007 34.9644 20.4762 35.2128 20.6196L42.0619 24.5597C42.1447 24.6073 42.2137 24.6759 42.2617 24.7587C42.3097 24.8415 42.335 24.9354 42.335 25.0311C42.335 25.1267 42.3097 25.2207 42.2617 25.3034C42.2137 25.3862 42.1447 25.4548 42.0619 25.5025L36.025 28.9817C35.8985 29.0548 35.7936 29.1606 35.722 29.288C35.6501 29.4154 35.6139 29.5598 35.6169 29.706C35.6202 29.8522 35.6626 29.9949 35.7398 30.1192C35.817 30.2434 35.9261 30.3446 36.0558 30.4122L42.7992 33.9258C43.044 34.0536 43.3174 34.1167 43.5937 34.1095C43.8697 34.1026 44.1394 34.0254 44.3776 33.8857Z" fill="white"/>
<path d="M42.7578 44.7565L42.7713 53.9999C42.7716 54.1907 42.8222 54.3784 42.9178 54.5439C43.0134 54.7092 43.1511 54.8466 43.3167 54.9418C43.4823 55.0371 43.6702 55.0871 43.8611 55.0871C44.0524 55.0867 44.24 55.0361 44.4052 54.9405L52.3929 50.3075C52.6406 50.1629 52.8459 49.9563 52.9885 49.7075C53.1311 49.4588 53.2057 49.1769 53.2051 48.8904L53.186 39.6565C53.1857 39.4653 53.1351 39.2777 53.0395 39.1124C52.9439 38.9472 52.8062 38.8098 52.6406 38.7146C52.475 38.619 52.2871 38.569 52.0962 38.5693C51.905 38.5693 51.7173 38.6199 51.5521 38.7155L43.572 43.341C43.3236 43.4846 43.1176 43.6909 42.9747 43.9393C42.8317 44.1877 42.7568 44.4696 42.7578 44.7565Z" fill="#FF4F20"/>
</svg>
