<svg width="285" height="79" viewBox="0 0 285 79" fill="none" xmlns="http://www.w3.org/2000/svg">
<path d="M42.2584 44.6057V53.9054C42.2517 54.1034 42.2995 54.2998 42.3966 54.4727C42.4933 54.6461 42.6361 54.7888 42.8086 54.8864C42.9815 54.984 43.1775 55.0325 43.376 55.0263C43.574 55.02 43.7671 54.9597 43.9333 54.8517L51.9224 50.1872C52.1736 50.0423 52.3829 49.8342 52.5299 49.5838C52.6764 49.3338 52.756 49.0495 52.7598 48.7594V39.4681C52.7665 39.2701 52.7187 39.0737 52.6216 38.9008C52.5249 38.7274 52.3821 38.5846 52.2096 38.4871C52.0366 38.3895 51.8407 38.3409 51.6422 38.3472C51.4442 38.3535 51.2512 38.4138 51.0849 38.5218L43.1042 43.1779C42.8543 43.3224 42.6457 43.5288 42.4988 43.7775C42.3522 44.0262 42.2723 44.3089 42.2668 44.5974" fill="#FF4F20"/>
<path d="M98.9719 15.0015C104.121 15.0015 108.427 16.2185 111.891 18.6526C115.032 20.8173 117.115 23.7518 118.139 27.4561C118.315 28.0943 117.893 28.7304 117.245 28.8625L108.221 30.7006C107.573 30.8326 106.95 30.4087 106.742 29.7809C106.227 28.2315 105.346 27.0029 104.097 26.0952C102.553 24.925 100.797 24.3399 98.8315 24.3399C96.9591 24.3399 95.4378 24.808 94.2676 25.7441C93.0974 26.6335 92.5123 27.7569 92.5123 29.1144C92.5123 31.174 93.7761 32.4846 96.3038 33.0463L106.063 35.223C114.676 37.1421 118.983 41.706 118.983 48.9146C118.983 53.7359 117.134 57.4807 113.436 60.1488C109.738 62.8169 105.127 64.1509 99.6038 64.1509C94.1272 64.1509 89.4697 62.9105 85.6313 60.4296C82.1587 58.1145 80.0211 54.9749 79.2186 51.0106C79.0929 50.3898 79.5172 49.8033 80.139 49.6826L89.8475 47.798C90.4743 47.6763 91.0791 48.0728 91.2848 48.6773C92.6126 52.5802 95.5963 54.5317 100.236 54.5317C102.389 54.5317 104.074 54.087 105.291 53.1976C106.555 52.3083 107.187 51.138 107.187 49.687C107.187 48.5635 106.859 47.6742 106.204 47.0188C105.595 46.3635 104.472 45.872 102.834 45.5444L93.0037 43.438C84.5781 41.5188 80.3653 36.9783 80.3653 29.8165C80.3653 25.276 82.0738 21.6718 85.4909 19.0036C88.908 16.3355 93.4016 15.0015 98.9719 15.0015Z" fill="black"/>
<path d="M138.433 26.9378C143.816 26.9378 148.38 28.6697 152.125 32.1336C155.869 35.5974 157.742 40.0443 157.742 45.4741C157.742 50.9508 155.869 55.4211 152.125 58.8849C148.38 62.3488 143.816 64.0807 138.433 64.0807C132.956 64.0807 128.322 62.3488 124.531 58.8849C120.786 55.4211 118.914 50.9508 118.914 45.4741C118.914 40.0443 120.786 35.5974 124.531 32.1336C128.322 28.6697 132.956 26.9378 138.433 26.9378ZM138.433 54.6019C140.727 54.6019 142.716 53.7593 144.401 52.0742C146.086 50.3423 146.929 48.1423 146.929 45.4741C146.929 42.806 146.063 40.6294 144.331 38.9443C142.646 37.2124 140.68 36.3464 138.433 36.3464C136.092 36.3464 134.056 37.2124 132.324 38.9443C130.592 40.6294 129.726 42.806 129.726 45.4741C129.726 48.1423 130.569 50.3423 132.254 52.0742C133.986 53.7593 136.046 54.6019 138.433 54.6019Z" fill="black"/>
<path d="M157.812 17.2495C157.812 16.5896 158.347 16.0547 159.007 16.0547H176.419C184.142 16.0547 190.368 18.2313 195.096 22.5845C199.823 26.891 202.187 32.5549 202.187 39.5762C202.187 46.5976 199.823 52.2849 195.096 56.6381C190.368 60.9445 184.142 63.0977 176.419 63.0977H159.007C158.347 63.0977 157.812 62.5628 157.812 61.903V17.2495ZM169.397 51.8624C169.397 52.5223 169.932 53.0572 170.592 53.0572H175.997C180.398 53.0572 183.908 51.8402 186.529 49.4061C189.198 46.9252 190.532 43.6486 190.532 39.5762C190.532 35.5038 189.198 32.2506 186.529 29.8165C183.908 27.3356 180.398 26.0952 175.997 26.0952H170.592C169.932 26.0952 169.397 26.6301 169.397 27.29V51.8624Z" fill="black"/>
<path d="M237.74 53.1274C238.4 53.1274 238.935 53.6623 238.935 54.3222V61.903C238.935 62.5628 238.4 63.0977 237.74 63.0977H203.478C202.819 63.0977 202.284 62.5628 202.284 61.903V17.2495C202.284 16.5896 202.819 16.0547 203.478 16.0547H237.53C238.19 16.0547 238.725 16.5896 238.725 17.2495V24.8302C238.725 25.4901 238.19 26.025 237.53 26.025H215.064C214.404 26.025 213.869 26.5599 213.869 27.2198V33.6771C213.869 34.337 214.404 34.8719 215.064 34.8719H235.494C236.153 34.8719 236.688 35.4068 236.688 36.0667V43.0857C236.688 43.7456 236.153 44.2805 235.494 44.2805H215.064C214.404 44.2805 213.869 44.8154 213.869 45.4753V51.9326C213.869 52.5925 214.404 53.1274 215.064 53.1274H237.74Z" fill="black"/>
<path d="M271.802 63.0977C271.387 63.0977 271.001 62.8821 270.784 62.5281L262.325 48.7531C261.858 47.9923 260.752 47.994 260.287 48.7564L251.893 62.5249C251.676 62.8807 251.29 63.0977 250.873 63.0977H240.008C239.07 63.0977 238.497 62.0655 238.995 61.2697L252.202 40.1381C252.444 39.7512 252.444 39.2605 252.203 38.8733L239.13 17.881C238.634 17.0852 239.207 16.0547 240.144 16.0547H251.011C251.429 16.0547 251.817 16.2729 252.033 16.6301L260.286 30.2436C260.75 31.0094 261.86 31.0112 262.327 30.2469L270.644 16.6268C270.861 16.2714 271.247 16.0547 271.663 16.0547H282.533C283.471 16.0547 284.043 17.0852 283.547 17.881L270.474 38.8733C270.233 39.2605 270.234 39.7512 270.475 40.1381L283.683 61.2697C284.18 62.0655 283.608 63.0977 282.669 63.0977H271.802Z" fill="black"/>
<path fill-rule="evenodd" clip-rule="evenodd" d="M34.8241 77.8414L66.867 59.2527C67.1147 59.1088 67.3204 58.9025 67.4633 58.6541C67.6063 58.4057 67.6815 58.1241 67.6812 57.8376L67.6043 20.7929C67.6036 20.5061 67.5274 20.2246 67.3835 19.9766C67.2396 19.7286 67.0329 19.5227 66.7845 19.3797L34.6648 0.927412C34.4164 0.783997 34.1345 0.708496 33.8477 0.708496C33.5611 0.708496 33.2792 0.783997 33.0308 0.927412L0.988006 19.5179C0.739969 19.6613 0.534224 19.8677 0.391599 20.1163C0.248973 20.3648 0.174525 20.6465 0.175797 20.933L0.252601 57.9776C0.252781 58.2644 0.328711 58.5457 0.472691 58.7937C0.61667 59.0415 0.823591 59.2468 1.07249 59.3891L33.1922 77.8414C33.4402 77.9846 33.7215 78.0602 34.008 78.0602C34.2948 78.0602 34.5761 77.9846 34.8241 77.8414ZM43.8776 33.7134L57.9693 25.4395C58.0921 25.3669 58.1937 25.2634 58.264 25.1393C58.3343 25.0152 58.3711 24.8749 58.3708 24.7322C58.3701 24.5896 58.332 24.4496 58.2607 24.326C58.1894 24.2026 58.0869 24.0999 57.9633 24.0282L34.6822 10.6547C34.4341 10.5113 34.1526 10.4357 33.8661 10.4357C33.5795 10.4357 33.298 10.5113 33.0499 10.6547L9.41536 24.3624C9.1671 24.5062 8.9611 24.7129 8.81817 24.9616C8.67525 25.2104 8.6004 25.4925 8.60126 25.7794L8.62238 33.6115C8.62255 33.898 8.69828 34.1793 8.84189 34.427C8.98551 34.6747 9.19191 34.8804 9.44033 35.0227L24.709 43.8015C24.9581 43.9444 25.1651 44.1504 25.3091 44.3992C25.453 44.6475 25.5289 44.9295 25.5289 45.2166V53.0718C25.5288 53.1674 25.5035 53.2611 25.4558 53.3436C25.408 53.4264 25.3394 53.495 25.2568 53.5427C25.1742 53.5906 25.0805 53.6159 24.985 53.6163C24.8896 53.6163 24.7957 53.5916 24.7129 53.5443L17.572 49.4409C17.4066 49.344 17.2698 49.205 17.1754 49.0381C17.081 48.8712 17.0324 48.6823 17.0344 48.4904L17.0248 45.9138C17.0236 45.6247 16.9459 45.3411 16.7995 45.0918C16.6531 44.8424 16.4433 44.6364 16.1914 44.4948L9.8282 40.9253C9.70397 40.8556 9.56364 40.8195 9.42118 40.8208C9.27872 40.8221 9.13908 40.8609 9.01616 40.9328C8.89328 41.0048 8.79136 41.108 8.72059 41.2315C8.64982 41.355 8.61263 41.495 8.61276 41.6376V46.5318L8.63004 53.1103C8.63024 53.3968 8.70617 53.6784 8.85014 53.9261C8.99412 54.1742 9.20104 54.3795 9.44993 54.5214L32.353 67.6399C32.5187 67.7348 32.7065 67.7844 32.8975 67.7838C33.0884 67.7835 33.276 67.7325 33.4412 67.6366C33.6065 67.5407 33.7435 67.403 33.8385 67.2374C33.9337 67.0718 33.9837 66.8842 33.983 66.693L33.9449 40.2935C33.9442 40.0066 33.868 39.7251 33.7241 39.477C33.5802 39.2289 33.3735 39.0232 33.1248 38.8803L17.9368 30.1496C17.8538 30.102 17.7849 30.0333 17.7369 29.9506C17.689 29.8678 17.6637 29.7738 17.6637 29.6782C17.6637 29.5825 17.689 29.4886 17.7369 29.4058C17.7849 29.323 17.8538 29.2544 17.9368 29.2068L33.0788 20.4473C33.3272 20.3038 33.6091 20.2283 33.896 20.2283C34.1828 20.2283 34.4644 20.3038 34.7128 20.4473L41.5619 24.3873C41.6447 24.4349 41.7137 24.5035 41.7617 24.5863C41.8097 24.6691 41.835 24.763 41.835 24.8587C41.835 24.9544 41.8097 25.0483 41.7617 25.1311C41.7137 25.2139 41.6447 25.2825 41.5619 25.3301L35.525 28.8093C35.3985 28.8824 35.2936 28.9882 35.222 29.1156C35.1501 29.2431 35.1139 29.3875 35.1169 29.5337C35.1202 29.6799 35.1626 29.8226 35.2398 29.9468C35.317 30.071 35.4261 30.1722 35.5558 30.2398L42.2992 33.7535C42.544 33.8813 42.8174 33.9444 43.0937 33.9371C43.3697 33.9302 43.6394 33.853 43.8776 33.7134Z" fill="black"/>
<path d="M42.2578 44.5841L42.2713 53.8275C42.2716 54.0184 42.3222 54.206 42.4178 54.3716C42.5134 54.5368 42.6511 54.6742 42.8167 54.7695C42.9823 54.8648 43.1702 54.9147 43.3611 54.9147C43.5524 54.9144 43.74 54.8638 43.9052 54.7682L51.8929 50.1351C52.1406 49.9906 52.3459 49.7839 52.4885 49.5352C52.6311 49.2865 52.7057 49.0045 52.7051 48.718L52.686 39.4842C52.6857 39.293 52.6351 39.1054 52.5395 38.9401C52.4439 38.7748 52.3062 38.6375 52.1406 38.5422C51.975 38.4466 51.7871 38.3966 51.5962 38.397C51.405 38.397 51.2173 38.4476 51.0521 38.5432L43.072 43.1687C42.8236 43.3122 42.6176 43.5186 42.4747 43.767C42.3317 44.0154 42.2568 44.2973 42.2578 44.5841Z" fill="#FF4F20"/>
</svg>
