<svg width="452" height="101" viewBox="0 0 452 101" fill="none" xmlns="http://www.w3.org/2000/svg">
<path d="M358.344 50.0538V71.986C358.341 72.303 358.214 72.6063 357.99 72.8296C357.766 73.053 357.464 73.1783 357.148 73.1783H348.343C348.026 73.1783 347.722 73.0518 347.498 72.8266C347.273 72.6014 347.147 72.296 347.147 71.9775V71.2435C347.147 71.1769 347.128 71.1118 347.092 71.0554C347.057 70.999 347.007 70.9536 346.947 70.9242C346.888 70.8947 346.821 70.8824 346.755 70.8886C346.689 70.8948 346.626 70.9192 346.573 70.9592C344.084 72.894 340.755 74.2688 336.243 74.2688C328.102 74.2688 322.647 69.542 322.647 62.3416C322.647 55.2091 328.102 50.5545 337.857 50.5545H346.442C346.633 50.5534 346.816 50.4766 346.952 50.3408C347.087 50.2049 347.163 50.021 347.164 49.8289C347.164 46.774 345.052 44.7373 342.002 44.7373C338.951 44.7373 336.974 45.8193 336.158 48.2718C336.069 48.5551 335.878 48.7955 335.624 48.9473C335.369 49.099 335.068 49.1516 334.777 49.0949L325.883 47.2959C325.752 47.2696 325.628 47.2162 325.519 47.1389C325.41 47.0616 325.318 46.9623 325.249 46.8472C325.18 46.7322 325.136 46.604 325.119 46.4708C325.103 46.3376 325.114 46.2024 325.153 46.0739C327.117 39.6117 333.307 35.5978 341.604 35.5978C351.875 35.5766 358.344 40.7404 358.344 50.0538ZM347.147 58.7817V58.3574C347.147 58.2618 347.11 58.17 347.042 58.1024C346.975 58.0348 346.884 57.9968 346.788 57.9968H339.15C336.243 57.9968 334.426 59.5243 334.426 61.7773C334.426 64.1067 336.458 65.5621 339.496 65.5621C343.514 65.5409 347.147 62.8593 347.147 58.7817Z" fill="#0B0B0B"/>
<path d="M369.879 60.7741C369.879 62.6612 371.249 63.9686 373.34 63.9686C374.426 63.8924 375.497 63.6631 376.52 63.2874C376.648 63.2474 376.782 63.2348 376.914 63.2505C377.046 63.2662 377.174 63.3097 377.288 63.3783C377.403 63.4469 377.502 63.5391 377.579 63.6488C377.656 63.7584 377.709 63.8833 377.736 64.0151L379.143 71.1107C379.195 71.3722 379.159 71.6437 379.04 71.8821C378.922 72.1204 378.728 72.3121 378.49 72.4266C376.123 73.6734 373.487 74.3059 370.818 74.2671C363.317 74.2671 358.344 69.1898 358.344 61.6457V18.5221C358.344 18.2045 358.468 17.9 358.691 17.6754C358.913 17.4508 359.215 17.3247 359.529 17.3247H368.693C369.008 17.3247 369.309 17.4508 369.532 17.6754C369.754 17.9 369.879 18.2045 369.879 18.5221V60.7741Z" fill="#0B0B0B"/>
<path d="M413.374 73.5164H404.148C403.831 73.5164 403.527 73.3892 403.303 73.1628C403.079 72.9365 402.953 72.6294 402.953 72.3093V70.8718C402.954 70.8012 402.934 70.7319 402.897 70.6725C402.859 70.6132 402.804 70.5664 402.74 70.5382C402.676 70.5099 402.605 70.5014 402.537 70.5137C402.468 70.526 402.404 70.5586 402.354 70.6074C399.644 73.1666 396.022 74.6126 391.768 74.6126C383.267 74.6126 377.602 68.5429 377.602 59.3297V38.0029C377.602 37.6823 377.728 37.3749 377.952 37.1478C378.176 36.9207 378.479 36.7926 378.797 36.7915H387.956C388.273 36.7926 388.577 36.9207 388.801 37.1478C389.025 37.3749 389.151 37.6823 389.151 38.0029V56.8302C389.151 61.1468 391.683 64.0814 395.398 64.0814C399.973 64.0814 402.953 60.9378 402.953 53.8445V38.0242C402.952 37.8653 402.983 37.7079 403.043 37.5609C403.102 37.414 403.19 37.2804 403.301 37.1679C403.412 37.0553 403.544 36.966 403.689 36.9051C403.835 36.8442 403.99 36.8128 404.148 36.8128H413.374C413.692 36.8128 413.997 36.9404 414.222 37.1676C414.447 37.3948 414.573 37.7029 414.573 38.0242V72.3178C414.57 72.6369 414.442 72.9417 414.218 73.1661C413.993 73.3905 413.69 73.5164 413.374 73.5164Z" fill="#0B0B0B"/>
<path d="M450.291 58.0308H426.028C425.975 58.0312 425.924 58.043 425.876 58.0655C425.829 58.088 425.787 58.1206 425.754 58.161C425.72 58.2014 425.696 58.2486 425.683 58.2993C425.669 58.35 425.667 58.4031 425.676 58.4548C426.688 62.5546 429.507 65.0646 433.182 65.0646C435.603 65.0646 438.388 64.4964 440.297 61.5583C440.429 61.3501 440.622 61.1873 440.849 61.0918C441.076 60.9963 441.326 60.9727 441.567 61.0241L449.275 62.6945C449.452 62.7303 449.619 62.8058 449.762 62.9152C449.906 63.0246 450.023 63.1652 450.104 63.3264C450.185 63.4876 450.229 63.6651 450.233 63.8457C450.236 64.0263 450.198 64.2053 450.122 64.3692C446.896 71.1529 440.78 74.409 433.19 74.409C422.976 74.409 414.527 66.6333 414.527 55.0757C414.527 43.5901 422.993 35.738 433.258 35.738C443.26 35.738 451.286 43.1534 451.498 55.0757V56.8521C451.491 57.1678 451.361 57.4682 451.135 57.6886C450.91 57.9091 450.607 58.032 450.291 58.0308ZM426.277 50.908H439.882C439.939 50.9078 439.994 50.8944 440.044 50.869C440.094 50.8435 440.138 50.8066 440.171 50.7613C440.204 50.7159 440.227 50.6634 440.236 50.6079C440.245 50.5523 440.242 50.4954 440.225 50.4416C439.078 46.8378 436.36 45.1631 433.249 45.1631C431.637 45.1699 430.067 45.6794 428.757 46.6208C427.447 47.5621 426.462 48.8886 425.939 50.4161C425.918 50.4716 425.91 50.5313 425.917 50.5902C425.924 50.6491 425.945 50.7055 425.978 50.7546C426.011 50.8037 426.056 50.8441 426.108 50.8722C426.16 50.9004 426.218 50.9155 426.277 50.9164V50.908Z" fill="#0B0B0B"/>
<path d="M268.329 66.1947C273.962 66.1947 278.528 61.1528 278.528 54.9333C278.528 48.7139 273.962 43.672 268.329 43.672C262.696 43.672 258.13 48.7139 258.13 54.9333C258.13 61.1528 262.696 66.1947 268.329 66.1947Z" fill="#FF4F20"/>
<path d="M166.252 38.4964L156.801 40.4197C156.566 40.4646 156.323 40.4193 156.12 40.2929C155.916 40.1666 155.768 39.9683 155.704 39.7377C154.561 35.8401 151.097 33.9209 147.57 33.9209C143.649 33.9209 141.155 36.0392 141.155 38.7505C141.155 40.6697 142.002 42.0889 145.004 42.7286L154.912 44.9316C163.178 46.7788 168.039 51.2568 168.039 58.7851C168.039 68.9527 158.986 74.2018 148.366 74.2018C138.068 74.2018 129.531 69.5204 127.693 60.9584C127.661 60.8053 127.66 60.6473 127.69 60.4938C127.719 60.3402 127.779 60.1941 127.866 60.0639C127.953 59.9338 128.065 59.8222 128.195 59.7357C128.325 59.6493 128.471 59.5896 128.625 59.5603L138.75 57.6031C138.977 57.5581 139.214 57.599 139.413 57.7179C139.612 57.8368 139.761 58.0253 139.829 58.247C141.206 62.5767 144.487 64.4705 149.01 64.4705C153.426 64.4705 156.064 62.4793 156.064 59.5688C156.064 57.4506 155.065 56.0864 151.648 55.3747L141.667 53.2564C134.824 51.6931 128.841 48.1429 128.841 39.475C128.841 30.2394 136.535 24.4819 147.727 24.4819C157.631 24.4819 164.957 29.1421 167.171 37.0432C167.212 37.1992 167.22 37.3619 167.195 37.5212C167.17 37.6804 167.113 37.8329 167.027 37.9691C166.941 38.1053 166.827 38.2224 166.694 38.3131C166.561 38.4038 166.411 38.4662 166.252 38.4964Z" fill="#0B0B0B"/>
<path d="M208.01 55.0671C208.01 66.5634 198.908 74.2304 188.147 74.2304C177.175 74.2304 168.064 66.5634 168.064 55.0671C168.064 43.6175 177.167 35.9845 188.147 35.9845C198.908 35.9548 208.01 43.6175 208.01 55.0671ZM196.886 55.0671C196.886 49.4229 192.624 45.6615 188.147 45.6615C183.45 45.6615 179.188 49.4229 179.188 55.0671C179.188 60.7792 183.45 64.4685 188.147 64.4685C192.624 64.4516 196.886 60.7623 196.886 55.0671Z" fill="#0B0B0B"/>
<path d="M246.569 38.4964L237.118 40.4197C236.883 40.4646 236.639 40.4193 236.436 40.2929C236.233 40.1666 236.085 39.9683 236.021 39.7377C234.878 35.8401 231.414 33.9209 227.887 33.9209C223.965 33.9209 221.471 36.0392 221.471 38.7505C221.471 40.6697 222.318 42.0889 225.32 42.7286L235.229 44.9316C243.495 46.7788 248.356 51.2568 248.356 58.7851C248.356 68.9527 239.303 74.2018 228.683 74.2018C218.384 74.2018 209.848 69.5204 208.01 60.9584C207.978 60.8053 207.977 60.6473 208.006 60.4938C208.036 60.3402 208.096 60.1941 208.183 60.0639C208.27 59.9338 208.381 59.8222 208.512 59.7357C208.642 59.6493 208.788 59.5896 208.942 59.5603L219.066 57.6031C219.294 57.5581 219.53 57.599 219.73 57.7179C219.929 57.8368 220.077 58.0253 220.146 58.247C221.522 62.5767 224.804 64.4705 229.326 64.4705C233.743 64.4705 236.381 62.4793 236.381 59.5688C236.381 57.4506 235.382 56.0864 231.964 55.3747L221.984 53.2564C215.141 51.6931 209.158 48.1429 209.158 39.475C209.158 30.2394 216.852 24.4819 228.043 24.4819C237.948 24.4819 245.273 29.1421 247.488 37.0432C247.528 37.1992 247.536 37.3619 247.512 37.5212C247.487 37.6804 247.429 37.8329 247.343 37.9691C247.257 38.1053 247.144 38.2224 247.011 38.3131C246.878 38.4038 246.727 38.4662 246.569 38.4964Z" fill="#0B0B0B"/>
<path d="M288.327 55.0671C288.327 66.5634 279.224 74.2304 268.464 74.2304C257.492 74.2304 248.381 66.5634 248.381 55.0671C248.381 43.6175 257.483 35.9845 268.464 35.9845C279.224 35.9548 288.327 43.6175 288.327 55.0671ZM277.203 55.0671C277.203 49.4229 272.941 45.6615 268.464 45.6615C263.767 45.6615 259.505 49.4229 259.505 55.0671C259.505 60.7792 263.767 64.4685 268.464 64.4685C272.941 64.4516 277.203 60.7623 277.203 55.0671Z" fill="#0B0B0B"/>
<path d="M311.812 74.2141H302.161C301.831 74.2125 301.508 74.1152 301.233 73.9342C300.958 73.7532 300.741 73.4963 300.61 73.1949L280.304 25.831C280.242 25.6849 280.217 25.5257 280.231 25.3676C280.245 25.2095 280.299 25.0574 280.387 24.925C280.475 24.7926 280.595 24.684 280.735 24.6089C280.876 24.5338 281.033 24.4945 281.192 24.4946H292.212C292.545 24.4964 292.871 24.596 293.149 24.7811C293.426 24.9661 293.642 25.2283 293.771 25.5349L306.621 56.6556C306.649 56.7212 306.695 56.7773 306.754 56.8167C306.814 56.8562 306.883 56.8772 306.955 56.8772C307.026 56.8772 307.096 56.8562 307.155 56.8167C307.215 56.7773 307.261 56.7212 307.288 56.6556L320.211 25.5603C320.34 25.2551 320.556 24.9942 320.832 24.8101C321.108 24.6259 321.433 24.5265 321.766 24.5242H332.811C332.97 24.5248 333.126 24.5646 333.266 24.64C333.406 24.7154 333.525 24.8241 333.613 24.9564C333.7 25.0887 333.753 25.2405 333.768 25.3983C333.782 25.556 333.757 25.7148 333.694 25.8606L313.393 73.2245C313.255 73.5251 313.032 73.7789 312.751 73.9548C312.47 74.1306 312.144 74.2208 311.812 74.2141Z" fill="#0B0B0B"/>
<path fill-rule="evenodd" clip-rule="evenodd" d="M45.4205 100.026L86.8642 75.9945C87.1848 75.8086 87.4509 75.5418 87.6357 75.2206C87.8205 74.8995 87.9176 74.5355 87.9172 74.165L87.8179 26.2738C87.8168 25.9031 87.7183 25.5392 87.5322 25.2186C87.3461 24.8979 87.0789 24.6318 86.7574 24.4469L45.2144 0.591851C44.8931 0.406446 44.5286 0.308838 44.1577 0.308838C43.7867 0.308838 43.4222 0.406446 43.101 0.591851L1.65721 24.6256C1.3364 24.811 1.0703 25.0779 0.885825 25.3991C0.701355 25.7204 0.605065 26.0846 0.60671 26.455L0.706047 74.3463C0.70628 74.7168 0.804487 75.0807 0.990709 75.4011C1.17693 75.7215 1.44456 75.987 1.76648 76.1708L43.3096 100.026C43.6304 100.211 43.9944 100.309 44.365 100.309C44.7356 100.309 45.0997 100.211 45.4205 100.026ZM57.1299 42.9773L75.3559 32.281C75.5147 32.1871 75.6462 32.0533 75.7373 31.8929C75.8283 31.7325 75.8759 31.5511 75.8751 31.3666C75.8744 31.1822 75.8254 31.0012 75.733 30.8415C75.6406 30.6819 75.508 30.5492 75.3485 30.4565L45.2367 13.1672C44.9159 12.9818 44.5518 12.8842 44.1812 12.8842C43.8107 12.8842 43.4466 12.9818 43.1258 13.1672L12.5571 30.8885C12.2359 31.0744 11.9695 31.3416 11.7846 31.6632C11.5998 31.9848 11.503 32.3495 11.5041 32.7204L11.5314 42.8457C11.5316 43.216 11.6296 43.5796 11.8153 43.9C12.0011 44.2203 12.268 44.486 12.5893 44.6702L32.3377 56.0194C32.6598 56.2041 32.9275 56.4705 33.1137 56.7917C33.2999 57.113 33.398 57.4776 33.3981 57.8488V68.004C33.3979 68.1274 33.3653 68.2485 33.3035 68.3554C33.2417 68.4622 33.153 68.551 33.0462 68.6128C32.9393 68.6746 32.8181 68.7073 32.6947 68.7076C32.5712 68.7079 32.4498 68.6759 32.3427 68.6146L23.1067 63.3099C22.8928 63.1844 22.7159 63.0047 22.5938 62.789C22.4717 62.5732 22.4088 62.329 22.4114 62.0812L22.399 58.7499C22.3974 58.3762 22.2969 58.0096 22.1076 57.6874C21.9183 57.3651 21.6469 57.0988 21.3211 56.9155L13.091 52.3009C12.9303 52.2107 12.7488 52.1642 12.5646 52.1659C12.3803 52.1677 12.1997 52.2176 12.0407 52.3107C11.8818 52.4038 11.75 52.5369 11.6584 52.6968C11.5669 52.8566 11.5188 53.0376 11.519 53.2218V59.5492L11.5413 68.0536C11.5416 68.4241 11.6398 68.788 11.826 69.1085C12.0122 69.4288 12.2798 69.6944 12.6018 69.8781L42.2243 86.8373C42.4386 86.9601 42.6815 87.0244 42.9285 87.0237C43.1756 87.023 43.4181 86.9574 43.6317 86.8334C43.8454 86.7094 44.0226 86.5314 44.1457 86.3172C44.2687 86.1031 44.3332 85.8604 44.3327 85.6135L44.2831 51.4842C44.2823 51.1134 44.1838 50.7494 43.9977 50.4287C43.8116 50.108 43.5443 49.8419 43.2226 49.6572L23.5786 38.3701C23.4713 38.3086 23.3821 38.2199 23.3201 38.1129C23.258 38.0059 23.2254 37.8844 23.2254 37.7607C23.2254 37.6371 23.258 37.5156 23.3201 37.4086C23.3821 37.3016 23.4713 37.2128 23.5786 37.1513L43.163 25.827C43.4843 25.6416 43.8488 25.544 44.2197 25.544C44.5907 25.544 44.9552 25.6416 45.2765 25.827L54.1349 30.9207C54.2422 30.9822 54.3314 31.071 54.3934 31.178C54.4554 31.285 54.4881 31.4065 54.4881 31.5301C54.4881 31.6538 54.4554 31.7753 54.3934 31.8823C54.3314 31.9893 54.2422 32.078 54.1349 32.1395L46.327 36.6375C46.1631 36.732 46.0277 36.8688 45.9349 37.0335C45.842 37.1982 45.7952 37.3849 45.7992 37.5739C45.8033 37.7629 45.8581 37.9474 45.958 38.108C46.0578 38.2686 46.1989 38.3994 46.3667 38.4868L55.0886 43.0294C55.4054 43.1943 55.7589 43.276 56.116 43.2669C56.473 43.2578 56.8219 43.1581 57.1299 42.9773Z" fill="#0B0B0B"/>
<path d="M55.0364 57.032L55.0538 68.9818C55.0541 69.2288 55.1195 69.4714 55.2433 69.6852C55.3671 69.899 55.5451 70.0764 55.7592 70.1997C55.9734 70.3229 56.2163 70.3877 56.4634 70.3874C56.7106 70.3871 56.9533 70.3219 57.1672 70.1981L67.4983 64.2083C67.8186 64.0217 68.0843 63.7543 68.2687 63.4328C68.453 63.1112 68.5496 62.7469 68.5488 62.3764L68.524 50.4389C68.5237 50.1919 68.4583 49.9493 68.3344 49.7355C68.2106 49.5218 68.0327 49.3443 67.8185 49.2211C67.6043 49.0978 67.3615 49.0331 67.1143 49.0333C66.8672 49.0336 66.6245 49.0989 66.4106 49.2226L56.0894 55.2025C55.7683 55.3878 55.5018 55.6545 55.3169 55.9758C55.132 56.297 55.0352 56.6614 55.0364 57.032Z" fill="#FF4F20"/>
</svg>
