<svg width="690" height="100" viewBox="0 0 690 100" fill="none" xmlns="http://www.w3.org/2000/svg">
<path fill-rule="evenodd" clip-rule="evenodd" d="M44.6843 99.4746L86.0085 75.5017C86.328 75.3161 86.5932 75.05 86.7775 74.7297C86.9619 74.4093 87.0589 74.0462 87.0585 73.6767L86.9593 25.9019C86.9585 25.532 86.8602 25.169 86.6746 24.8492C86.489 24.5293 86.2225 24.2638 85.9021 24.0793L44.4788 0.282325C44.1585 0.0973703 43.7949 0 43.425 0C43.0555 0 42.692 0.0973703 42.3716 0.282325L1.04749 24.2576C0.727606 24.4426 0.462267 24.7088 0.27833 25.0293C0.0943915 25.3497 -0.0016199 25.7131 2.06774e-05 26.0826L0.0990703 73.8572C0.099303 74.2271 0.197227 74.5898 0.382911 74.9097C0.568593 75.2292 0.835449 75.4941 1.15644 75.6775L42.5797 99.4746C42.8996 99.6593 43.2623 99.7568 43.6318 99.7568C44.0017 99.7568 44.3644 99.6593 44.6843 99.4746ZM56.3602 42.5648L74.5335 31.8944C74.692 31.8008 74.8229 31.6673 74.9136 31.5072C75.0042 31.3472 75.0517 31.1663 75.0513 30.9823C75.0504 30.7983 75.0013 30.6177 74.9093 30.4584C74.8174 30.2992 74.6852 30.1668 74.5258 30.0744L44.5013 12.8271C44.1814 12.6422 43.8182 12.5447 43.4487 12.5447C43.0792 12.5447 42.7161 12.6422 42.3962 12.8271L11.9158 30.5053C11.5957 30.6907 11.33 30.9573 11.1457 31.2781C10.9614 31.5989 10.8648 31.9627 10.8659 32.3328L10.8932 42.4335C10.8934 42.803 10.9911 43.1657 11.1763 43.4852C11.3615 43.8047 11.6277 44.0699 11.9481 44.2534L31.6394 55.575C31.9606 55.7593 32.2275 56.025 32.4132 56.3458C32.5988 56.6661 32.6967 57.0297 32.6967 57.4V67.5305C32.6965 67.6538 32.664 67.7746 32.6024 67.8809C32.5408 67.9877 32.4523 68.0763 32.3458 68.1377C32.2393 68.1996 32.1184 68.2322 31.9953 68.2326C31.8722 68.2326 31.7512 68.2008 31.6443 68.1398L22.4351 62.8479C22.2218 62.7229 22.0453 62.5436 21.9236 62.3284C21.8019 62.1131 21.7391 61.8695 21.7417 61.622L21.7293 58.2991C21.7278 57.9263 21.6276 57.5606 21.4388 57.239C21.25 56.9174 20.9794 56.6517 20.6546 56.4691L12.4483 51.8657C12.2881 51.7758 12.1071 51.7292 11.9233 51.7309C11.7396 51.7326 11.5595 51.7826 11.401 51.8754C11.2425 51.9682 11.1111 52.1013 11.0198 52.2606C10.9286 52.4199 10.8806 52.6004 10.8808 52.7843V59.0962L10.9031 67.5801C10.9033 67.9496 11.0012 68.3127 11.1869 68.6322C11.3726 68.9521 11.6394 69.2169 11.9604 69.4L41.4974 86.3182C41.7111 86.4407 41.9533 86.5047 42.1997 86.5038C42.4458 86.5034 42.6877 86.4377 42.9008 86.314C43.114 86.1903 43.2907 86.0127 43.4131 85.7991C43.536 85.5856 43.6004 85.3436 43.5996 85.097L43.5504 51.0508C43.5496 50.6809 43.4513 50.3178 43.2657 49.9979C43.0801 49.678 42.8136 49.4127 42.4928 49.2284L22.9056 37.9687C22.7986 37.9074 22.7096 37.8189 22.6478 37.7121C22.5859 37.6053 22.5534 37.4842 22.5534 37.3608C22.5534 37.2375 22.5859 37.1163 22.6478 37.0095C22.7096 36.9028 22.7986 36.8143 22.9056 36.7529L42.4335 25.4561C42.7538 25.2712 43.1174 25.1738 43.4873 25.1738C43.8572 25.1738 44.2203 25.2712 44.5407 25.4561L53.3737 30.5375C53.4805 30.5988 53.5695 30.6873 53.6314 30.7941C53.6932 30.9008 53.7258 31.022 53.7258 31.1454C53.7258 31.2687 53.6932 31.3899 53.6314 31.4967C53.5695 31.6034 53.4805 31.6919 53.3737 31.7533L45.5881 36.2403C45.425 36.3346 45.2898 36.471 45.1975 36.6353C45.1047 36.7997 45.0581 36.9859 45.0619 37.1744C45.0661 37.363 45.1208 37.547 45.2203 37.7072C45.3199 37.8675 45.4606 37.998 45.628 38.0851L54.3246 42.6165C54.6403 42.7814 54.9928 42.8627 55.3492 42.8534C55.7051 42.8445 56.053 42.7449 56.3602 42.5648Z" fill="white"/>
<path d="M54.2725 56.5855L54.2898 68.5063C54.2903 68.7525 54.3555 68.9944 54.4788 69.208C54.6021 69.4211 54.7797 69.5982 54.9932 69.7211C55.2068 69.844 55.4492 69.9084 55.6954 69.9084C55.942 69.908 56.1839 69.8427 56.3971 69.7194L66.6983 63.7444C67.0178 63.558 67.2826 63.2915 67.4665 62.9707C67.6504 62.6499 67.7466 62.2864 67.7458 61.9169L67.7212 50.0084C67.7208 49.7618 67.6555 49.5199 67.5322 49.3067C67.4089 49.0936 67.2314 48.9165 67.0178 48.7936C66.8043 48.6703 66.5619 48.6059 66.3157 48.6063C66.0691 48.6063 65.8271 48.6715 65.614 48.7949L55.3225 54.7601C55.0021 54.9453 54.7365 55.2114 54.5521 55.5317C54.3678 55.8521 54.2712 56.2156 54.2725 56.5855Z" fill="#FF4F20"/>
<path d="M350.523 50.4415V72.344C350.52 72.6606 350.393 72.9635 350.168 73.1864C349.944 73.4097 349.64 73.5347 349.323 73.5347H340.493C340.175 73.5347 339.87 73.4085 339.645 73.1835C339.42 72.9585 339.294 72.6538 339.294 72.3356V71.6025C339.293 71.536 339.274 71.4712 339.238 71.4148C339.203 71.3585 339.152 71.3131 339.093 71.2835C339.033 71.2542 338.966 71.2419 338.9 71.2483C338.834 71.2542 338.77 71.2788 338.717 71.3186C336.222 73.2508 332.883 74.6237 328.357 74.6237C320.192 74.6237 314.722 69.9034 314.722 62.7127C314.722 55.5898 320.192 50.9415 329.976 50.9415H338.586C338.778 50.9402 338.962 50.8635 339.097 50.728C339.233 50.5924 339.309 50.4089 339.311 50.2169C339.311 47.1661 337.192 45.1322 334.133 45.1322C331.073 45.1322 329.09 46.2127 328.273 48.6618C328.182 48.9449 327.992 49.1847 327.736 49.3364C327.481 49.4881 327.178 49.5402 326.887 49.4839L317.967 47.6873C317.836 47.661 317.712 47.6076 317.602 47.5305C317.492 47.4534 317.4 47.3542 317.331 47.2394C317.262 47.1241 317.217 46.9962 317.201 46.8631C317.184 46.7301 317.196 46.5953 317.234 46.4669C319.205 40.0135 325.412 36.0051 333.734 36.0051C344.035 35.9839 350.523 41.1407 350.523 50.4415ZM339.294 59.1576V58.7339C339.294 58.6385 339.256 58.5466 339.188 58.4792C339.121 58.4114 339.029 58.3737 338.934 58.3737H331.273C328.357 58.3737 326.535 59.8991 326.535 62.1491C326.535 64.4754 328.573 65.9288 331.62 65.9288C335.65 65.9076 339.294 63.2296 339.294 59.1576Z" fill="white"/>
<path d="M362.036 61.1195C362.036 63.0093 363.422 64.3187 365.536 64.3187C366.635 64.2424 367.717 64.0127 368.752 63.6365C368.881 63.5962 369.016 63.5839 369.15 63.5996C369.284 63.6153 369.413 63.6589 369.528 63.7276C369.645 63.7962 369.745 63.8886 369.823 63.9983C369.901 64.1081 369.954 64.2331 369.981 64.3653L371.405 71.4712C371.457 71.7331 371.42 72.0051 371.301 72.2437C371.181 72.4822 370.985 72.6742 370.744 72.789C368.35 74.0377 365.684 74.6712 362.985 74.6322C355.4 74.6322 350.371 69.5475 350.371 61.9924V18.8059C350.371 18.4879 350.497 18.1829 350.722 17.9579C350.947 17.7331 351.252 17.6068 351.57 17.6068H360.837C361.155 17.6068 361.46 17.7331 361.685 17.9579C361.91 18.1829 362.036 18.4879 362.036 18.8059V61.1195Z" fill="white"/>
<path d="M405.485 73.5348H396.222C395.904 73.5348 395.599 73.4085 395.374 73.1835C395.149 72.9585 395.023 72.6539 395.023 72.3357V70.9077C395.024 70.8373 395.004 70.7687 394.966 70.7098C394.929 70.6509 394.874 70.6043 394.81 70.5763C394.745 70.5479 394.674 70.5399 394.605 70.5518C394.536 70.564 394.472 70.5967 394.421 70.645C391.701 73.1874 388.066 74.6238 383.794 74.6238C375.26 74.6238 369.574 68.5941 369.574 59.4416V38.2551C369.574 37.9367 369.7 37.6313 369.925 37.4057C370.15 37.1801 370.454 37.0529 370.773 37.0518H379.968C380.286 37.0529 380.591 37.1801 380.816 37.4057C381.041 37.6313 381.167 37.9367 381.167 38.2551V56.9585C381.167 61.2467 383.71 64.1619 387.438 64.1619C392.032 64.1619 395.023 61.039 395.023 53.9924V38.2763C395.023 38.1185 395.053 37.9621 395.113 37.8161C395.173 37.6701 395.261 37.5375 395.373 37.4257C395.484 37.3139 395.617 37.2251 395.763 37.1646C395.908 37.1041 396.064 37.0729 396.222 37.0729H405.485C405.804 37.0729 406.11 37.1997 406.336 37.4254C406.562 37.6511 406.688 37.9572 406.688 38.2763V72.3441C406.685 72.6611 406.557 72.964 406.332 73.1869C406.106 73.4098 405.802 73.5348 405.485 73.5348Z" fill="white"/>
<path d="M442.616 58.2805H418.328C418.277 58.281 418.222 58.2928 418.175 58.3153C418.128 58.3377 418.086 58.3704 418.052 58.4106C418.018 58.4509 417.997 58.4983 417.98 58.5487C417.967 58.5996 417.967 58.6526 417.976 58.7043C418.989 62.8017 421.811 65.3102 425.489 65.3102C427.912 65.3102 430.7 64.7424 432.611 61.806C432.743 61.5979 432.938 61.4352 433.162 61.3398C433.391 61.2441 433.641 61.2208 433.883 61.2721L441.599 62.9415C441.777 62.9771 441.942 63.0526 442.086 63.1619C442.23 63.2712 442.345 63.4119 442.429 63.5729C442.51 63.7339 442.552 63.9115 442.556 64.092C442.561 64.2725 442.523 64.4513 442.446 64.6153C439.217 71.3949 433.095 74.6492 425.497 74.6492C415.273 74.6492 406.814 66.878 406.814 55.3271C406.814 43.8483 415.289 36.0008 425.565 36.0008C435.578 36.0008 443.612 43.4119 443.823 55.3271V57.1026C443.815 57.4178 443.688 57.7182 443.459 57.9386C443.234 58.1589 442.929 58.2818 442.616 58.2805ZM418.578 51.1619H432.196C432.251 51.1619 432.306 51.1483 432.357 51.1229C432.408 51.0975 432.45 51.0606 432.484 51.0153C432.518 50.9699 432.539 50.9174 432.548 50.8619C432.561 50.8064 432.556 50.7496 432.539 50.6958C431.391 47.0941 428.671 45.4204 425.556 45.4204C423.942 45.4271 422.37 45.9365 421.061 46.8771C419.747 47.8178 418.76 49.1437 418.239 50.6704C418.217 50.7259 418.209 50.7852 418.217 50.8441C418.222 50.903 418.243 50.9593 418.277 51.0085C418.311 51.0576 418.357 51.0979 418.408 51.1263C418.459 51.1543 418.518 51.1695 418.578 51.1704V51.1619Z" fill="white"/>
<path d="M262.017 66.6787C267.625 66.6787 272.17 61.6211 272.17 55.3821C272.17 49.1431 267.625 44.0855 262.017 44.0855C256.41 44.0855 251.865 49.1431 251.865 55.3821C251.865 61.6211 256.41 66.6787 262.017 66.6787Z" fill="#FF4F20"/>
<path d="M159.373 38.789L149.915 40.7127C149.68 40.7576 149.436 40.7123 149.233 40.586C149.03 40.4596 148.881 40.2613 148.818 40.0305C147.673 36.1322 144.207 34.2127 140.678 34.2127C136.754 34.2127 134.258 36.3314 134.258 39.0433C134.258 40.9627 135.106 42.3823 138.11 43.0221L148.025 45.2255C156.296 47.073 161.161 51.5518 161.161 59.0814C161.161 69.2509 152.101 74.5009 141.474 74.5009C131.169 74.5009 122.627 69.8187 120.788 61.2552C120.756 61.1022 120.754 60.9441 120.784 60.7903C120.814 60.6369 120.874 60.4908 120.961 60.3607C121.048 60.2302 121.159 60.1187 121.29 60.0323C121.42 59.9458 121.566 59.8861 121.72 59.8569L131.851 57.8992C132.079 57.8543 132.316 57.895 132.515 58.0141C132.715 58.1331 132.863 58.3213 132.932 58.5433C134.309 62.8738 137.593 64.7679 142.118 64.7679C146.538 64.7679 149.178 62.7763 149.178 59.8653C149.178 57.7467 148.178 56.3823 144.758 55.6704L134.771 53.5518C127.923 51.9882 121.936 48.4374 121.936 39.7678C121.936 30.5305 129.635 24.7721 140.834 24.7721C150.745 24.7721 158.076 29.4331 160.292 37.3356C160.333 37.4917 160.341 37.6544 160.316 37.8137C160.291 37.973 160.234 38.1255 160.148 38.2617C160.061 38.398 159.948 38.515 159.815 38.6058C159.681 38.6964 159.531 38.7588 159.373 38.789Z" fill="white"/>
<path d="M201.151 55.3144C201.151 66.8017 192.012 74.4627 181.207 74.4627C170.19 74.4627 161.041 66.8017 161.041 55.3144C161.041 43.8737 170.181 36.2466 181.207 36.2466C192.012 36.2169 201.151 43.8737 201.151 55.3144ZM189.982 55.3144C189.982 49.6745 185.702 45.9161 181.207 45.9161C176.49 45.9161 172.211 49.6745 172.211 55.3144C172.211 61.022 176.49 64.7084 181.207 64.7084C185.702 64.6915 189.982 61.0051 189.982 55.3144Z" fill="white"/>
<path d="M239.457 38.789L229.999 40.7127C229.764 40.7576 229.52 40.7123 229.317 40.586C229.114 40.4596 228.966 40.2613 228.902 40.0305C227.758 36.1322 224.292 34.2127 220.762 34.2127C216.838 34.2127 214.342 36.3314 214.342 39.0433C214.342 40.9627 215.19 42.3823 218.194 43.0221L228.109 45.2255C236.381 47.073 241.245 51.5518 241.245 59.0814C241.245 69.2509 232.186 74.5009 221.559 74.5009C211.253 74.5009 202.711 69.8187 200.872 61.2552C200.84 61.1022 200.839 60.9441 200.868 60.7903C200.898 60.6369 200.958 60.4908 201.045 60.3607C201.132 60.2302 201.244 60.1187 201.374 60.0323C201.504 59.9458 201.65 59.8861 201.804 59.8569L211.936 57.8992C212.164 57.8543 212.4 57.895 212.599 58.0141C212.799 58.1331 212.947 58.3213 213.016 58.5433C214.393 62.8738 217.677 64.7679 222.203 64.7679C226.622 64.7679 229.262 62.7763 229.262 59.8653C229.262 57.7467 228.262 56.3823 224.842 55.6704L214.855 53.5518C208.008 51.9882 202.02 48.4374 202.02 39.7678C202.02 30.5305 209.72 24.7721 220.919 24.7721C230.83 24.7721 238.16 29.4331 240.376 37.3356C240.417 37.4917 240.425 37.6544 240.4 37.8137C240.375 37.973 240.318 38.1255 240.232 38.2617C240.145 38.398 240.032 38.515 239.899 38.6058C239.766 38.6964 239.615 38.7588 239.457 38.789Z" fill="white"/>
<path d="M281.237 55.3144C281.237 66.8017 272.097 74.4627 261.292 74.4627C250.275 74.4627 241.127 66.8017 241.127 55.3144C241.127 43.8737 250.267 36.2466 261.292 36.2466C272.097 36.2169 281.237 43.8737 281.237 55.3144ZM270.068 55.3144C270.068 49.6745 265.788 45.9161 261.292 45.9161C256.576 45.9161 252.296 49.6745 252.296 55.3144C252.296 61.022 256.576 64.7084 261.292 64.7084C265.788 64.6915 270.068 61.0051 270.068 55.3144Z" fill="white"/>
<path d="M303.984 74.6025H294.357C294.028 74.6008 293.707 74.5034 293.432 74.322C293.157 74.1406 292.941 73.8834 292.81 73.5813L272.556 26.1237C272.494 25.9773 272.469 25.8178 272.483 25.6594C272.498 25.501 272.551 25.3486 272.639 25.2159C272.726 25.0833 272.845 24.9744 272.986 24.8992C273.126 24.8239 273.283 24.7846 273.442 24.7847H284.433C284.766 24.7865 285.091 24.8863 285.368 25.0717C285.644 25.257 285.86 25.5198 285.988 25.827L298.806 57.0093C298.833 57.075 298.879 57.1313 298.939 57.1707C298.998 57.2101 299.068 57.2313 299.139 57.2313C299.21 57.2313 299.279 57.2101 299.339 57.1707C299.398 57.1313 299.444 57.075 299.471 57.0093L312.361 25.8525C312.49 25.5467 312.705 25.2853 312.981 25.1008C313.257 24.9162 313.58 24.8166 313.912 24.8144H324.929C325.088 24.8149 325.244 24.8548 325.383 24.9303C325.523 25.0059 325.642 25.1148 325.729 25.2474C325.816 25.3799 325.869 25.532 325.884 25.6901C325.898 25.8482 325.873 26.0073 325.81 26.1533L305.56 73.611C305.423 73.9123 305.201 74.1665 304.921 74.3428C304.64 74.5186 304.315 74.6093 303.984 74.6025Z" fill="white"/>
<path d="M479.426 29.5455V75H468.44V29.5455H479.426ZM494.052 55.5575V75H483.198V40.9091H493.519V47.168H493.896C494.651 45.0817 495.938 43.4467 497.758 42.263C499.578 41.0645 501.746 40.4652 504.261 40.4652C506.658 40.4652 508.737 41.0053 510.498 42.0854C512.273 43.1507 513.649 44.6452 514.626 46.5687C515.617 48.4774 516.106 50.7117 516.091 53.2715V75H505.238V55.4022C505.253 53.5082 504.772 52.0286 503.795 50.9632C502.833 49.8979 501.494 49.3652 499.778 49.3652C498.639 49.3652 497.632 49.6168 496.759 50.1198C495.901 50.6081 495.235 51.311 494.762 52.2283C494.303 53.1457 494.066 54.2554 494.052 55.5575ZM532.136 75.4883C529.621 75.4883 527.335 74.8372 525.278 73.5352C523.222 72.2331 521.579 70.2799 520.351 67.6758C519.123 65.0716 518.509 61.8386 518.509 57.9767C518.509 53.9669 519.145 50.6673 520.418 48.0779C521.69 45.4886 523.355 43.5724 525.411 42.3295C527.483 41.0866 529.71 40.4652 532.092 40.4652C533.882 40.4652 535.414 40.7759 536.686 41.3974C537.959 42.004 539.009 42.7882 539.838 43.75C540.667 44.7118 541.295 45.7105 541.725 46.7463H541.946V29.5455H552.8V75H542.057V69.4735H541.725C541.266 70.5241 540.615 71.508 539.771 72.4254C538.928 73.3428 537.87 74.0826 536.598 74.6449C535.34 75.2071 533.853 75.4883 532.136 75.4883ZM535.91 67.0321C537.226 67.0321 538.351 66.6622 539.283 65.9224C540.215 65.1678 540.933 64.1098 541.436 62.7486C541.939 61.3873 542.191 59.7893 542.191 57.9545C542.191 56.0902 541.939 54.4848 541.436 53.1383C540.948 51.7918 540.23 50.7561 539.283 50.0311C538.351 49.306 537.226 48.9435 535.91 48.9435C534.563 48.9435 533.424 49.3134 532.492 50.0533C531.559 50.7931 530.849 51.8362 530.361 53.1827C529.887 54.5292 529.651 56.1198 529.651 57.9545C529.651 59.7893 529.895 61.3873 530.383 62.7486C530.871 64.1098 531.574 65.1678 532.492 65.9224C533.424 66.6622 534.563 67.0321 535.91 67.0321ZM572.474 75.6436C568.908 75.6436 565.83 74.9408 563.241 73.5352C560.667 72.1147 558.684 70.095 557.293 67.476C555.917 64.8423 555.229 61.7128 555.229 58.0877C555.229 54.5662 555.924 51.4885 557.315 48.8548C558.706 46.2062 560.667 44.1495 563.197 42.6847C565.727 41.205 568.708 40.4652 572.141 40.4652C574.568 40.4652 576.787 40.8425 578.799 41.5971C580.812 42.3517 582.55 43.4689 584.015 44.9485C585.48 46.4281 586.619 48.2555 587.433 50.4306C588.247 52.5908 588.654 55.0692 588.654 57.8658V60.5735H559.024V54.2702H578.555C578.541 53.1161 578.267 52.0878 577.734 51.1852C577.201 50.2826 576.469 49.5798 575.537 49.0767C574.62 48.5588 573.562 48.2999 572.363 48.2999C571.15 48.2999 570.062 48.5736 569.1 49.1211C568.139 49.6538 567.377 50.3862 566.814 51.3184C566.252 52.2357 565.956 53.2789 565.927 54.4478V60.862C565.927 62.2529 566.2 63.4736 566.748 64.5241C567.295 65.5599 568.072 66.3663 569.078 66.9434C570.084 67.5204 571.283 67.8089 572.674 67.8089C573.636 67.8089 574.509 67.6758 575.293 67.4094C576.077 67.1431 576.75 66.751 577.312 66.2331C577.875 65.7153 578.296 65.079 578.578 64.3244L588.543 64.6129C588.129 66.8472 587.219 68.7929 585.813 70.4501C584.422 72.0925 582.595 73.3724 580.331 74.2898C578.067 75.1924 575.448 75.6436 572.474 75.6436ZM599.817 40.9091L605.432 52.1396L611.247 40.9091H622.189L612.667 57.9545L622.544 75H611.691L605.432 63.6808L599.328 75H588.32L598.219 57.9545L588.808 40.9091H599.817ZM638.734 75.6436C635.168 75.6436 632.09 74.9408 629.501 73.5352C626.926 72.1147 624.944 70.095 623.553 67.476C622.177 64.8423 621.489 61.7128 621.489 58.0877C621.489 54.5662 622.184 51.4885 623.575 48.8548C624.966 46.2062 626.926 44.1495 629.456 42.6847C631.987 41.205 634.968 40.4652 638.401 40.4652C640.827 40.4652 643.047 40.8425 645.059 41.5971C647.072 42.3517 648.81 43.4689 650.275 44.9485C651.74 46.4281 652.879 48.2555 653.693 50.4306C654.507 52.5908 654.914 55.0692 654.914 57.8658V60.5735H625.284V54.2702H644.815C644.8 53.1161 644.527 52.0878 643.994 51.1852C643.461 50.2826 642.729 49.5798 641.797 49.0767C640.879 48.5588 639.821 48.2999 638.623 48.2999C637.41 48.2999 636.322 48.5736 635.36 49.1211C634.398 49.6538 633.636 50.3862 633.074 51.3184C632.512 52.2357 632.216 53.2789 632.186 54.4478V60.862C632.186 62.2529 632.46 63.4736 633.008 64.5241C633.555 65.5599 634.332 66.3663 635.338 66.9434C636.344 67.5204 637.543 67.8089 638.934 67.8089C639.895 67.8089 640.768 67.6758 641.553 67.4094C642.337 67.1431 643.01 66.751 643.572 66.2331C644.134 65.7153 644.556 65.079 644.837 64.3244L654.803 64.6129C654.388 66.8472 653.478 68.7929 652.073 70.4501C650.682 72.0925 648.855 73.3724 646.591 74.2898C644.327 75.1924 641.708 75.6436 638.734 75.6436ZM687.095 51.3184L677.129 51.5847C677.026 50.8745 676.745 50.2456 676.286 49.6982C675.827 49.1359 675.228 48.6994 674.488 48.3887C673.763 48.0632 672.92 47.9004 671.958 47.9004C670.7 47.9004 669.628 48.1519 668.74 48.655C667.867 49.1581 667.438 49.8387 667.453 50.6969C667.438 51.3627 667.704 51.9398 668.252 52.4281C668.814 52.9164 669.813 53.3085 671.248 53.6044L677.817 54.8473C681.221 55.4983 683.751 56.5785 685.408 58.0877C687.08 59.5969 687.923 61.5945 687.938 64.0803C687.923 66.4181 687.228 68.4526 685.852 70.1838C684.491 71.915 682.626 73.2614 680.259 74.2232C677.891 75.1702 675.184 75.6436 672.136 75.6436C667.268 75.6436 663.428 74.6449 660.617 72.6474C657.82 70.6351 656.222 67.9421 655.823 64.5685L666.543 64.3022C666.779 65.5451 667.393 66.4921 668.385 67.1431C669.376 67.7942 670.641 68.1197 672.18 68.1197C673.571 68.1197 674.703 67.8607 675.576 67.3429C676.449 66.825 676.893 66.137 676.907 65.2788C676.893 64.5094 676.552 63.8953 675.886 63.4366C675.221 62.9631 674.177 62.5932 672.757 62.3269L666.809 61.195C663.391 60.5735 660.846 59.4268 659.174 57.7548C657.502 56.068 656.673 53.9225 656.688 51.3184C656.673 49.0397 657.28 47.094 658.508 45.4812C659.736 43.8536 661.482 42.6107 663.746 41.7525C666.01 40.8943 668.681 40.4652 671.758 40.4652C676.375 40.4652 680.015 41.4344 682.678 43.3727C685.341 45.2962 686.814 47.9448 687.095 51.3184Z" fill="#FF4F20"/>
</svg>
